<svg width="35" height="40" viewBox="0 0 35 40" fill="none" xmlns="http://www.w3.org/2000/svg">
<path d="M30.5973 11.1679C33.64 11.5479 35.8433 15.7901 34.6867 15.0881C33.4156 14.3205 32.287 13.2178 30.3599 12.5982C29.4687 12.3155 29.65 11.0499 30.5973 11.1679Z" fill="#263A8B"/>
<path d="M25.7871 12.9275C29.3322 12.5292 34.1505 14.5316 34.6656 17.2733C34.841 18.2192 34.1235 18.3003 33.7501 17.3766C33.0033 15.542 27.8948 13.9305 25.4565 14.3232C24.4847 14.48 24.8019 13.0363 25.7871 12.9275Z" fill="#263A8B"/>
<path d="M2.32819 22.4071C2.40869 22.2571 2.66713 22.3157 2.66078 22.4748C2.56757 24.4216 3.13741 26.169 5.25369 27.4461C6.08409 27.9218 4.88932 28.9117 3.40221 27.8706C1.08046 25.8945 1.17367 24.5314 2.32819 22.4071Z" fill="#263A8B"/>
<path d="M5.09582 21.2607C5.17409 21.1125 5.43217 21.1692 5.42583 21.3303C5.33275 23.2771 5.90392 25.0244 8.01725 26.3016C8.8465 26.7755 7.65339 27.7672 6.16835 26.7242C3.84347 24.7482 3.93444 23.3868 5.09582 21.2607Z" fill="#263A8B"/>
<path d="M18.6548 39.1765C18.322 39.1069 18.0266 38.9075 17.8745 38.655C17.729 38.4153 17.7224 38.139 17.8679 37.859L21.2493 30.8837C21.5821 30.2707 21.4851 29.8516 21.3463 29.6174C21.2096 29.3777 20.9605 29.2112 20.6497 29.1417C20.1515 29.0392 19.5872 29.2167 19.164 29.6119L12.6613 36.0493C12.1632 36.4738 11.5702 36.4281 11.2594 36.364C10.7194 36.2487 10.2587 35.9121 10.1198 35.5278C10.003 35.2131 10.1132 34.8873 10.4306 34.5946L17.0523 28.8837C17.8525 28.1279 17.7907 27.5387 17.6871 27.2514C17.5417 26.869 17.1757 26.5872 16.6732 26.4847C16.1265 26.3695 15.5115 26.4738 14.9384 26.7757L8.29022 30.3219C7.46802 30.8196 6.97205 30.7849 6.7913 30.7464C6.59732 30.7062 6.47388 30.6019 6.432 30.4537C6.35705 30.1956 6.50254 29.7547 7.14399 29.2844L18.1302 21.793L18.15 21.7766C19.4351 20.6201 19.9532 19.6686 19.6908 18.9367C19.5035 18.4152 18.9568 18.0547 18.0663 17.8644L13.3998 17.1782C11.8325 16.7024 11.7906 16.3932 11.7906 16.3877C11.7906 16.3877 11.8259 16.1187 13.1309 15.7162C18.0178 14.8012 23.1273 14.761 27.1546 15.6137C30.5933 16.342 32.899 17.6247 33.6573 19.2386C34.2105 20.4243 33.9196 21.7528 32.7888 23.191C29.9651 26.7702 27.3464 32.2688 26.1186 37.2057C26.0282 37.6925 25.8276 38.0365 25.5455 38.192C25.3449 38.3 25.1509 38.289 25.0274 38.2652C24.807 38.2195 24.613 38.0877 24.4808 37.9047C24.364 37.7382 24.2537 37.4638 24.386 37.074L25.9599 32.4189C26.1935 31.6284 25.6755 31.0831 25.0539 30.9514C24.386 30.8086 23.48 31.0959 23.0524 32.0456L19.7856 38.5928C19.4903 39.2735 18.8951 39.2277 18.6548 39.1765Z" fill="#263A8B"/>
<path d="M10.9204 25.638C9.11944 25.2593 7.96659 24.068 7.49708 22.1028C6.49412 17.9106 3.72553 12.465 0.438919 8.21983C-0.00193999 7.71662 -0.112155 7.27563 0.114888 6.99567C0.286823 6.78341 0.646123 6.69191 0.998811 6.76511C1.31623 6.83464 1.60058 7.02311 1.78575 7.3104L4.58961 11.5538C4.8938 11.9783 5.26633 12.132 5.52864 12.1887C6.00477 12.293 6.50294 12.1485 6.83359 11.8228C7.26783 11.3983 7.31633 10.7633 6.97907 10.1338L3.79606 3.57021C3.58886 3.20242 3.6087 2.89317 3.83574 2.66444C4.09805 2.40644 4.57639 2.2875 5.01063 2.37899C5.25972 2.43022 5.59036 2.57295 5.77773 2.96271L9.2495 9.9106C9.57353 10.6316 10.0783 10.8383 10.3538 10.895C10.6867 10.9646 11.0306 10.9005 11.3017 10.7176C11.6522 10.4778 11.8462 10.0698 11.8109 9.60684L11.024 1.23351C11.024 0.763243 11.3215 0.464979 11.5706 0.300294C11.963 0.0422868 12.5229 -0.0620137 12.9924 0.0367972C13.2966 0.0990119 13.808 0.305783 13.841 0.975503L13.9248 8.89687C13.9799 9.77336 14.4428 10.379 15.1526 10.5346C15.5207 10.6096 15.9065 10.5565 16.2525 10.379C16.7221 10.1448 17.0593 9.7148 17.2114 9.18232L18.9727 2.7907C19.0895 2.21796 19.3319 1.80625 19.6494 1.63424C19.7794 1.55922 19.9183 1.53726 20.0417 1.56471C20.3878 1.63973 20.7339 2.07524 20.6633 2.86024L19.1732 14.2802C17.088 14.3608 14.9741 14.6005 12.8954 14.9902L12.869 14.9957L12.8403 15.0012C11.9983 15.2592 10.8873 15.6837 10.8873 16.3827C10.8873 16.9481 11.5772 17.4129 13.1246 17.8759L13.1577 17.8887L17.8749 18.5804C18.4061 18.6956 18.7368 18.8841 18.8272 19.1366C18.9859 19.5776 18.5031 20.3388 17.509 21.2446L11.046 25.66C11.0041 25.6545 10.9622 25.649 10.9204 25.638Z" fill="#263A8B"/>
</svg>
