<svg xmlns="http://www.w3.org/2000/svg" xmlns:xlink="http://www.w3.org/1999/xlink" width="500" zoomAndPan="magnify" viewBox="0 0 375 374.999991" height="500" preserveAspectRatio="xMidYMid meet" version="1.0"><defs><clipPath id="d282ffae1e"><path d="M 29 145 L 365.765625 145 L 365.765625 324.488281 L 29 324.488281 Z M 29 145 " clip-rule="nonzero"/></clipPath><clipPath id="ee3ebde399"><path d="M 9.515625 132 L 53 132 L 53 147 L 9.515625 147 Z M 9.515625 132 " clip-rule="nonzero"/></clipPath></defs><g clip-path="url(#d282ffae1e)"><path fill="#263a8b" d="M 306.71875 206.339844 L 305.546875 206.339844 C 295.175781 170.847656 262.09375 145.765625 224.707031 145.765625 C 194.851562 145.765625 167.683594 161.234375 152.503906 186.664062 C 146.398438 184.449219 139.980469 183.40625 133.433594 183.40625 C 103.925781 183.40625 79.476562 205.550781 75.933594 234.207031 C 50.472656 233.195312 29.316406 253.945312 29.316406 279.316406 C 29.316406 304.179688 49.558594 324.488281 74.511719 324.488281 L 306.71875 324.488281 C 339.261719 324.488281 365.765625 297.980469 365.765625 265.398438 C 365.765625 232.847656 339.261719 206.339844 306.71875 206.339844 " fill-opacity="1" fill-rule="nonzero"/></g><path fill="#263a8b" d="M 62.585938 139.40625 C 62.585938 158.796875 78.335938 174.550781 97.726562 174.550781 C 117.113281 174.550781 132.863281 158.796875 132.863281 139.40625 C 132.863281 120.109375 117.113281 104.359375 97.726562 104.359375 C 78.335938 104.359375 62.585938 120.109375 62.585938 139.40625 " fill-opacity="1" fill-rule="nonzero"/><path fill="#263a8b" d="M 150.035156 77.058594 L 129.511719 97.589844 C 126.664062 100.371094 126.664062 104.925781 129.511719 107.710938 C 130.871094 109.070312 132.703125 109.765625 134.476562 109.765625 C 136.34375 109.765625 138.113281 109.070312 139.535156 107.710938 L 160.125 87.117188 C 162.910156 84.335938 162.910156 79.84375 160.125 77.058594 C 157.375 74.277344 152.789062 74.277344 150.035156 77.058594 " fill-opacity="1" fill-rule="nonzero"/><g clip-path="url(#ee3ebde399)"><path fill="#263a8b" d="M 16.632812 146.554688 L 45.699219 146.554688 C 49.621094 146.554688 52.847656 143.421875 52.847656 139.4375 C 52.847656 135.515625 49.621094 132.289062 45.699219 132.289062 L 16.632812 132.289062 C 12.648438 132.289062 9.515625 135.515625 9.515625 139.4375 C 9.515625 143.421875 12.648438 146.554688 16.632812 146.554688 " fill-opacity="1" fill-rule="nonzero"/></g><path fill="#263a8b" d="M 104.839844 87.402344 L 104.839844 58.332031 C 104.839844 54.410156 101.648438 51.214844 97.726562 51.214844 C 93.804688 51.214844 90.609375 54.410156 90.609375 58.332031 L 90.609375 87.402344 C 90.609375 91.386719 93.804688 94.519531 97.726562 94.519531 C 101.648438 94.519531 104.839844 91.386719 104.839844 87.402344 " fill-opacity="1" fill-rule="nonzero"/><path fill="#263a8b" d="M 35.324219 201.847656 C 36.746094 203.273438 38.582031 203.90625 40.351562 203.90625 C 42.21875 203.90625 43.992188 203.273438 45.414062 201.847656 L 65.941406 181.253906 C 68.785156 178.472656 68.785156 173.980469 65.941406 171.195312 C 63.15625 168.414062 58.695312 168.414062 55.914062 171.195312 L 35.324219 191.789062 C 32.542969 194.574219 32.542969 199.066406 35.324219 201.847656 " fill-opacity="1" fill-rule="nonzero"/><path fill="#263a8b" d="M 45.414062 77.058594 C 42.660156 74.277344 38.171875 74.277344 35.324219 77.058594 C 32.542969 79.84375 32.542969 84.335938 35.324219 87.117188 L 55.914062 107.710938 C 57.335938 109.070312 59.109375 109.765625 60.972656 109.765625 C 62.746094 109.765625 64.578125 109.070312 65.941406 107.710938 C 68.785156 104.925781 68.785156 100.433594 65.941406 97.589844 L 45.414062 77.058594 " fill-opacity="1" fill-rule="nonzero"/><path fill="#263a8b" d="M 142.605469 139.40625 C 142.605469 143.421875 145.832031 146.554688 149.753906 146.554688 L 178.816406 146.554688 C 182.800781 146.554688 185.933594 143.421875 185.933594 139.40625 C 185.933594 135.484375 182.800781 132.289062 178.816406 132.289062 L 149.753906 132.289062 C 145.832031 132.289062 142.605469 135.484375 142.605469 139.40625 " fill-opacity="1" fill-rule="nonzero"/></svg>