<svg width="43" height="43" viewBox="0 0 43 43" fill="none" xmlns="http://www.w3.org/2000/svg">
<path d="M12.6252 8.19745C12.6261 8.20282 12.6275 8.20954 12.6284 8.21626C12.6431 8.29285 12.6669 8.36721 12.696 8.43798C12.696 8.44022 12.6973 8.44246 12.6982 8.44604C12.7027 8.45589 12.7085 8.46485 12.713 8.47515C12.7139 8.47829 12.7161 8.48187 12.7175 8.48501C12.7318 8.51681 12.7479 8.54682 12.7645 8.57638C12.7659 8.57728 12.7659 8.57728 12.7659 8.57862C12.7824 8.60684 12.8008 8.63461 12.8187 8.66194C12.8232 8.66865 12.8286 8.67403 12.8344 8.68075C12.8492 8.70225 12.8635 8.7224 12.8805 8.74256C12.9029 8.76988 12.9267 8.79541 12.9513 8.8205C12.9782 8.84737 13.0064 8.87335 13.0355 8.89664C13.0503 8.90919 13.066 8.91949 13.0816 8.93158C13.0964 8.94278 13.1112 8.95398 13.1269 8.96428C13.1381 8.97234 13.1493 8.97906 13.1605 8.98578C13.182 8.99922 13.2021 9.01265 13.2236 9.02385C13.2438 9.03505 13.2653 9.04401 13.2863 9.05431C13.2998 9.06103 13.3137 9.06775 13.3271 9.07357C13.337 9.07805 13.3459 9.08119 13.3562 9.08477C13.3867 9.09597 13.4171 9.10716 13.4485 9.11702C13.5103 9.13538 13.5744 9.14882 13.6406 9.15644C13.6881 9.16315 13.7365 9.16674 13.7871 9.16674C13.8422 9.16674 13.896 9.16226 13.9502 9.1542C14.0097 9.14524 14.068 9.13404 14.1244 9.11702C14.1826 9.0991 14.2377 9.07671 14.2919 9.05207C14.3461 9.02609 14.3976 8.99787 14.4473 8.96428C14.4527 8.9607 14.4585 8.95622 14.4639 8.95174C14.4886 8.93516 14.5136 8.9159 14.5383 8.89664C14.5665 8.87335 14.5943 8.84737 14.6216 8.8205C14.6462 8.79541 14.67 8.76988 14.6924 8.74256C14.7094 8.7224 14.7251 8.7009 14.7394 8.68075C14.7439 8.67403 14.7497 8.66731 14.7542 8.66194C14.7734 8.63461 14.79 8.60684 14.807 8.57728C14.807 8.57728 14.8079 8.57728 14.8079 8.57638C14.8724 8.4662 14.9194 8.34481 14.9441 8.21536C14.9454 8.20954 14.9463 8.20416 14.9477 8.19745C14.953 8.16699 14.9589 8.13563 14.9611 8.10294C14.9656 8.06441 14.9678 8.025 14.9678 7.98603V6.10747C14.9678 5.4553 14.4393 4.92676 13.7871 4.92676C13.1345 4.92676 12.606 5.4553 12.606 6.10747V7.98603C12.606 8.025 12.6073 8.06441 12.6118 8.10294C12.6149 8.13563 12.6194 8.16564 12.6252 8.19745Z" fill="#263A8B"/>
<path d="M35.621 35.6743H7.34225V16.3315H35.621V35.6743ZM35.7379 7.80762H31.3528V7.92811C31.3528 9.20646 30.3607 10.2962 29.0819 10.3446C27.7381 10.3952 26.6291 9.31799 26.6291 7.98544V7.80762H16.1483V7.92811C16.1483 9.20646 15.1553 10.2962 13.8778 10.3446C12.5341 10.3952 11.425 9.31799 11.425 7.98544V7.80762H7.22535C5.98507 7.80762 4.97949 8.81185 4.97949 10.0535V35.7903C4.97949 37.0306 5.98507 38.0362 7.22535 38.0362H35.7379C36.9773 38.0362 37.9824 37.0306 37.9824 35.7903V10.0535C37.9824 8.81185 36.9773 7.80762 35.7379 7.80762Z" fill="#263A8B"/>
<path d="M28.9908 9.16674C29.6429 9.16674 30.1715 8.6382 30.1715 7.98603V6.10747C30.1715 5.78138 30.0402 5.48576 29.8252 5.2721C29.8105 5.25642 29.7925 5.24299 29.7769 5.22821C29.5677 5.04142 29.2931 4.92676 28.9908 4.92676C28.7816 4.92676 28.5859 4.98185 28.4147 5.07726C28.2383 5.17625 28.09 5.32048 27.9843 5.49337C27.8741 5.67254 27.8101 5.88261 27.8101 6.10747V7.98603C27.8101 8.16564 27.8517 8.33675 27.9247 8.48859C28.1137 8.88903 28.5182 9.16674 28.9908 9.16674Z" fill="#263A8B"/>
<rect x="7" y="16" width="29" height="20" fill="#263A8B"/>
<path d="M16.1565 23.0592C16.3858 22.536 16.758 22.274 17.2745 22.274C17.7793 22.274 18.1582 22.5306 18.4113 23.0435C18.6644 23.5572 18.7902 24.5583 18.7902 26.0486C18.7902 27.0649 18.7351 27.8129 18.6263 28.2922C18.5161 28.7723 18.345 29.1231 18.1121 29.3448C17.8805 29.5674 17.6064 29.6789 17.2901 29.6789C16.81 29.6789 16.4431 29.4169 16.1901 28.8937C15.9383 28.371 15.8111 27.3937 15.8111 25.9652C15.8111 24.5503 15.9271 23.5819 16.1565 23.0592ZM13.5756 30.031C13.9487 30.6124 14.4257 31.0545 15.008 31.3555C15.5899 31.6569 16.3522 31.8065 17.2969 31.8065C18.9815 31.8065 20.168 31.3353 20.8574 30.3907C21.5471 29.446 21.8911 27.9558 21.8911 25.9191C21.8911 25.0103 21.7863 24.1377 21.5772 23.2997C21.4706 22.8612 21.329 22.4778 21.1521 22.1481C20.9769 21.8184 20.7351 21.5049 20.4291 21.2066C20.1232 20.9074 19.7273 20.6646 19.2426 20.4792C18.7566 20.2924 18.1372 20.1992 17.3811 20.1992C15.8089 20.1992 14.6394 20.6252 13.8712 21.4776C13.1021 22.3304 12.7183 23.8238 12.7183 25.9572C12.7183 26.8257 12.794 27.6172 12.9445 28.3347C13.095 29.0514 13.3055 29.6171 13.5756 30.031Z" fill="white"/>
<path d="M27.0904 24.1355V31.6153H30.2451V20.1992H27.6651C27.3323 20.9029 26.8732 21.4959 26.2859 21.9761C25.6992 22.4549 24.8746 22.8666 23.813 23.2088V25.7659C24.5328 25.5456 25.1312 25.3162 25.6091 25.0766C26.0857 24.8369 26.5798 24.5221 27.0904 24.1355Z" fill="white"/>
</svg>
