<svg xmlns="http://www.w3.org/2000/svg" xmlns:xlink="http://www.w3.org/1999/xlink" width="500" zoomAndPan="magnify" viewBox="0 0 375 374.999991" height="500" preserveAspectRatio="xMidYMid meet" version="1.0"><defs><clipPath id="b1d752bfc5"><path d="M 22 229 L 100 229 L 100 343.550781 L 22 343.550781 Z M 22 229 " clip-rule="nonzero"/></clipPath><clipPath id="1201b4fb23"><path d="M 129 164 L 208 164 L 208 343.550781 L 129 343.550781 Z M 129 164 " clip-rule="nonzero"/></clipPath><clipPath id="ef72f64c1a"><path d="M 199 32 L 363 32 L 363 343.550781 L 199 343.550781 Z M 199 32 " clip-rule="nonzero"/></clipPath></defs><g clip-path="url(#b1d752bfc5)"><path fill="#263a8b" d="M 86.648438 229.097656 L 35.324219 229.097656 C 28.132812 229.097656 22.316406 234.917969 22.316406 242.113281 L 22.316406 330.457031 C 22.316406 337.65625 28.132812 343.476562 35.324219 343.476562 L 86.648438 343.476562 C 93.839844 343.476562 99.667969 337.65625 99.667969 330.457031 L 99.667969 242.113281 C 99.667969 234.921875 93.839844 229.097656 86.648438 229.097656 Z M 86.648438 229.097656 " fill-opacity="1" fill-rule="nonzero"/></g><g clip-path="url(#1201b4fb23)"><path fill="#263a8b" d="M 194.15625 164.96875 L 142.835938 164.96875 C 135.644531 164.96875 129.824219 170.796875 129.824219 177.988281 L 129.824219 330.460938 C 129.824219 337.660156 135.644531 343.480469 142.835938 343.480469 L 194.15625 343.480469 C 201.347656 343.480469 207.179688 337.660156 207.179688 330.460938 L 207.179688 177.984375 C 207.175781 170.796875 201.34375 164.96875 194.15625 164.96875 Z M 194.15625 164.96875 " fill-opacity="1" fill-rule="nonzero"/></g><g clip-path="url(#ef72f64c1a)"><path fill="#263a8b" d="M 360.296875 108.433594 C 360.039062 108.078125 359.753906 107.753906 359.425781 107.449219 C 335.0625 83.074219 310.699219 58.699219 286.335938 34.328125 C 283.339844 31.328125 278.347656 31.40625 275.371094 34.386719 C 250.90625 58.871094 226.441406 83.359375 201.980469 107.839844 C 197.246094 112.582031 200.722656 121.054688 207.433594 121.054688 L 240.082031 121.054688 L 240.082031 330.460938 C 240.082031 337.660156 245.90625 343.480469 253.097656 343.480469 L 304.417969 343.480469 C 311.609375 343.480469 317.441406 337.660156 317.441406 330.460938 L 317.441406 121.050781 L 354.054688 121.050781 C 354.390625 121.046875 354.722656 121.019531 355.046875 120.96875 C 358.230469 120.679688 360.300781 118.761719 361.230469 116.339844 C 362.433594 113.925781 362.402344 110.988281 360.296875 108.433594 Z M 360.296875 108.433594 " fill-opacity="1" fill-rule="nonzero"/></g></svg>