<svg xmlns="http://www.w3.org/2000/svg" xmlns:xlink="http://www.w3.org/1999/xlink" width="500" zoomAndPan="magnify" viewBox="0 0 375 374.999991" height="500" preserveAspectRatio="xMidYMid meet" version="1.0"><defs><clipPath id="1e001a3797"><path d="M 18.179688 82.832031 L 357 82.832031 L 357 292.082031 L 18.179688 292.082031 Z M 18.179688 82.832031 " clip-rule="nonzero"/></clipPath></defs><g clip-path="url(#1e001a3797)"><path fill="#263a8b" d="M 316.640625 82.832031 L 58.722656 82.832031 C 57.402344 82.832031 56.089844 82.898438 54.773438 83.027344 C 53.460938 83.160156 52.160156 83.351562 50.863281 83.613281 C 49.570312 83.871094 48.292969 84.191406 47.03125 84.574219 C 45.769531 84.957031 44.527344 85.402344 43.308594 85.90625 C 42.089844 86.410156 40.898438 86.972656 39.734375 87.597656 C 38.574219 88.21875 37.441406 88.894531 36.347656 89.625 C 35.25 90.359375 34.191406 91.144531 33.171875 91.980469 C 32.152344 92.816406 31.175781 93.699219 30.242188 94.628906 C 29.308594 95.5625 28.421875 96.535156 27.585938 97.554688 C 26.75 98.574219 25.964844 99.628906 25.230469 100.726562 C 24.496094 101.820312 23.820312 102.949219 23.195312 104.109375 C 22.574219 105.273438 22.011719 106.460938 21.503906 107.679688 C 21 108.894531 20.554688 110.132812 20.171875 111.394531 C 19.785156 112.65625 19.464844 113.933594 19.207031 115.222656 C 18.949219 116.515625 18.753906 117.816406 18.621094 119.128906 C 18.492188 120.4375 18.425781 121.753906 18.425781 123.070312 L 18.425781 251.839844 C 18.425781 253.15625 18.492188 254.472656 18.621094 255.78125 C 18.753906 257.09375 18.949219 258.394531 19.207031 259.6875 C 19.464844 260.980469 19.785156 262.253906 20.171875 263.515625 C 20.554688 264.777344 21 266.015625 21.503906 267.230469 C 22.011719 268.449219 22.574219 269.636719 23.195312 270.800781 C 23.820312 271.960938 24.496094 273.089844 25.230469 274.183594 C 25.964844 275.28125 26.75 276.335938 27.585938 277.355469 C 28.421875 278.375 29.308594 279.347656 30.242188 280.28125 C 31.175781 281.210938 32.152344 282.097656 33.171875 282.933594 C 34.191406 283.769531 35.25 284.550781 36.347656 285.285156 C 37.441406 286.015625 38.574219 286.695312 39.734375 287.316406 C 40.898438 287.9375 42.089844 288.5 43.308594 289.003906 C 44.527344 289.507812 45.769531 289.953125 47.03125 290.335938 C 48.292969 290.71875 49.570312 291.042969 50.863281 291.300781 C 52.160156 291.558594 53.460938 291.75 54.773438 291.882812 C 56.089844 292.011719 57.402344 292.078125 58.722656 292.082031 L 316.640625 292.082031 C 317.960938 292.078125 319.273438 292.011719 320.589844 291.882812 C 321.902344 291.753906 323.203125 291.558594 324.5 291.300781 C 325.792969 291.042969 327.070312 290.722656 328.332031 290.339844 C 329.59375 289.953125 330.835938 289.511719 332.054688 289.007812 C 333.273438 288.5 334.464844 287.9375 335.628906 287.316406 C 336.792969 286.695312 337.921875 286.019531 339.019531 285.285156 C 340.117188 284.554688 341.175781 283.769531 342.195312 282.933594 C 343.214844 282.097656 344.191406 281.214844 345.125 280.28125 C 346.054688 279.351562 346.941406 278.375 347.777344 277.355469 C 348.617188 276.339844 349.402344 275.28125 350.132812 274.1875 C 350.867188 273.089844 351.546875 271.960938 352.167969 270.800781 C 352.789062 269.640625 353.355469 268.449219 353.859375 267.234375 C 354.367188 266.015625 354.808594 264.777344 355.195312 263.515625 C 355.578125 262.257812 355.898438 260.980469 356.15625 259.6875 C 356.414062 258.394531 356.609375 257.09375 356.742188 255.78125 C 356.871094 254.472656 356.9375 253.15625 356.9375 251.839844 L 356.9375 123.070312 C 356.9375 121.753906 356.871094 120.4375 356.742188 119.128906 C 356.609375 117.816406 356.414062 116.515625 356.15625 115.222656 C 355.898438 113.929688 355.578125 112.65625 355.195312 111.394531 C 354.808594 110.132812 354.367188 108.894531 353.859375 107.679688 C 353.355469 106.460938 352.789062 105.273438 352.167969 104.109375 C 351.546875 102.949219 350.867188 101.820312 350.132812 100.722656 C 349.402344 99.628906 348.617188 98.574219 347.777344 97.554688 C 346.941406 96.535156 346.054688 95.5625 345.125 94.628906 C 344.191406 93.699219 343.214844 92.8125 342.195312 91.976562 C 341.175781 91.140625 340.117188 90.359375 339.019531 89.625 C 337.921875 88.894531 336.792969 88.214844 335.628906 87.59375 C 334.464844 86.972656 333.273438 86.410156 332.054688 85.90625 C 330.835938 85.398438 329.59375 84.957031 328.332031 84.574219 C 327.070312 84.1875 325.792969 83.867188 324.5 83.609375 C 323.203125 83.351562 321.902344 83.160156 320.589844 83.027344 C 319.273438 82.898438 317.960938 82.832031 316.640625 82.832031 Z M 179.621094 275.984375 L 58.722656 275.984375 C 57.933594 275.984375 57.140625 275.945312 56.355469 275.867188 C 55.566406 275.789062 54.785156 275.671875 54.007812 275.515625 C 53.230469 275.359375 52.464844 275.167969 51.707031 274.9375 C 50.949219 274.707031 50.207031 274.441406 49.476562 274.140625 C 48.742188 273.835938 48.027344 273.5 47.332031 273.125 C 46.632812 272.753906 45.953125 272.347656 45.296875 271.90625 C 44.636719 271.46875 44.003906 270.996094 43.390625 270.496094 C 42.78125 269.992188 42.195312 269.464844 41.632812 268.90625 C 41.074219 268.347656 40.542969 267.761719 40.039062 267.148438 C 39.539062 266.539062 39.066406 265.90625 38.628906 265.246094 C 38.1875 264.589844 37.78125 263.914062 37.40625 263.214844 C 37.035156 262.519531 36.695312 261.804688 36.390625 261.074219 C 36.089844 260.34375 35.820312 259.601562 35.589844 258.847656 C 35.359375 258.089844 35.167969 257.324219 35.011719 256.546875 C 34.859375 255.773438 34.742188 254.992188 34.664062 254.207031 C 34.585938 253.417969 34.546875 252.628906 34.542969 251.839844 L 34.542969 123.070312 C 34.546875 122.28125 34.585938 121.492188 34.664062 120.707031 C 34.742188 119.917969 34.859375 119.136719 35.011719 118.363281 C 35.167969 117.585938 35.359375 116.820312 35.589844 116.066406 C 35.820312 115.308594 36.089844 114.566406 36.390625 113.835938 C 36.695312 113.105469 37.035156 112.390625 37.40625 111.695312 C 37.78125 110.996094 38.1875 110.320312 38.628906 109.664062 C 39.066406 109.007812 39.539062 108.371094 40.039062 107.761719 C 40.542969 107.148438 41.074219 106.566406 41.632812 106.007812 C 42.195312 105.445312 42.78125 104.917969 43.390625 104.414062 C 44.003906 103.914062 44.636719 103.441406 45.296875 103.003906 C 45.953125 102.5625 46.632812 102.160156 47.332031 101.785156 C 48.027344 101.414062 48.742188 101.074219 49.476562 100.773438 C 50.207031 100.46875 50.949219 100.203125 51.707031 99.972656 C 52.464844 99.742188 53.230469 99.550781 54.007812 99.394531 C 54.785156 99.238281 55.566406 99.125 56.355469 99.046875 C 57.140625 98.96875 57.933594 98.925781 58.722656 98.925781 L 179.621094 98.925781 Z M 340.820312 251.839844 C 340.816406 252.628906 340.777344 253.417969 340.699219 254.207031 C 340.621094 254.992188 340.503906 255.773438 340.351562 256.546875 C 340.195312 257.324219 340.003906 258.089844 339.773438 258.847656 C 339.542969 259.601562 339.273438 260.34375 338.972656 261.074219 C 338.667969 261.804688 338.328125 262.519531 337.957031 263.214844 C 337.582031 263.914062 337.175781 264.589844 336.734375 265.246094 C 336.296875 265.90625 335.824219 266.539062 335.324219 267.148438 C 334.820312 267.761719 334.289062 268.347656 333.730469 268.90625 C 333.167969 269.464844 332.582031 269.996094 331.972656 270.496094 C 331.359375 270.996094 330.726562 271.46875 330.066406 271.90625 C 329.410156 272.347656 328.730469 272.753906 328.03125 273.125 C 327.335938 273.5 326.621094 273.835938 325.886719 274.140625 C 325.15625 274.441406 324.414062 274.707031 323.65625 274.9375 C 322.898438 275.167969 322.132812 275.359375 321.355469 275.515625 C 320.578125 275.671875 319.796875 275.789062 319.007812 275.867188 C 318.222656 275.945312 317.429688 275.984375 316.640625 275.984375 L 195.742188 275.984375 L 195.742188 98.925781 L 316.640625 98.925781 C 317.429688 98.925781 318.222656 98.96875 319.007812 99.046875 C 319.796875 99.125 320.578125 99.238281 321.355469 99.394531 C 322.132812 99.550781 322.898438 99.742188 323.65625 99.972656 C 324.414062 100.203125 325.15625 100.46875 325.886719 100.773438 C 326.621094 101.074219 327.335938 101.414062 328.03125 101.785156 C 328.730469 102.160156 329.410156 102.5625 330.066406 103.003906 C 330.726562 103.441406 331.359375 103.914062 331.972656 104.414062 C 332.582031 104.917969 333.167969 105.445312 333.730469 106.007812 C 334.289062 106.566406 334.820312 107.148438 335.324219 107.761719 C 335.824219 108.371094 336.296875 109.007812 336.734375 109.664062 C 337.175781 110.320312 337.582031 110.996094 337.957031 111.695312 C 338.328125 112.390625 338.667969 113.105469 338.972656 113.835938 C 339.273438 114.566406 339.542969 115.308594 339.773438 116.066406 C 340.003906 116.820312 340.195312 117.585938 340.351562 118.363281 C 340.503906 119.136719 340.621094 119.917969 340.699219 120.707031 C 340.777344 121.492188 340.816406 122.28125 340.820312 123.070312 Z M 72.292969 243.375 C 72.796875 243.542969 73.308594 243.664062 73.832031 243.730469 C 74.359375 243.796875 74.886719 243.8125 75.414062 243.777344 C 75.941406 243.742188 76.460938 243.652344 76.972656 243.515625 C 77.484375 243.375 77.976562 243.1875 78.449219 242.953125 C 78.921875 242.714844 79.371094 242.433594 79.789062 242.109375 C 80.207031 241.785156 80.589844 241.421875 80.933594 241.023438 C 81.28125 240.625 81.585938 240.195312 81.847656 239.734375 C 82.105469 239.273438 82.320312 238.792969 82.484375 238.289062 L 91.398438 211.601562 L 122.769531 211.601562 L 131.679688 238.289062 C 131.847656 238.792969 132.058594 239.273438 132.320312 239.734375 C 132.582031 240.195312 132.886719 240.625 133.234375 241.027344 C 133.578125 241.429688 133.960938 241.792969 134.378906 242.117188 C 134.796875 242.441406 135.242188 242.722656 135.71875 242.960938 C 136.191406 243.199219 136.683594 243.386719 137.195312 243.527344 C 137.707031 243.667969 138.226562 243.757812 138.753906 243.796875 C 139.285156 243.832031 139.8125 243.820312 140.339844 243.753906 C 140.863281 243.6875 141.378906 243.570312 141.882812 243.402344 C 142.382812 243.234375 142.867188 243.019531 143.328125 242.757812 C 143.785156 242.496094 144.21875 242.191406 144.617188 241.84375 C 145.019531 241.496094 145.378906 241.113281 145.703125 240.691406 C 146.027344 240.273438 146.308594 239.828125 146.546875 239.355469 C 146.78125 238.878906 146.96875 238.386719 147.109375 237.875 C 147.246094 237.367188 147.332031 236.84375 147.371094 236.316406 C 147.40625 235.789062 147.390625 235.261719 147.320312 234.738281 C 147.253906 234.210938 147.132812 233.699219 146.964844 233.199219 L 114.726562 136.621094 C 114.394531 135.886719 113.964844 135.214844 113.4375 134.601562 C 112.910156 133.992188 112.308594 133.46875 111.632812 133.03125 C 110.953125 132.59375 110.226562 132.261719 109.453125 132.035156 C 108.679688 131.804688 107.890625 131.691406 107.082031 131.691406 C 106.277344 131.691406 105.484375 131.804688 104.710938 132.035156 C 103.9375 132.261719 103.210938 132.59375 102.535156 133.03125 C 101.855469 133.46875 101.253906 133.992188 100.726562 134.601562 C 100.203125 135.214844 99.773438 135.886719 99.441406 136.621094 L 67.199219 233.199219 C 67.03125 233.699219 66.914062 234.210938 66.847656 234.734375 C 66.78125 235.257812 66.769531 235.785156 66.804688 236.3125 C 66.84375 236.839844 66.929688 237.355469 67.070312 237.867188 C 67.210938 238.375 67.398438 238.867188 67.632812 239.339844 C 67.871094 239.8125 68.152344 240.257812 68.476562 240.675781 C 68.800781 241.09375 69.160156 241.476562 69.5625 241.820312 C 69.960938 242.167969 70.390625 242.472656 70.851562 242.734375 C 71.308594 242.996094 71.792969 243.207031 72.292969 243.375 Z M 107.082031 164.617188 L 117.394531 195.503906 L 96.769531 195.503906 Z M 300.519531 179.40625 L 276.785156 179.40625 C 277.222656 182.550781 277.910156 185.636719 278.847656 188.667969 C 279.789062 191.699219 280.964844 194.632812 282.378906 197.472656 C 283.792969 200.3125 285.429688 203.023438 287.285156 205.597656 C 289.140625 208.171875 291.191406 210.582031 293.4375 212.824219 C 297.65625 218.105469 302.328125 223.953125 307.226562 231.28125 C 307.527344 231.71875 307.78125 232.183594 307.988281 232.671875 C 308.195312 233.164062 308.351562 233.667969 308.460938 234.191406 C 308.566406 234.710938 308.621094 235.238281 308.625 235.769531 C 308.628906 236.300781 308.578125 236.828125 308.476562 237.351562 C 308.375 237.871094 308.222656 238.378906 308.019531 238.871094 C 307.820312 239.363281 307.570312 239.832031 307.273438 240.273438 C 306.980469 240.714844 306.644531 241.125 306.265625 241.503906 C 305.890625 241.878906 305.480469 242.214844 305.035156 242.507812 C 304.59375 242.804688 304.125 243.050781 303.632812 243.253906 C 303.140625 243.457031 302.632812 243.609375 302.109375 243.710938 C 301.585938 243.8125 301.058594 243.863281 300.527344 243.859375 C 299.992188 243.859375 299.464844 243.804688 298.945312 243.695312 C 298.421875 243.589844 297.917969 243.433594 297.425781 243.226562 C 296.9375 243.019531 296.46875 242.765625 296.03125 242.464844 C 295.589844 242.164062 295.183594 241.824219 294.808594 241.445312 C 294.4375 241.066406 294.105469 240.652344 293.8125 240.207031 C 289.21875 233.324219 284.808594 227.835938 280.84375 222.878906 C 276.171875 217.34375 271.984375 211.464844 268.28125 205.242188 C 264.578125 211.464844 260.390625 217.34375 255.71875 222.878906 C 251.75 227.835938 247.34375 233.324219 242.746094 240.207031 C 242.457031 240.652344 242.125 241.066406 241.75 241.445312 C 241.378906 241.828125 240.972656 242.167969 240.53125 242.464844 C 240.089844 242.765625 239.625 243.019531 239.136719 243.226562 C 238.644531 243.433594 238.136719 243.589844 237.617188 243.695312 C 237.09375 243.804688 236.566406 243.859375 236.035156 243.863281 C 235.5 243.863281 234.972656 243.8125 234.449219 243.710938 C 233.929688 243.609375 233.421875 243.457031 232.929688 243.257812 C 232.433594 243.054688 231.96875 242.804688 231.523438 242.511719 C 231.082031 242.214844 230.671875 241.878906 230.292969 241.503906 C 229.917969 241.125 229.582031 240.71875 229.285156 240.273438 C 228.992188 239.832031 228.742188 239.363281 228.539062 238.871094 C 228.335938 238.378906 228.183594 237.871094 228.082031 237.351562 C 227.980469 236.828125 227.933594 236.300781 227.933594 235.769531 C 227.9375 235.238281 227.992188 234.710938 228.101562 234.191406 C 228.207031 233.667969 228.367188 233.164062 228.574219 232.675781 C 228.78125 232.183594 229.035156 231.71875 229.335938 231.28125 C 234.230469 223.957031 238.90625 218.109375 243.125 212.824219 C 245.371094 210.582031 247.421875 208.171875 249.277344 205.597656 C 251.132812 203.023438 252.765625 200.3125 254.183594 197.472656 C 255.597656 194.632812 256.773438 191.699219 257.710938 188.667969 C 258.648438 185.636719 259.335938 182.550781 259.773438 179.40625 L 236.039062 179.40625 C 235.511719 179.40625 234.988281 179.355469 234.46875 179.253906 C 233.949219 179.148438 233.445312 178.996094 232.957031 178.792969 C 232.46875 178.59375 232.003906 178.34375 231.5625 178.050781 C 231.121094 177.757812 230.714844 177.421875 230.339844 177.050781 C 229.96875 176.675781 229.632812 176.269531 229.339844 175.832031 C 229.046875 175.390625 228.796875 174.925781 228.59375 174.4375 C 228.390625 173.949219 228.238281 173.449219 228.136719 172.929688 C 228.03125 172.410156 227.980469 171.886719 227.980469 171.359375 C 227.980469 170.832031 228.03125 170.308594 228.136719 169.789062 C 228.238281 169.269531 228.390625 168.769531 228.59375 168.28125 C 228.796875 167.792969 229.046875 167.328125 229.339844 166.886719 C 229.632812 166.449219 229.96875 166.042969 230.339844 165.667969 C 230.714844 165.292969 231.121094 164.960938 231.5625 164.667969 C 232.003906 164.375 232.46875 164.125 232.957031 163.925781 C 233.445312 163.722656 233.949219 163.570312 234.46875 163.464844 C 234.988281 163.363281 235.511719 163.3125 236.039062 163.3125 L 260.21875 163.3125 L 260.21875 139.167969 C 260.21875 138.636719 260.273438 138.113281 260.375 137.597656 C 260.480469 137.078125 260.632812 136.574219 260.832031 136.085938 C 261.035156 135.597656 261.285156 135.136719 261.578125 134.695312 C 261.871094 134.257812 262.207031 133.851562 262.582031 133.476562 C 262.957031 133.101562 263.363281 132.769531 263.800781 132.476562 C 264.242188 132.183594 264.707031 131.933594 265.195312 131.730469 C 265.683594 131.53125 266.1875 131.375 266.707031 131.273438 C 267.226562 131.171875 267.75 131.117188 268.28125 131.117188 C 268.808594 131.117188 269.332031 131.171875 269.851562 131.273438 C 270.371094 131.375 270.875 131.53125 271.363281 131.730469 C 271.855469 131.933594 272.316406 132.183594 272.757812 132.476562 C 273.199219 132.769531 273.605469 133.101562 273.980469 133.476562 C 274.355469 133.851562 274.6875 134.257812 274.980469 134.695312 C 275.277344 135.136719 275.523438 135.597656 275.726562 136.085938 C 275.929688 136.574219 276.082031 137.078125 276.183594 137.597656 C 276.289062 138.113281 276.339844 138.636719 276.339844 139.167969 L 276.339844 163.3125 L 300.519531 163.3125 C 301.050781 163.3125 301.574219 163.363281 302.09375 163.464844 C 302.609375 163.570312 303.113281 163.722656 303.605469 163.925781 C 304.09375 164.125 304.558594 164.375 304.996094 164.667969 C 305.4375 164.960938 305.84375 165.292969 306.21875 165.667969 C 306.59375 166.042969 306.925781 166.449219 307.222656 166.886719 C 307.515625 167.328125 307.761719 167.792969 307.964844 168.28125 C 308.167969 168.769531 308.320312 169.269531 308.425781 169.789062 C 308.527344 170.308594 308.578125 170.832031 308.578125 171.359375 C 308.578125 171.886719 308.527344 172.410156 308.425781 172.929688 C 308.320312 173.449219 308.167969 173.949219 307.964844 174.4375 C 307.761719 174.925781 307.515625 175.390625 307.222656 175.832031 C 306.925781 176.269531 306.59375 176.675781 306.21875 177.050781 C 305.84375 177.421875 305.4375 177.757812 304.996094 178.050781 C 304.558594 178.34375 304.09375 178.59375 303.605469 178.792969 C 303.113281 178.996094 302.609375 179.148438 302.09375 179.253906 C 301.574219 179.355469 301.050781 179.40625 300.519531 179.40625 Z M 300.519531 179.40625 " fill-opacity="1" fill-rule="nonzero"/></g></svg>