<svg xmlns="http://www.w3.org/2000/svg" xmlns:xlink="http://www.w3.org/1999/xlink" width="500" zoomAndPan="magnify" viewBox="0 0 375 374.999991" height="500" preserveAspectRatio="xMidYMid meet" version="1.0"><defs><clipPath id="cae8ce1b5f"><path d="M 25.386719 9.109375 L 349.386719 9.109375 L 349.386719 366.109375 L 25.386719 366.109375 Z M 25.386719 9.109375 " clip-rule="nonzero"/></clipPath></defs><g clip-path="url(#cae8ce1b5f)"><path fill="#263a8b" d="M 187.386719 9.175781 C 133.699219 9.175781 90.1875 52.746094 90.1875 106.503906 C 90.1875 160.40625 148.613281 237.988281 174.855469 270.140625 C 181.351562 278.089844 193.386719 278.089844 199.886719 270.140625 C 226.144531 237.988281 284.585938 160.40625 284.585938 106.503906 C 284.585938 52.746094 241.074219 9.175781 187.386719 9.175781 Z M 187.386719 71.746094 C 206.566406 71.746094 222.097656 87.296875 222.097656 106.503906 C 222.097656 125.691406 206.550781 141.257812 187.386719 141.257812 C 168.222656 141.257812 152.675781 125.707031 152.675781 106.503906 C 152.675781 87.296875 168.207031 71.746094 187.386719 71.746094 Z M 106.292969 245.429688 C 105.046875 245.433594 103.769531 245.589844 102.496094 245.902344 C 56.242188 257.339844 25.386719 277.796875 25.386719 301.15625 C 25.386719 336.988281 97.914062 366.042969 187.386719 366.042969 C 276.859375 366.042969 349.386719 336.988281 349.386719 301.15625 C 349.386719 277.796875 318.53125 257.355469 272.277344 245.933594 C 262.089844 243.421875 252.1875 251.296875 252.1875 261.808594 C 252.1875 269.171875 257.082031 275.753906 264.210938 277.523438 C 293.453125 284.789062 311.222656 294.863281 316.164062 301.125 C 307.820312 311.75 263.429688 333.566406 187.386719 333.566406 C 111.34375 333.566406 66.953125 311.75 58.609375 301.125 C 63.535156 294.847656 81.324219 284.789062 110.5625 277.523438 C 117.691406 275.769531 122.585938 269.171875 122.585938 261.808594 C 122.585938 252.597656 115.011719 245.398438 106.292969 245.429688 Z M 106.292969 245.429688 " fill-opacity="1" fill-rule="nonzero"/></g></svg>