<svg xmlns="http://www.w3.org/2000/svg" xmlns:xlink="http://www.w3.org/1999/xlink" width="500" zoomAndPan="magnify" viewBox="0 0 375 374.999991" height="500" preserveAspectRatio="xMidYMid meet" version="1.0"><defs><clipPath id="9bead065a7"><path d="M 6 96.230469 L 369 96.230469 L 369 277 L 6 277 Z M 6 96.230469 " clip-rule="nonzero"/></clipPath></defs><g clip-path="url(#9bead065a7)"><path fill="#263a8b" d="M 367.90625 220.886719 L 307.535156 100.390625 C 305.996094 97.347656 302.597656 95.660156 299.308594 96.367188 L 72.972656 141.554688 C 72.792969 141.585938 72.625 141.628906 72.460938 141.675781 C 70.890625 142.082031 69.578125 142.96875 68.597656 144.128906 C 68.339844 144.429688 68.113281 144.746094 67.917969 145.078125 C 67.796875 145.273438 67.707031 145.46875 67.601562 145.652344 L 7.257812 266.070312 C 7.109375 266.359375 7.125 266.671875 7.015625 266.976562 C 6.851562 267.457031 6.683594 267.925781 6.625 268.449219 C 6.550781 268.976562 6.578125 269.492188 6.625 270.015625 C 6.65625 270.320312 6.566406 270.621094 6.625 270.921875 C 6.65625 271.085938 6.761719 271.222656 6.804688 271.386719 C 6.910156 271.78125 7.078125 272.125 7.242188 272.503906 C 7.46875 273 7.710938 273.464844 8.027344 273.886719 C 8.238281 274.191406 8.480469 274.445312 8.753906 274.703125 C 9.175781 275.125 9.628906 275.46875 10.140625 275.785156 C 10.339844 275.90625 10.457031 276.085938 10.65625 276.191406 C 10.761719 276.253906 10.894531 276.222656 11.003906 276.269531 C 11.9375 276.691406 12.933594 276.976562 14.019531 276.976562 C 14.503906 276.976562 15 276.929688 15.515625 276.824219 L 119.625 256.054688 L 128.019531 272.820312 C 129.542969 275.847656 132.878906 277.519531 136.242188 276.839844 L 362.636719 231.65625 C 364.949219 231.203125 366.910156 229.679688 367.949219 227.574219 C 368.992188 225.464844 368.960938 222.992188 367.90625 220.886719 Z M 27.664062 259.039062 L 74.390625 165.789062 L 112.621094 242.09375 Z M 226.800781 201.515625 L 151.335938 216.578125 C 150.839844 216.683594 150.339844 216.726562 149.855469 216.726562 C 146.339844 216.726562 143.1875 214.257812 142.460938 210.671875 C 141.648438 206.589844 144.304688 202.628906 148.378906 201.816406 L 223.84375 186.753906 C 227.765625 185.894531 231.886719 188.5625 232.71875 192.660156 C 233.546875 196.742188 230.890625 200.703125 226.800781 201.515625 Z M 287.171875 156.328125 L 136.242188 186.453125 C 135.746094 186.558594 135.246094 186.605469 134.765625 186.605469 C 131.246094 186.605469 128.09375 184.132812 127.367188 180.550781 C 126.554688 176.46875 129.210938 172.507812 133.285156 171.691406 L 284.214844 141.570312 C 288.125 140.726562 292.257812 143.390625 293.089844 147.472656 C 293.917969 151.554688 291.261719 155.515625 287.171875 156.328125 Z M 287.171875 156.328125 " fill-opacity="1" fill-rule="nonzero"/></g></svg>