<svg xmlns="http://www.w3.org/2000/svg" xmlns:xlink="http://www.w3.org/1999/xlink" width="500" zoomAndPan="magnify" viewBox="0 0 375 374.999991" height="500" preserveAspectRatio="xMidYMid meet" version="1.0"><defs><clipPath id="46f944f5c8"><path d="M 72.164062 15.355469 L 303 15.355469 L 303 359.605469 L 72.164062 359.605469 Z M 72.164062 15.355469 " clip-rule="nonzero"/></clipPath></defs><g clip-path="url(#46f944f5c8)"><path fill="#263a8b" d="M 212.382812 324.421875 C 212.382812 335.773438 212.382812 347.382812 212.382812 359.648438 C 194.785156 359.648438 178.371094 359.648438 160.792969 359.648438 C 160.792969 347.875 160.792969 336.269531 160.792969 324.09375 C 111.898438 309.917969 78.5625 282.320312 72.617188 227.921875 C 91.683594 227.921875 109.328125 227.921875 127.964844 227.921875 C 132.308594 245.019531 138.59375 261.53125 159.351562 268.144531 C 159.351562 247.871094 159.351562 228.558594 159.351562 208.382812 C 116.738281 199.976562 78.042969 185.738281 76.765625 132.730469 C 75.804688 92.863281 101.40625 68.148438 159.921875 49.957031 C 159.921875 38.960938 159.921875 27.699219 159.921875 15.355469 C 177.386719 15.355469 194.0625 15.355469 211.878906 15.355469 C 211.878906 26.753906 211.878906 37.949219 211.878906 49.863281 C 260.066406 60.375 293.582031 84.242188 297.179688 138.261719 C 278.023438 138.261719 260.707031 138.261719 242.929688 138.261719 C 238.410156 122.691406 232.152344 108.753906 213.070312 105.355469 C 213.070312 124.195312 213.070312 141.921875 213.070312 159.535156 C 280.476562 174.910156 302.683594 194.152344 302.414062 236.660156 C 302.144531 279.8125 268.6875 312.761719 212.382812 324.421875 Z M 213.050781 216.289062 C 213.050781 234.589844 213.050781 251.855469 213.050781 269.183594 C 236.035156 266.246094 250.277344 254.722656 249.238281 240.277344 C 248.238281 226.40625 235.074219 217.464844 213.050781 216.289062 Z M 160.609375 105.46875 C 141.046875 109.292969 131.832031 118.929688 133.253906 132.671875 C 134.5 144.648438 143.679688 151.113281 160.609375 151.304688 C 160.609375 136.382812 160.609375 121.460938 160.609375 105.46875 Z M 160.609375 105.46875 " fill-opacity="1" fill-rule="evenodd"/></g></svg>