<svg width="31" height="36" viewBox="0 0 31 36" fill="none" xmlns="http://www.w3.org/2000/svg">
<path d="M6.05183 25.3793C5.11102 25.5187 3.56231 25.7782 2.53203 24.5963C1.50176 23.4145 0.610815 20.5606 0.219238 18.0101C-0.358595 14.251 0.214838 11.0828 1.83248 9.08976C2.78575 7.91605 4.03675 7.23615 5.45053 7.1279C6.66119 7.03373 8.47022 7.51271 10.2169 10.3302C11.311 12.0956 12.1433 14.4408 12.5004 16.7637C12.9316 19.5678 13.3517 22.5603 11.8815 23.6332C11.0521 24.2389 10.4567 24.4488 9.04952 24.7876C7.89238 25.0657 6.99337 25.2392 6.05183 25.3793ZM4.37846 27.7912L12.3633 26.1259C13.0379 25.985 13.579 26.3602 13.8298 27.4842C14.6526 31.1737 13.4735 35.5882 9.78061 35.5882C6.28355 35.5882 3.95315 31.5577 3.57257 29.3912C3.39878 28.4088 3.64664 27.9432 4.37846 27.7912ZM21.4546 17.6705C20.0474 17.3331 19.452 17.1218 18.6226 16.5161C17.1524 15.4432 17.5725 12.4507 18.0037 9.64658C18.3608 7.32364 19.1931 4.97548 20.2872 3.21307C22.0324 0.395583 23.8414 -0.0833899 25.0536 0.0107735C26.4659 0.119766 27.7176 0.798187 28.6709 1.97189C30.29 3.9649 30.8634 7.13309 30.2841 10.8922C29.8918 13.4428 29.0038 16.287 27.9677 17.4785C26.9315 18.67 25.3916 18.4008 24.4479 18.2614C23.5041 18.122 22.611 17.9478 21.4546 17.6705ZM26.1249 20.6733L18.1401 19.0081C17.4655 18.8672 16.9243 19.2424 16.6735 20.3664C15.8515 24.0558 17.0306 28.4704 20.7235 28.4704C24.2206 28.4704 26.551 24.4399 26.9315 22.2734C27.1046 21.291 26.8567 20.8253 26.1249 20.6733Z" fill="#263A8B"/>
</svg>
