<svg width="94" height="30" viewBox="0 0 94 30" fill="none" xmlns="http://www.w3.org/2000/svg">
<path d="M17.6742 29.517L16.4696 25.1295H8.51243L7.27015 29.517H0L7.99011 6H16.8178L24.9114 29.517H17.6742ZM15.0956 19.9365L14.0368 16.0935C13.7921 15.2385 13.4933 14.1337 13.1427 12.777C12.791 11.4214 12.5592 10.4494 12.4463 9.861C12.3451 10.4044 12.1463 11.301 11.8487 12.552C11.5534 13.8007 10.8982 16.2622 9.88176 19.9365H15.0956Z" fill="#263A8B"/>
<path d="M27 22.9995V18H36.4677V22.9995H27Z" fill="#263A8B"/>
<path d="M60.4457 29.8665L58.9117 24.291H48.8088L47.2324 29.8665H38L48.15 0H59.3587L69.6357 29.8665H60.4457ZM57.1659 17.6985L55.8295 12.816C55.5154 11.7338 55.1343 10.3309 54.6861 8.6085C54.2402 6.88388 53.9473 5.64975 53.8061 4.905C53.6767 5.59575 53.425 6.73425 53.0485 8.3205C52.6744 9.90788 51.8415 13.0343 50.5498 17.6985H57.1659Z" fill="#263A8B"/>
<path d="M79.9375 17.9055H72.0273V12.4515H79.9375V4.98596H85.6595V12.4515H93.5743V17.9055H85.6595V25.2495H79.9375V17.9055Z" fill="#263A8B"/>
</svg>
