<svg width="40" height="30" viewBox="0 0 40 30" fill="none" xmlns="http://www.w3.org/2000/svg">
<path d="M39.9409 13.4632L39.4697 12.2431C39.2133 11.574 38.3995 11.0231 37.6718 11.0231H36.0017C34.7603 7.83389 33.2615 3.97647 32.7902 3.07099C32.1052 1.65368 29.9222 1.02366 28.7233 0.709091C28.7233 0.709091 26.7107 0 19.9886 0C13.2666 0 11.2975 0.709091 11.2975 0.709091C9.88478 1.14185 7.91472 1.77186 7.14449 3.11009C6.75842 3.77921 5.21701 7.71571 3.97555 11.0231H2.34898C1.62133 11.0231 0.807567 11.574 0.550192 12.2431L0.0799145 13.4632C-0.177461 14.1323 0.207656 14.6841 0.936255 14.6841H2.60541C2.39156 15.235 2.26287 15.5496 2.26287 15.5496C2.13513 15.7469 2.04902 16.6523 2.04902 16.9278V28.0682C2.04902 28.7773 2.69152 29.3673 3.46175 29.3673H8.59979C9.37097 29.3673 10.0125 28.7773 10.0125 28.0682V25.7063H30.0074V28.0682C30.0074 28.7773 30.6499 29.3673 31.421 29.3673H36.6017C37.3719 29.3673 38.0144 28.7773 38.0144 28.0682V16.9278C38.0144 16.6914 37.9283 15.7469 37.8005 15.5496C37.8005 15.5496 37.6718 15.235 37.458 14.6841H39.0846C39.7696 14.6841 40.1548 14.1323 39.9409 13.4632ZM10.0125 20.3134L8.29984 19.2506C5.13185 19.0142 4.74673 20.0379 4.06166 18.9352V17.5969C4.06166 16.2978 4.87448 16.2587 5.77434 16.2587C6.63068 16.2587 8.34336 16.9278 9.49871 17.4005C10.7411 17.9115 11.64 17.4787 12.1103 19.1715C12.0677 19.9588 11.5965 20.3134 10.0125 20.3134ZM7.0158 11.5349C8.08599 7.51932 9.88478 4.7238 10.1412 4.05468C10.3125 3.58282 9.88478 2.71644 20.0312 2.71644C30.1786 2.71644 29.6222 3.97647 29.6648 4.01558C30.136 4.92106 32.02 7.87387 33.005 11.5349C33.005 11.5349 29.1945 12.0068 20.5025 12.0068C11.8113 12.0068 7.0158 11.5349 7.0158 11.5349ZM27.9521 19.1715C29.9648 16.8887 29.3223 17.9115 30.5647 17.4005C31.6775 16.9278 33.4327 16.2587 34.2891 16.2587C35.188 16.2587 36.0017 16.2978 36.0017 17.5969V18.9352C35.3593 19.9979 34.8029 19.0533 31.5914 19.3288L30.0074 20.2743C28.4234 20.3134 27.3958 19.7624 27.9521 19.1715Z" fill="#263A8B"/>
</svg>
