<svg xmlns="http://www.w3.org/2000/svg" xmlns:xlink="http://www.w3.org/1999/xlink" width="1920" zoomAndPan="magnify" viewBox="0 0 1440 809.999993" height="1080" preserveAspectRatio="xMidYMid meet" version="1.0"><defs><clipPath id="69a22b43bd"><path d="M 319 7 L 1121 7 L 1121 808.847656 L 319 808.847656 Z M 319 7 " clip-rule="nonzero"/></clipPath></defs><g clip-path="url(#69a22b43bd)"><path fill="#ffffff" d="M 807.640625 408.304688 L 1102.617188 113.292969 C 1126.785156 89.117188 1126.785156 49.929688 1102.617188 25.761719 C 1078.449219 1.589844 1039.265625 1.589844 1015.097656 25.761719 L 720.121094 320.773438 L 425.144531 25.761719 C 400.976562 1.589844 361.792969 1.589844 337.625 25.761719 C 313.457031 49.933594 313.457031 89.121094 337.625 113.292969 L 632.601562 408.304688 L 337.625 703.320312 C 313.457031 727.492188 313.457031 766.679688 337.625 790.851562 C 349.707031 802.933594 365.542969 808.980469 381.382812 808.980469 C 397.222656 808.980469 413.0625 802.933594 425.144531 790.851562 L 720.121094 495.835938 L 1015.097656 790.851562 C 1027.179688 802.933594 1043.019531 808.980469 1058.859375 808.980469 C 1074.699219 808.980469 1090.535156 802.933594 1102.617188 790.851562 C 1126.785156 766.679688 1126.785156 727.488281 1102.617188 703.320312 Z M 807.640625 408.304688 " fill-opacity="1" fill-rule="nonzero"/></g></svg>