<svg width="44" height="42" viewBox="0 0 44 42" fill="none" xmlns="http://www.w3.org/2000/svg">
<path d="M21.8189 0C9.76835 0 0 9.34155 0 20.8656C0 32.3901 9.76835 41.7312 21.8189 41.7312C33.87 41.7312 43.6378 32.3901 43.6378 20.8656C43.6378 9.34155 33.87 0 21.8189 0ZM21.8189 40.1265C10.7132 40.1265 1.67849 31.4865 1.67849 20.8656C1.67849 10.2452 10.7132 1.60515 21.8189 1.60515C32.9251 1.60515 41.9598 10.2452 41.9598 20.8656C41.9598 31.4865 32.9251 40.1265 21.8189 40.1265Z" fill="#263A8B"/>
<path d="M21.8184 3.21033V38.5214C31.998 38.5214 40.2808 30.6005 40.2808 20.8656C40.2808 11.1312 31.998 3.21033 21.8184 3.21033Z" fill="#263A8B"/>
</svg>
