<svg width="28" height="37" viewBox="0 0 28 37" fill="none" xmlns="http://www.w3.org/2000/svg">
<path d="M1.34776 7.4304C1.38795 7.51928 1.44016 7.60483 1.50715 7.6879C1.60001 7.80335 1.71089 7.91549 1.85365 8.01683C1.88414 8.03801 1.92202 8.0542 1.95436 8.07455C2.14701 8.1979 2.36877 8.30173 2.61594 8.38563L19.689 2.3756V3.78518L3.97698 8.64063C4.62053 8.68299 5.34079 8.6427 6.10677 8.51811C6.31791 8.48447 6.53042 8.44751 6.74802 8.40016C7.55328 8.22531 9.10466 7.913 11.0312 7.53215L20.8172 4.50741L23.4515 3.69423V5.11917C23.6427 5.08263 23.8308 5.04691 24.0165 5.01078C24.2077 4.97381 24.3953 4.9381 24.5801 4.90238V2.27343L20.8172 3.43632V0.889605L16.0517 2.56748V0L1.26044 7.08901C1.26368 7.14965 1.27107 7.20987 1.28539 7.26843C1.29971 7.32325 1.32374 7.37683 1.34776 7.4304Z" fill="#263A8B"/>
<path d="M27.9074 5.30025C27.0412 5.46596 25.8954 5.68608 24.5801 5.939C24.3953 5.97431 24.2073 6.01044 24.0165 6.04782C23.8308 6.08312 23.6423 6.11925 23.4515 6.15538C22.6139 6.31694 21.7282 6.48764 20.8172 6.66331C20.6305 6.69945 20.4429 6.73599 20.2535 6.77254C20.0664 6.80867 19.8779 6.84481 19.689 6.88135C18.4827 7.11476 17.2533 7.35274 16.0517 7.58656C15.9889 7.5986 15.9256 7.61065 15.8637 7.62311C15.8013 7.63515 15.738 7.64761 15.6756 7.65965C11.8438 8.40514 8.36778 9.09166 7.01275 9.38529C6.90464 9.40855 6.79977 9.42599 6.69258 9.44717C6.63022 9.4588 6.56692 9.47167 6.50455 9.48289C6.31929 9.5157 6.1368 9.54394 5.95524 9.56761C5.81248 9.58713 5.66973 9.60416 5.5302 9.61787C5.1717 9.65358 4.82058 9.67476 4.48517 9.67476C4.36459 9.67476 4.24817 9.66936 4.13082 9.66479C3.68638 9.64777 3.26781 9.59793 2.87881 9.51611C2.56235 9.44966 2.26621 9.36245 1.99271 9.25405C1.86612 9.2038 1.74462 9.14981 1.62865 9.09083C1.52009 9.03642 1.41798 8.97745 1.31866 8.9164C1.29648 8.90186 1.2743 8.88857 1.25213 8.87445C1.22025 8.85327 1.18652 8.835 1.15557 8.8134C1.14679 8.80676 1.13986 8.80052 1.13201 8.7943C1.10891 8.77768 1.08673 8.75941 1.06456 8.74238C1.02344 8.71123 0.983247 8.68091 0.944901 8.64935C0.921802 8.629 0.899164 8.60782 0.876526 8.58788C0.730074 8.45623 0.604873 8.31544 0.5 8.16759V35.6967C0.5 35.6967 1.95667 37 4.72402 37C5.29135 37 5.90211 36.9489 6.53735 36.8488L6.69628 36.8239L27.9074 32.6292V5.30025Z" fill="#263A8B"/>
</svg>
