<svg width="44" height="43" viewBox="0 0 44 43" fill="none" xmlns="http://www.w3.org/2000/svg">
<path d="M33.7703 29.0999C30.2994 28.1961 27.2389 26.3055 24.8985 23.735L26.0707 16.9307C24.5382 17.1547 22.8731 17.2462 21.0717 17.2002C20.7113 16.1184 20.4874 15.0361 20.351 13.9084L19.0918 3.90376C22.5128 4.4887 26.5181 4.53417 30.6183 3.99527C34.7145 3.45243 38.5874 2.46106 41.7388 1.01836L42.9985 11.023C43.9428 18.328 40.2069 25.5836 33.7703 29.0999ZM21.0717 25.6296C20.8893 26.7534 19.3152 27.3872 17.5593 27.1138C15.8034 26.8444 14.5858 25.6751 14.7676 24.5473C14.9462 23.4195 16.5236 22.7891 18.2801 23.0591C19.9906 23.374 21.2497 24.5018 21.0717 25.6296ZM11.0318 35.1823C8.19466 34.6883 6.16533 32.4333 6.34777 30.0453C7.56144 30.9485 9.40832 31.712 11.5701 32.0723C13.687 32.4333 15.7124 32.3457 17.1534 31.8938C16.5236 34.237 13.865 35.6797 11.0318 35.1823ZM4.81526 22.8351C4.99714 21.7074 6.5712 21.0769 8.32714 21.3464C10.0836 21.6619 11.3012 22.7891 11.1188 23.9169C10.9408 25.0407 9.36285 25.6751 7.60691 25.4017C5.85041 25.1322 4.63674 23.959 4.81526 22.8351ZM43.5824 10.9359L42.2323 0.1185L41.8719 0.297013C38.6744 1.78518 34.76 2.82202 30.5273 3.36093C26.2947 3.90376 22.2399 3.85829 18.8184 3.22788L18.458 3.13694L19.8087 13.9544C19.9451 15.0816 20.1691 16.1184 20.4874 17.1547C18.5035 17.1092 16.4326 16.8853 14.2708 16.5249C9.9506 15.7575 6.03285 14.4933 3.01721 12.9176L1.25734 23.241C-0.0472608 30.9485 3.60159 38.3371 9.90513 42.0809C17.108 40.6382 23.0062 34.9128 24.3147 27.2508L24.8076 24.4563C27.2389 27.0268 30.3454 28.8299 33.7703 29.6843L33.8573 29.7298L33.9483 29.6843C37.2367 27.9267 39.8465 25.2686 41.6024 21.9313C43.3584 18.5519 44.0337 14.7212 43.5824 10.9359Z" fill="#263A8B"/>
<path d="M26.7458 13.8174C25.1678 13.9999 23.7717 13.3695 23.6392 12.4202C23.5028 11.4749 24.7619 10.4841 26.2944 10.3016C27.8685 10.1231 29.264 10.7535 29.4004 11.6988C29.5369 12.6481 28.3198 13.5934 26.7458 13.8174ZM29.9848 11.6113C29.8063 10.3016 28.1868 9.49269 26.2484 9.71667C24.3145 9.98669 22.9184 11.1599 23.0969 12.4657C23.2788 13.7759 24.8983 14.5842 26.8328 14.3603C28.7712 14.1363 30.1212 12.9176 29.9848 11.6113Z" fill="#263A8B"/>
<path d="M32.7308 21.0315C30.8424 21.2555 29.0859 21.7983 27.7813 22.6072C28.0053 20.5341 29.9397 18.7759 32.4165 18.461C34.8932 18.1461 37.1914 19.3648 37.9122 21.3009C36.4672 20.8945 34.6692 20.8036 32.7308 21.0315ZM32.3744 17.9221C29.4008 18.2825 27.1481 20.5796 27.1935 23.1501V23.6435L27.5994 23.374C28.8625 22.5196 30.7515 21.8859 32.7769 21.6159C34.8056 21.3464 36.7855 21.5249 38.2271 22.0223L38.72 22.2047L38.633 21.7074C38.0907 19.1823 35.2991 17.5611 32.3744 17.9221Z" fill="#263A8B"/>
<path d="M36.7853 12.5111C35.2079 12.6936 33.8118 12.0598 33.6753 11.1139C33.5423 10.1686 34.8054 9.17776 36.334 8.99532C37.9119 8.81681 39.3075 9.44722 39.4405 10.3926C39.5769 11.3379 38.3139 12.3332 36.7853 12.5111ZM36.243 8.45641C34.3086 8.72587 32.913 9.89911 33.091 11.2054C33.2734 12.5111 34.8929 13.324 36.8308 13.0961C38.7652 12.8266 40.1613 11.6573 39.9828 10.3471C39.8464 9.04135 38.1814 8.2285 36.243 8.45641Z" fill="#263A8B"/>
</svg>
