<svg width="41" height="35" viewBox="0 0 41 35" fill="none" xmlns="http://www.w3.org/2000/svg">
<path d="M21.3893 3.43164C12.8701 3.43164 5.96436 10.3914 5.96436 18.9773C5.96436 27.5633 12.8701 34.5231 21.3893 34.5231C29.908 34.5231 36.8138 27.5633 36.8138 18.9773C36.8138 10.3914 29.9066 3.43164 21.3893 3.43164ZM21.3893 31.2995C14.6365 31.2995 9.16129 25.7812 9.16129 18.976C9.16129 12.1703 14.6365 6.65193 21.3893 6.65193C28.142 6.65193 33.6173 12.1703 33.6173 18.976C33.6173 25.7812 28.142 31.2995 21.3893 31.2995Z" fill="#263A8B"/>
<path d="M32.1881 18.9759C32.1881 19.1536 32.1839 19.3318 32.1752 19.51C32.1665 19.6877 32.1531 19.8654 32.1361 20.0426C32.1187 20.2198 32.0971 20.3966 32.0714 20.5729C32.0452 20.7488 32.0148 20.9241 31.9804 21.0991C31.9459 21.2735 31.9073 21.4475 31.8646 21.6201C31.8214 21.7932 31.7745 21.9649 31.723 22.1352C31.6716 22.3055 31.6164 22.4748 31.5567 22.6423C31.4974 22.8099 31.4335 22.976 31.366 23.1407C31.2984 23.3055 31.2267 23.4679 31.1514 23.6289C31.0756 23.79 30.9961 23.9491 30.9129 24.1065C30.8297 24.2634 30.7424 24.4184 30.6519 24.5711C30.5609 24.7238 30.4662 24.8742 30.3679 25.0223C30.27 25.1704 30.168 25.3161 30.0628 25.4591C29.9575 25.6021 29.8491 25.7428 29.737 25.8802C29.6248 26.0181 29.5095 26.1528 29.3905 26.2847C29.2719 26.4165 29.1501 26.5457 29.0251 26.6715C28.9002 26.7979 28.7719 26.9205 28.6414 27.0399C28.5105 27.1597 28.3763 27.2759 28.2398 27.3888C28.1033 27.5022 27.9641 27.6114 27.8221 27.7178C27.6801 27.8238 27.5358 27.926 27.3888 28.0251C27.2417 28.1241 27.0924 28.2194 26.9407 28.3111C26.7891 28.4027 26.6356 28.4901 26.4798 28.5744C26.3236 28.6581 26.166 28.7382 26.0061 28.8145C25.8466 28.8909 25.6848 28.9626 25.5217 29.0311C25.3586 29.0991 25.1936 29.1634 25.0273 29.2231C24.8609 29.2833 24.6927 29.3393 24.5236 29.3907C24.3545 29.4425 24.1845 29.4901 24.0131 29.5332C23.8417 29.5767 23.6694 29.6156 23.4957 29.6503C23.3224 29.685 23.1483 29.7155 22.9736 29.7419C22.7986 29.7678 22.6235 29.7895 22.4475 29.8071C22.2715 29.8247 22.0955 29.8377 21.919 29.8465C21.7426 29.8553 21.5656 29.8594 21.3892 29.8594C21.2123 29.8594 21.0358 29.8553 20.8594 29.8465C20.6824 29.8377 20.5064 29.8247 20.3304 29.8071C20.1544 29.7895 19.9794 29.7678 19.8043 29.7419C19.6297 29.7155 19.4555 29.685 19.2823 29.6503C19.109 29.6156 18.9367 29.5767 18.7653 29.5332C18.5934 29.4901 18.4234 29.4425 18.2543 29.3907C18.0852 29.3393 17.9175 29.2833 17.7511 29.2231C17.5848 29.1634 17.4198 29.0991 17.2567 29.0311C17.0931 28.9626 16.9318 28.8909 16.7719 28.8145C16.6119 28.7382 16.4543 28.6581 16.2985 28.5744C16.1428 28.4901 15.9888 28.4027 15.8372 28.3111C15.6855 28.2194 15.5362 28.1241 15.3896 28.0251C15.2426 27.926 15.0978 27.8238 14.9563 27.7178C14.8143 27.6114 14.675 27.5022 14.5381 27.3888C14.4016 27.2759 14.2679 27.1597 14.1369 27.0399C14.006 26.9205 13.8778 26.7979 13.7528 26.6715C13.6282 26.5457 13.506 26.4165 13.3874 26.2847C13.2689 26.1528 13.1535 26.0181 13.0414 25.8802C12.9293 25.7428 12.8204 25.6021 12.7152 25.4591C12.6099 25.3161 12.5084 25.1704 12.41 25.0223C12.3117 24.8742 12.2175 24.7238 12.1265 24.5711C12.0355 24.4184 11.9487 24.2634 11.865 24.1065C11.7819 23.9491 11.7024 23.79 11.627 23.6289C11.5512 23.4679 11.4795 23.3055 11.4119 23.1407C11.3444 22.976 11.281 22.8099 11.2212 22.6423C11.162 22.4748 11.1064 22.3055 11.0549 22.1352C11.0039 21.9649 10.9565 21.7932 10.9138 21.6201C10.8706 21.4475 10.832 21.2735 10.7975 21.0991C10.7631 20.9241 10.7328 20.7488 10.707 20.5729C10.6808 20.3966 10.6592 20.2198 10.6422 20.0426C10.6248 19.8654 10.6119 19.6877 10.6032 19.51C10.5944 19.3318 10.5898 19.1536 10.5898 18.9759C10.5898 18.7978 10.5944 18.6196 10.6032 18.4415C10.6119 18.2638 10.6248 18.0861 10.6422 17.9088C10.6592 17.7316 10.6808 17.5548 10.707 17.3785C10.7328 17.2027 10.7631 17.0273 10.7975 16.8524C10.832 16.6779 10.8706 16.5039 10.9138 16.3313C10.9565 16.1582 11.0039 15.9866 11.0549 15.8163C11.1064 15.646 11.162 15.4766 11.2212 15.3091C11.281 15.1416 11.3444 14.9755 11.4119 14.8107C11.4795 14.646 11.5512 14.4835 11.627 14.3225C11.7024 14.1615 11.7819 14.0023 11.865 13.8449C11.9487 13.6881 12.0355 13.5331 12.1265 13.3803C12.2175 13.2276 12.3117 13.0772 12.41 12.9292C12.5084 12.7811 12.6099 12.6353 12.7152 12.4923C12.8204 12.3493 12.9293 12.2087 13.0414 12.0712C13.1535 11.9333 13.2689 11.7987 13.3874 11.6668C13.506 11.5349 13.6282 11.4058 13.7528 11.2799C13.8778 11.1536 14.006 11.031 14.1369 10.9116C14.2679 10.7917 14.4016 10.6756 14.5381 10.5626C14.675 10.4493 14.8143 10.3401 14.9563 10.2336C15.0978 10.1277 15.2426 10.0254 15.3896 9.92636C15.5362 9.82733 15.6855 9.73201 15.8372 9.64038C15.9888 9.54876 16.1428 9.46129 16.2985 9.37707C16.4543 9.29332 16.6119 9.21326 16.7719 9.13691C16.9318 9.06055 17.0931 8.98882 17.2567 8.92034C17.4198 8.85231 17.5848 8.78799 17.7511 8.7283C17.9175 8.66814 18.0852 8.61214 18.2543 8.56078C18.4234 8.50895 18.5934 8.46129 18.7653 8.41825C18.9367 8.37475 19.109 8.33588 19.2823 8.30117C19.4555 8.26647 19.6297 8.23593 19.8043 8.20955C19.9794 8.18364 20.1544 8.16189 20.3304 8.1443C20.5064 8.12672 20.6824 8.11376 20.8594 8.10497C21.0358 8.09618 21.2123 8.09201 21.3892 8.09201C21.5656 8.09201 21.7426 8.09618 21.919 8.10497C22.0955 8.11376 22.2715 8.12672 22.4475 8.1443C22.6235 8.16189 22.7986 8.18364 22.9736 8.20955C23.1483 8.23593 23.3224 8.26647 23.4957 8.30117C23.6694 8.33588 23.8417 8.37475 24.0131 8.41825C24.1845 8.46129 24.3545 8.50895 24.5236 8.56078C24.6927 8.61214 24.8609 8.66814 25.0273 8.7283C25.1936 8.78799 25.3586 8.85231 25.5217 8.92034C25.6848 8.98882 25.8466 9.06055 26.0061 9.13691C26.166 9.21326 26.3236 9.29332 26.4798 9.37707C26.6356 9.46129 26.7891 9.54876 26.9407 9.64038C27.0924 9.73201 27.2417 9.82733 27.3888 9.92636C27.5358 10.0254 27.6801 10.1277 27.8221 10.2336C27.9641 10.3401 28.1033 10.4493 28.2398 10.5626C28.3763 10.6756 28.5105 10.7917 28.6414 10.9116C28.7719 11.031 28.9002 11.1536 29.0251 11.2799C29.1501 11.4058 29.2719 11.5349 29.3905 11.6668C29.5095 11.7987 29.6248 11.9333 29.737 12.0712C29.8491 12.2087 29.9575 12.3493 30.0628 12.4923C30.168 12.6353 30.27 12.7811 30.3679 12.9292C30.4662 13.0772 30.5609 13.2276 30.6519 13.3803C30.7424 13.5331 30.8297 13.6881 30.9129 13.8449C30.9961 14.0023 31.0756 14.1615 31.1514 14.3225C31.2267 14.4835 31.2984 14.646 31.366 14.8107C31.4335 14.9755 31.4974 15.1416 31.5567 15.3091C31.6164 15.4766 31.6716 15.646 31.723 15.8163C31.7745 15.9866 31.8214 16.1582 31.8646 16.3313C31.9073 16.5039 31.9459 16.6779 31.9804 16.8524C32.0148 17.0273 32.0452 17.2027 32.0714 17.3785C32.0971 17.5548 32.1187 17.7316 32.1361 17.9088C32.1531 18.0861 32.1665 18.2638 32.1752 18.4415C32.1839 18.6196 32.1881 18.7978 32.1881 18.9759Z" fill="#263A8B"/>
<mask id="mask0_507_39" style="mask-type:alpha" maskUnits="userSpaceOnUse" x="37" y="0" width="4" height="35">
<path d="M37.373 0.882797H40.7529V34.5268H37.373V0.882797Z" fill="white"/>
</mask>
<g mask="url(#mask0_507_39)">
<path d="M38.9176 2.38797C36.9871 5.88222 37.0326 9.31769 38.4567 13.755C38.4567 13.755 39.094 15.8499 38.6225 17.606C38.5022 18.0531 38.4567 18.5177 38.4567 18.9804L38.4553 33.3614C38.4553 34.0379 39.0393 34.5858 39.725 34.515C40.3214 34.4535 40.7571 33.9107 40.7571 33.3063V21.7616L40.7589 18.1225L40.7571 2.38936C40.7603 2.38797 40.7603 -0.947084 38.9176 2.38797Z" fill="#263A8B"/>
</g>
<path d="M5.42567 2.53113H5.36133C5.0631 2.53113 4.82277 8.77505 4.82277 8.77505C4.82277 9.0365 4.63206 9.25816 4.37611 9.2961C4.06225 9.34192 3.77964 9.0962 3.77964 8.77505C3.77964 8.77505 3.53747 2.53113 3.24062 2.53113H3.16893C2.8707 2.53113 2.6299 8.77967 2.6299 8.77967C2.6299 9.09758 2.35051 9.34331 2.03803 9.30073L1.97416 9.29148C1.71636 9.25492 1.5229 9.03326 1.5229 8.77042C1.5229 8.77042 1.28073 2.52974 0.984338 2.52974C0.685645 2.52974 0.445312 9.33683 0.445312 9.33683C0.445312 10.1869 0.630961 11.4965 1.54634 12.2568C2.09134 12.7098 2.21771 13.204 2.22874 13.4104V33.3583C2.22874 33.996 2.74708 34.5184 3.37985 34.5184C4.01216 34.5184 4.53051 33.996 4.53051 33.3583V13.497H4.53235C4.52913 13.453 4.53235 13.4137 4.53051 13.3711V13.2295C4.55716 12.6691 4.78509 12.3512 5.03369 12.1416C5.97066 11.3549 5.97066 10.124 5.97066 9.34654C5.96423 9.34654 5.7239 2.53113 5.42567 2.53113Z" fill="#263A8B"/>
</svg>
