<svg width="29" height="35" viewBox="0 0 29 35" fill="none" xmlns="http://www.w3.org/2000/svg">
<path d="M23.4096 23.9825C22.3445 25.2461 20.8085 26.2946 18.7277 26.4289C18.5048 27.5578 18.3315 28.7138 18.2075 29.8431C18.1332 30.6493 17.4894 31.2677 16.7216 31.2677C16.6719 31.2677 16.5976 31.2677 16.5479 31.2677C16.1517 31.2138 15.8048 30.9987 15.5572 30.6761C15.3839 30.4611 15.2845 30.1924 15.2599 29.9506H4.60847C4.33586 29.9506 4.11292 29.7083 4.11292 29.4129C4.11292 29.1171 4.33586 28.8753 4.60847 28.8753H15.3342C15.4332 27.9611 15.5818 27.0741 15.7555 26.1871H4.60847C4.33586 26.1871 4.11292 25.9448 4.11292 25.6494C4.11292 25.3536 4.33586 25.1118 4.60847 25.1118H15.6068C14.9626 24.4666 14.2938 23.5524 14.0708 22.4235H4.60847C4.33586 22.4235 4.11292 22.1813 4.11292 21.8859C4.11292 21.5901 4.33586 21.3482 4.60847 21.3482H14.0708V21.375C14.1205 21.0792 14.2691 20.7834 14.4671 20.5684C14.2445 20.1654 14.1205 19.6813 14.3188 19.1437C14.3188 19.1437 14.3931 18.9554 14.4671 18.66H4.60847C4.33586 18.66 4.11292 18.4178 4.11292 18.1224C4.11292 17.8266 4.33586 17.5847 4.60847 17.5847H14.814C15.1359 16.5898 15.5075 15.4877 15.5075 15.4877C15.5818 15.2726 15.7058 15.0576 15.8544 14.8965H4.60847C4.33586 14.8965 4.11292 14.6542 4.11292 14.3588C4.11292 14.063 4.33586 13.8212 4.60847 13.8212H17.39L17.415 12.6384C17.415 12.2618 17.5387 11.9124 17.7616 11.6166C17.8359 11.5359 17.9599 11.348 18.1828 11.1058H4.60847C4.33586 11.1058 4.11292 10.8639 4.11292 10.5681C4.11292 10.2727 4.33586 10.0305 4.60847 10.0305H18.9757C19.025 10.0305 19.0746 10.0305 19.1243 10.0577C20.1397 8.9552 21.6507 7.53053 23.3599 6.45524C23.3103 6.24018 23.2359 6.02512 23.137 5.81006C23.038 5.59501 22.8894 5.37995 22.7408 5.21885L18.0839 0.245325C17.9846 0.137796 17.8359 0.0842285 17.7123 0.0842285C17.6626 0.0842285 4.9554 0.0842285 1.63585 0.0842285C0.843394 0.0842285 0.149902 0.836933 0.149902 1.69717V32.8807C0.149902 33.7677 0.81838 34.4936 1.63585 34.4936H21.9479C22.7654 34.4936 23.4342 33.7677 23.4342 32.8807L23.4096 23.9825C23.4342 24.0093 23.4342 23.9825 23.4096 23.9825ZM18.2325 1.91223L21.502 5.46069H18.7277C18.4555 5.46069 18.2325 5.21885 18.2325 4.92305V1.91223Z" fill="#263A8B"/>
<path d="M27.8931 5.99834H27.8434C23.5085 5.99834 18.7276 12.0468 18.5297 12.3158C18.4554 12.3961 18.4057 12.5308 18.4057 12.6652L18.356 15.0308L16.7461 15.5145C16.5975 15.5684 16.4735 15.676 16.4242 15.8371C16.4242 15.8371 15.2101 19.4663 15.2101 19.4931C15.0615 19.9504 15.656 20.488 15.904 20.8106L15.2598 21.2135C15.1112 21.3211 15.0122 21.4826 15.0122 21.6708C15.0122 23.2298 16.2756 24.3591 17.0434 24.8967C16.6965 26.3749 16.4489 27.9343 16.2756 29.574C16.2506 29.8698 16.4489 30.1385 16.7215 30.1656C16.9937 30.1924 17.2413 29.9774 17.2663 29.6816C17.4396 28.1494 17.6626 26.6975 17.9845 25.2996C18.1331 25.2996 18.2817 25.3268 18.4057 25.3268C23.1122 25.3536 24.6729 19.6006 24.6729 19.547C24.7965 19.0362 24.004 18.2299 23.7314 17.8533L25.2424 16.8856C25.3167 16.832 25.391 16.7513 25.416 16.6705C28.339 10.7832 28.3883 6.69708 28.3883 6.53598C28.3883 6.24018 28.1653 5.99834 27.8931 5.99834ZM17.3156 23.7942C16.7958 23.3913 16.1762 22.7189 16.0276 21.9662L16.9194 21.4018C17.0434 21.3211 17.1423 21.1867 17.1674 21.0257C17.192 20.8642 17.1423 20.7031 17.068 20.5955L16.2506 19.547L17.2663 16.4555L18.9756 15.9178C19.1985 15.8642 19.3221 15.6492 19.3472 15.407L19.3965 12.8534C20.0653 12.0468 23.4588 8.04139 26.704 7.20794C24.8958 8.9552 19.7187 14.5467 17.3156 23.7942ZM24.6232 16.0253L22.7653 17.235C22.6417 17.3157 22.5674 17.45 22.5424 17.5847C22.5177 17.7458 22.5424 17.8801 22.6417 18.0148L23.6818 19.4931C23.3598 20.5148 21.8489 24.3858 18.2324 24.2783C20.5112 15.3802 25.416 9.95014 27.2489 8.17571C26.9763 9.81543 26.3075 12.6112 24.6232 16.0253Z" fill="#263A8B"/>
</svg>
