<svg width="36" height="35" viewBox="0 0 36 35" fill="none" xmlns="http://www.w3.org/2000/svg">
<path d="M23.1807 11.6591V0.441116H0.680664V34.095H10.6807V27.3642H13.1807V34.095H35.6807V11.6591H23.1807ZM6.93066 29.6078H4.43066V27.3642H6.93066V29.6078ZM6.93066 23.9988H4.43066V21.7552H6.93066V23.9988ZM6.93066 18.3898H4.43066V16.1462H6.93066V18.3898ZM6.93066 12.7809H4.43066V10.5373H6.93066V12.7809ZM6.93066 7.17189H4.43066V4.9283H6.93066V7.17189ZM16.9307 4.9283H19.4307V7.17189H16.9307V4.9283ZM13.1807 23.9988H10.6807V21.7552H13.1807V23.9988ZM13.1807 18.3898H10.6807V16.1462H13.1807V18.3898ZM13.1807 12.7809H10.6807V10.5373H13.1807V12.7809ZM13.1807 7.17189H10.6807V4.9283H13.1807V7.17189ZM19.4307 29.6078H16.9307V27.3642H19.4307V29.6078ZM19.4307 23.9988H16.9307V21.7552H19.4307V23.9988ZM19.4307 18.3898H16.9307V16.1462H19.4307V18.3898ZM19.4307 12.7809H16.9307V10.5373H19.4307V12.7809ZM33.1807 31.8514H23.1807V29.6078H25.6807V27.3642H23.1807V23.9988H25.6807V21.7552H23.1807V18.3898H25.6807V16.1462H23.1807V13.9027H33.1807V31.8514Z" fill="#263A8B"/>
<path d="M28.1807 27.3642H30.6807V29.6078H28.1807V27.3642ZM28.1807 21.7552H30.6807V23.9988H28.1807V21.7552ZM28.1807 16.1462H30.6807V18.3898H28.1807V16.1462Z" fill="#263A8B"/>
</svg>
