<svg width="24" height="19" viewBox="0 0 24 19" fill="none" xmlns="http://www.w3.org/2000/svg">
<path d="M23.0312 2.37793C22.191 2.76128 21.302 3.01384 20.3923 3.12762C21.3483 2.53981 22.0673 1.60597 22.4143 0.501243C21.5104 1.05621 20.5232 1.4456 19.4949 1.65273C19.0618 1.17623 18.5411 0.797154 17.9642 0.538554C17.3873 0.279954 16.7663 0.147229 16.1391 0.148446C13.5995 0.148446 11.5443 2.27503 11.5443 4.89651C11.5425 5.26115 11.5823 5.6247 11.6628 5.9794C9.84176 5.88976 8.05856 5.40198 6.42731 4.54727C4.79607 3.69255 3.3527 2.48973 2.18954 1.01574C1.78148 1.73805 1.56567 2.56219 1.56468 3.40202C1.56468 5.04841 2.38274 6.5037 3.618 7.35629C2.88614 7.33805 2.16928 7.13467 1.52828 6.7634V6.8222C1.52828 9.12518 3.11494 11.0411 5.21493 11.4772C4.82003 11.5877 4.41309 11.6437 4.0044 11.6438C3.7144 11.6443 3.42507 11.6147 3.1406 11.5556C3.7244 13.442 5.42353 14.814 7.43625 14.8532C5.80077 16.1767 3.79282 16.892 1.72801 16.8867C1.3615 16.8861 0.99533 16.8632 0.631348 16.8181C2.73189 18.2265 5.1736 18.9714 7.66585 18.9643C16.1293 18.9643 20.753 11.7271 20.753 5.45021C20.753 5.24441 20.7479 5.03861 20.7385 4.83771C21.636 4.16742 22.4124 3.33446 23.0312 2.37793Z" fill="white"/>
</svg>
