<svg width="237" height="95" viewBox="0 0 237 95" fill="none" xmlns="http://www.w3.org/2000/svg">
<path d="M228.029 21.3671C229.305 21.9133 231.026 21.9133 231.026 23.4169C231.026 26.9668 217.313 29.0839 216.802 29.0839L212.274 39.6691C211.954 40.4878 211.508 40.6937 210.996 40.761L209.529 40.8975V33.5238L206.659 30.7912C206.339 30.7912 204.488 31.131 200.663 31.131C196.198 31.131 194.985 30.9278 194.666 30.9278L194.157 33.2494C194.092 33.6604 193.007 33.8642 192.817 33.5911L190.52 30.3123C190.074 30.3123 188.925 30.1777 188.925 29.7667C188.925 29.2218 189.117 29.0166 189.372 28.88L184.524 24.0304C184.206 23.69 185.354 23.0078 186.374 23.5521L191.094 25.9416L190.775 21.9813L191.86 21.7788C192.243 21.7095 193.073 22.325 193.327 22.5962L196.646 26.4206L202.385 25.2595L199.706 22.325L187.141 13.8568L188.224 12.9688C188.224 12.9688 188.48 12.6957 189.373 12.6957L214.314 23.0764L222.096 21.5056C222.415 21.4364 223.756 20.6177 225.349 20.6177C227.073 20.6177 227.073 20.9581 228.03 21.3671" fill="#FFD233"/>
<path fill-rule="evenodd" clip-rule="evenodd" d="M103.836 82.0912C104.384 82.113 104.85 81.6538 104.87 81.064C104.89 80.4769 104.461 79.9794 103.912 79.9577C103.36 79.9366 102.898 80.3951 102.875 80.9822C102.855 81.572 103.284 82.0668 103.836 82.0912ZM107.958 81.9494C108.507 81.8887 108.906 81.3662 108.849 80.779C108.793 80.1925 108.304 79.7657 107.756 79.8264C107.207 79.8864 106.808 80.4129 106.864 80.9961C106.921 81.5826 107.413 82.0094 107.958 81.9494ZM99.7259 81.6116C100.268 81.7178 100.79 81.3378 100.89 80.7579C100.993 80.178 100.634 79.6199 100.095 79.513C99.5534 79.4028 99.0313 79.7875 98.9315 80.3667C98.8286 80.9426 99.1879 81.5008 99.7259 81.6116ZM112.024 81.188C112.56 81.0462 112.886 80.4663 112.753 79.8937C112.62 79.321 112.078 78.9727 111.542 79.1152C111.007 79.257 110.681 79.8369 110.817 80.4096C110.947 80.9822 111.489 81.3305 112.024 81.188ZM95.7296 80.463C96.2486 80.6583 96.8205 80.3667 97.0036 79.8119C97.183 79.2537 96.9099 78.6455 96.3916 78.4502C95.8726 78.2543 95.3013 78.5498 95.1182 79.1046C94.9389 79.6588 95.2113 80.271 95.7296 80.463ZM115.944 79.8402C116.456 79.6238 116.709 79.0011 116.506 78.4535C116.306 77.9059 115.725 77.6394 115.213 77.8525C114.701 78.0695 114.448 78.6917 114.651 79.2392C114.854 79.7875 115.433 80.054 115.944 79.8402ZM91.9466 78.7207C92.4353 78.9872 93.0369 78.7807 93.2865 78.2543C93.5392 77.7318 93.3426 77.0885 92.8538 76.8213C92.362 76.5515 91.7635 76.7613 91.5109 77.2838C91.2612 77.8103 91.4542 78.4502 91.9466 78.7207ZM119.665 77.995C120.15 77.7179 120.336 77.0707 120.077 76.5515C119.818 76.0323 119.216 75.8364 118.727 76.1102C118.242 76.3879 118.059 77.0351 118.318 77.5543C118.574 78.0735 119.179 78.2721 119.665 77.995ZM88.4089 76.5086C88.8711 76.8319 89.4893 76.6934 89.7919 76.2025C90.0945 75.7084 89.9651 75.0473 89.5059 74.7234C89.0437 74.4035 88.4255 74.5387 88.1229 75.0328C87.8203 75.5237 87.9503 76.1847 88.4089 76.5086ZM123.172 75.7618C123.631 75.4386 123.761 74.7769 123.458 74.286C123.156 73.7919 122.537 73.6567 122.075 73.9806C121.616 74.3038 121.487 74.9655 121.789 75.4557C122.092 75.9505 122.71 76.0858 123.172 75.7618ZM85.1072 73.97C85.5398 74.3322 86.1679 74.2471 86.5069 73.7813C86.8428 73.3156 86.7663 72.6466 86.3312 72.2844C85.8955 71.9249 85.2668 72.0067 84.9309 72.4725C84.5919 72.9382 84.672 73.6072 85.1072 73.97ZM126.48 73.2443C126.916 72.8887 126.999 72.2165 126.666 71.7507C126.33 71.2817 125.706 71.1926 125.267 71.5482C124.832 71.9071 124.748 72.576 125.081 73.0451C125.416 73.5148 126.041 73.6032 126.48 73.2443ZM81.9855 71.221C82.4046 71.6049 83.0326 71.5587 83.395 71.1108C83.7543 70.6661 83.7075 69.9939 83.2921 69.6066C82.8767 69.2227 82.2449 69.2721 81.8856 69.7168C81.5232 70.1614 81.57 70.837 81.9855 71.221ZM129.622 70.5276C130.041 70.1469 130.094 69.4753 129.735 69.0234C129.379 68.5755 128.751 68.522 128.329 68.9027C127.91 69.2827 127.86 69.9589 128.216 70.4069C128.571 70.8548 129.203 70.9082 129.622 70.5276ZM78.9901 68.3617C79.3956 68.7569 80.0274 68.7285 80.3996 68.2944C80.7688 67.857 80.7423 67.1815 80.3361 66.787C79.9306 66.3885 79.2989 66.4208 78.9266 66.8543C78.5543 67.2884 78.5845 67.9639 78.9901 68.3617ZM132.638 67.6829C133.047 67.2844 133.077 66.6088 132.704 66.1754C132.335 65.738 131.704 65.7096 131.298 66.1042C131.294 66.1042 131.294 66.1042 131.294 66.1042C130.889 66.4987 130.859 67.1742 131.232 67.6116C131.601 68.0457 132.232 68.0774 132.638 67.6829ZM76.0539 65.4642C76.4563 65.866 77.0881 65.8376 77.464 65.4035C77.8363 64.9694 77.8098 64.2978 77.4073 63.8961C77.0018 63.4976 76.3701 63.526 75.9978 63.9561C75.6218 64.3902 75.6483 65.0658 76.0539 65.4642ZM135.574 64.7636C135.976 64.3579 135.992 63.6823 135.614 63.2555C135.238 62.8253 134.606 62.8075 134.204 63.2132C133.805 63.615 133.785 64.2906 134.164 64.7207C134.543 65.1476 135.175 65.1654 135.574 64.7636ZM25.0697 64.5149C25.4857 64.1303 25.532 63.4587 25.172 63.0107C24.8121 62.5661 24.1816 62.5159 23.7649 62.8999C23.3483 63.2878 23.3027 63.9601 23.6626 64.408C24.0226 64.8527 24.6531 64.9021 25.0697 64.5149ZM73.1152 62.6089C73.5275 62.9995 74.1556 62.9606 74.5217 62.5199C74.8872 62.0785 74.8508 61.403 74.4416 61.0118C74.0292 60.6205 73.3975 60.6601 73.032 61.1008C72.6665 61.5422 72.7029 62.2177 73.1152 62.6089ZM28.1434 61.9011C28.5816 61.5455 28.666 60.8772 28.3332 60.4075C27.9997 59.9384 27.3729 59.8493 26.9353 60.2049C26.4971 60.5605 26.4121 61.2288 26.7455 61.6985C27.0783 62.1676 27.7051 62.26 28.1434 61.9011ZM138.469 61.8193C138.869 61.4135 138.881 60.738 138.502 60.3118C138.123 59.885 137.492 59.8671 137.093 60.2722C136.694 60.6779 136.681 61.3568 137.06 61.7836C137.439 62.2065 138.07 62.2243 138.469 61.8193ZM70.1161 59.8632C70.542 60.2333 71.1701 60.166 71.5195 59.7108C71.8684 59.2556 71.8049 58.5833 71.3765 58.2099C70.9507 57.8365 70.3226 57.9045 69.9732 58.359C69.6274 58.8182 69.6909 59.4898 70.1161 59.8632ZM31.3279 59.3763C31.3279 59.3763 31.3279 59.3763 31.3286 59.3763C31.7742 59.0313 31.874 58.363 31.551 57.8867C31.2287 57.4097 30.605 57.2995 30.1588 57.6478C29.7125 57.9929 29.6127 58.6579 29.935 59.1381C30.258 59.6145 30.8823 59.7213 31.3279 59.3763ZM141.365 58.9033C141.768 58.5048 141.791 57.8293 141.418 57.3958C141.043 56.9657 140.411 56.9406 140.009 57.3391C139.603 57.7409 139.58 58.4164 139.956 58.8465C140.328 59.28 140.96 59.3051 141.365 58.9033ZM67.0012 57.314C67.453 57.6518 68.0749 57.5416 68.3941 57.058C68.7097 56.5811 68.6067 55.9128 68.1581 55.5717C67.7094 55.23 67.0838 55.3441 66.7651 55.8237C66.449 56.304 66.5519 56.9723 67.0012 57.314ZM34.5594 56.9723C35.0216 56.6523 35.1554 55.9913 34.857 55.4971C34.5587 55.0023 33.9406 54.8605 33.4783 55.1765C33.0155 55.4971 32.8817 56.1582 33.1806 56.6523C33.4789 57.1464 34.0965 57.2889 34.5594 56.9723ZM144.304 56.0658C144.72 55.6819 144.759 55.0063 144.401 54.5617C144.038 54.117 143.407 54.0748 142.991 54.4587C142.579 54.846 142.536 55.5215 142.898 55.9662C143.257 56.4069 143.889 56.4531 144.304 56.0658ZM63.7297 55.0597C64.2049 55.3546 64.8163 55.1765 65.0893 54.6685C65.3655 54.1559 65.199 53.5021 64.7202 53.2105C64.245 52.9189 63.6329 53.0931 63.3605 53.6051C63.0875 54.1137 63.2508 54.7681 63.7297 55.0597ZM37.9677 55.0419C38.4651 54.7893 38.6777 54.1526 38.4422 53.6196C38.2068 53.0859 37.6114 52.8583 37.1141 53.1109C36.6161 53.3636 36.404 53.9996 36.6395 54.5333C36.8749 55.063 37.4703 55.2906 37.9677 55.0419ZM147.33 53.3207C147.752 52.9473 147.808 52.2718 147.456 51.8198C147.103 51.3686 146.475 51.3046 146.053 51.6813C145.627 52.058 145.571 52.7342 145.924 53.1855C146.276 53.6374 146.904 53.7014 147.33 53.3207ZM41.5603 53.4203C42.0774 53.2178 42.3424 52.6023 42.1519 52.0514C41.9621 51.4999 41.3883 51.2155 40.8718 51.4181C40.3553 51.6206 40.0897 52.2361 40.2801 52.787C40.47 53.3418 41.0438 53.6229 41.5603 53.4203ZM60.2684 53.2211C60.7769 53.4487 61.3624 53.1927 61.575 52.6485C61.7877 52.1081 61.5485 51.4821 61.0394 51.2545C60.5347 51.0269 59.9491 51.2795 59.7365 51.8238C59.5239 52.3674 59.763 52.9935 60.2684 53.2211ZM45.2663 52.1972C45.8025 52.0547 46.1285 51.4748 45.9954 50.9028C45.8623 50.3335 45.3205 49.9852 44.7861 50.1237C44.2518 50.2662 43.9258 50.8454 44.0583 51.4181C44.1908 51.9874 44.7319 52.3391 45.2663 52.1972ZM56.6413 51.9195C57.1763 52.058 57.7149 51.7064 57.8444 51.1337C57.9744 50.5611 57.6453 49.9852 57.1097 49.8427C56.5747 49.7081 56.036 50.0597 55.9066 50.629C55.7766 51.201 56.1057 51.7809 56.6413 51.9195ZM49.0573 51.4643C49.6059 51.4003 50.0015 50.8745 49.9418 50.2873C49.882 49.7008 49.3864 49.2773 48.841 49.3452C48.2925 49.4053 47.8968 49.9357 47.9572 50.5189C48.017 51.1054 48.5119 51.5283 49.0573 51.4643ZM52.881 51.3363C53.4296 51.3686 53.9017 50.9167 53.9282 50.3262C53.9578 49.7397 53.5356 49.2384 52.984 49.2067C52.4354 49.1783 51.9664 49.6296 51.9368 50.2161C51.9097 50.8032 52.3325 51.3079 52.881 51.3363ZM150.405 50.6396C150.834 50.2735 150.904 49.6012 150.562 49.1387C150.219 48.6802 149.591 48.6057 149.162 48.9718C148.729 49.338 148.66 50.0102 149.002 50.472C149.344 50.9312 149.973 51.0058 150.405 50.6396ZM153.534 48.033C153.972 47.6775 154.056 47.0092 153.723 46.5394C153.391 46.0704 152.766 45.978 152.327 46.3336C151.888 46.6925 151.802 47.3608 152.134 47.8305C152.467 48.2996 153.095 48.3919 153.534 48.033ZM156.722 45.5188C157.167 45.1778 157.274 44.5088 156.952 44.0325C156.632 43.5529 156.007 43.442 155.562 43.7838C155.113 44.1288 155.01 44.7938 155.329 45.2734C155.648 45.7504 156.273 45.8639 156.722 45.5188ZM159.977 43.1155C160.436 42.7883 160.559 42.1265 160.253 41.6357C159.947 41.1449 159.329 41.0136 158.87 41.3408C158.411 41.6641 158.288 42.3291 158.594 42.8166C158.896 43.3075 159.518 43.442 159.977 43.1155ZM163.305 40.8394C163.774 40.53 163.924 39.8723 163.634 39.3709C163.349 38.8695 162.734 38.7131 162.264 39.0186C161.795 39.3247 161.646 39.9825 161.932 40.4838C162.221 40.9885 162.836 41.1449 163.305 40.8394ZM166.713 38.7204C167.195 38.4354 167.371 37.7849 167.109 37.269C166.843 36.7538 166.234 36.5651 165.752 36.8494C165.27 37.1344 165.094 37.7816 165.36 38.2969C165.626 38.8128 166.231 39.0008 166.713 38.7204ZM170.21 36.7894C170.706 36.5367 170.915 35.8968 170.679 35.367C170.44 34.8373 169.845 34.613 169.346 34.8656C168.851 35.1216 168.641 35.7583 168.881 36.2913C169.117 36.8211 169.715 37.0454 170.21 36.7894ZM173.798 35.1005C174.31 34.8795 174.559 34.2574 174.356 33.7131C174.15 33.1655 173.569 32.899 173.06 33.1161C172.548 33.3364 172.298 33.9585 172.501 34.5028C172.708 35.0504 173.289 35.3169 173.798 35.1005ZM177.482 33.7065C178.007 33.5323 178.303 32.9346 178.144 32.3726C177.98 31.8111 177.422 31.4945 176.897 31.6653C176.371 31.8362 176.075 32.4333 176.235 32.9986C176.398 33.5607 176.953 33.8767 177.482 33.7065ZM192.626 32.9808C193.154 33.1477 193.71 32.8212 193.863 32.2558C194.019 31.6937 193.716 31.1 193.188 30.9324C192.659 30.7694 192.104 31.0927 191.951 31.6581C191.795 32.2235 192.097 32.8172 192.626 32.9808ZM181.245 32.6892C181.787 32.579 182.14 32.017 182.036 31.4377C181.93 30.8618 181.405 30.4844 180.867 30.5946C180.324 30.7087 179.972 31.2708 180.078 31.8468C180.181 32.426 180.707 32.8034 181.245 32.6892ZM188.896 32.2162C189.444 32.2729 189.933 31.8468 189.986 31.2596C190.039 30.6731 189.64 30.1506 189.092 30.0932C188.543 30.0365 188.054 30.4666 188.001 31.0498C187.948 31.637 188.35 32.1595 188.896 32.2162ZM185.072 32.1562C185.621 32.1205 186.039 31.6119 186.003 31.0254C185.97 30.435 185.498 29.9903 184.945 30.0259C184.397 30.0616 183.978 30.5702 184.015 31.1567C184.048 31.7432 184.523 32.1918 185.072 32.1562Z" fill="#FFD233"/>
<path d="M16.1934 30.4707C15.9655 30.1973 15.7832 29.8783 15.6465 29.5137C15.5098 29.1491 15.3958 28.7845 15.3047 28.4199C15.2135 28.0098 15.1452 27.5996 15.0996 27.1895V26.0273C15.0996 25.7083 15.1224 25.4121 15.168 25.1387C15.2135 24.8197 15.3275 24.569 15.5098 24.3867C16.9225 24.0221 18.4492 23.7487 20.0898 23.5664C21.7305 23.3385 23.2799 23.1335 24.7383 22.9512C26.4245 22.7689 28.0879 22.6094 29.7285 22.4727C30.1842 22.1536 30.5944 21.9258 30.959 21.7891C31.3236 21.6523 31.6198 21.6523 31.8477 21.7891C31.9388 21.7891 32.0299 21.9714 32.1211 22.3359H32.3945C34.0352 22.2904 35.6074 22.2448 37.1113 22.1992C38.3874 22.1536 39.6406 22.1536 40.8711 22.1992C42.1471 22.1992 43.127 22.222 43.8105 22.2676C44.1751 22.3132 44.4486 22.5866 44.6309 23.0879C44.8132 23.5892 44.8587 24.2272 44.7676 25.002C44.722 25.7767 44.5169 26.6198 44.1523 27.5312C43.7878 28.4427 43.1953 29.3086 42.375 30.1289C41.3268 29.8555 40.2331 29.6732 39.0938 29.582C37.9544 29.4453 36.929 29.3314 36.0176 29.2402C34.8783 29.1491 33.8073 29.1035 32.8047 29.1035H32.4629C32.5085 30.9264 32.5312 32.9544 32.5312 35.1875C32.5312 37.375 32.5085 39.6081 32.4629 41.8867C32.4629 44.1198 32.4401 46.3301 32.3945 48.5176C32.349 50.6595 32.3034 52.5736 32.2578 54.2598C32.2578 56.9486 32.2578 59.2728 32.2578 61.2324C32.2578 63.1465 32.3262 64.7871 32.4629 66.1543C32.5996 67.4759 32.8047 68.5469 33.0781 69.3672C33.3516 70.1875 33.7389 70.8483 34.2402 71.3496C34.1947 71.3952 34.0579 71.5319 33.8301 71.7598C33.6478 72.0332 33.3743 72.3066 33.0098 72.5801C32.6908 72.8535 32.2806 73.1042 31.7793 73.332C31.3236 73.5599 30.7995 73.651 30.207 73.6055C28.7031 73.5599 27.5866 73.0586 26.8574 72.1016C26.1283 71.1445 25.627 69.8001 25.3535 68.0684C25.0801 66.3366 24.9661 64.2402 25.0117 61.7793C25.1029 59.3184 25.2396 56.5156 25.4219 53.3711C25.5586 51.2292 25.6725 49.0189 25.7637 46.7402C25.9004 44.4616 26.0143 42.2741 26.1055 40.1777C26.2422 38.0358 26.3561 36.0534 26.4473 34.2305C26.5384 32.362 26.6296 30.7441 26.7207 29.377C25.5814 29.4225 24.4193 29.5137 23.2344 29.6504C22.1862 29.7415 21.0469 29.8555 19.8164 29.9922C18.5859 30.1289 17.3783 30.2884 16.1934 30.4707ZM60.3535 47.0137C60.3535 47.6517 60.1712 48.3125 59.8066 48.9961C59.4876 49.6341 59.0775 50.2493 58.5762 50.8418C58.0749 51.4342 57.5052 51.9583 56.8672 52.4141C56.2747 52.8242 55.7051 53.0749 55.1582 53.166C55.5228 51.7533 55.6367 50.6595 55.5 49.8848C55.3633 49.11 55.1354 48.5404 54.8164 48.1758C54.4518 47.7656 53.9961 47.5378 53.4492 47.4922C52.6289 47.4922 51.8314 47.9707 51.0566 48.9277C50.3275 49.8392 49.6895 50.9785 49.1426 52.3457C48.5957 53.6673 48.1628 55.1029 47.8438 56.6523C47.5247 58.1562 47.3652 59.5234 47.3652 60.7539C47.3197 61.6198 47.3424 62.4629 47.4336 63.2832C47.4792 63.9668 47.5475 64.6732 47.6387 65.4023C47.7754 66.1315 47.9577 66.7012 48.1855 67.1113C47.9121 67.3392 47.4564 67.6126 46.8184 67.9316C46.2259 68.2507 45.5879 68.4557 44.9043 68.5469C44.2663 68.638 43.6738 68.5241 43.127 68.2051C42.6257 67.8861 42.3522 67.2025 42.3066 66.1543C42.2155 65.1517 42.1471 64.0352 42.1016 62.8047C42.1016 61.5286 42.1016 60.2754 42.1016 59.0449C42.1471 57.7689 42.1927 56.5156 42.2383 55.2852C42.2839 54.0547 42.3522 52.9154 42.4434 51.8672C42.5345 49.862 42.5801 48.3125 42.5801 47.2188C42.5801 46.125 42.5573 45.0768 42.5117 44.0742C42.5117 43.8919 42.8079 43.6413 43.4004 43.3223C44.0384 42.9577 44.722 42.6387 45.4512 42.3652C46.2259 42.0918 46.9323 41.9323 47.5703 41.8867C48.2083 41.8411 48.5273 41.9779 48.5273 42.2969C48.5273 42.7982 48.459 43.8008 48.3223 45.3047C48.2311 46.763 48.0944 48.2897 47.9121 49.8848C48.2311 49.0189 48.6413 48.0846 49.1426 47.082C49.6895 46.0794 50.3047 45.1452 50.9883 44.2793C51.6719 43.4134 52.4466 42.707 53.3125 42.1602C54.1784 41.5677 55.1354 41.2715 56.1836 41.2715C57.0039 41.2715 57.6647 41.5221 58.166 42.0234C58.7129 42.5247 59.1458 43.0944 59.4648 43.7324C59.7839 44.3704 60.0117 45.0085 60.1484 45.6465C60.2852 46.2845 60.3535 46.7402 60.3535 47.0137ZM82.2969 64.5137C82.388 64.8327 82.5247 65.1289 82.707 65.4023C82.8438 65.6302 83.026 65.8581 83.2539 66.0859C83.5273 66.2682 83.8464 66.3822 84.2109 66.4277C83.8919 67.0658 83.5729 67.4987 83.2539 67.7266C83.0716 67.8633 82.9121 67.9544 82.7754 68C82.3652 68.1367 81.75 68.2051 80.9297 68.2051C80.1094 68.2051 79.3118 67.9544 78.5371 67.4531C78.2637 67.2253 78.013 66.8835 77.7852 66.4277C77.5573 66.0632 77.3522 65.5618 77.1699 64.9238C77.0332 64.2402 76.9193 63.3743 76.8281 62.3262C76.1901 63.6934 75.4609 64.7871 74.6406 65.6074C73.8659 66.3822 73.0911 66.9518 72.3164 67.3164C71.4505 67.8177 70.5618 68.1139 69.6504 68.2051C68.5111 68.2962 67.4173 68.1139 66.3691 67.6582C65.3665 67.1569 64.5007 66.4277 63.7715 65.4707C63.0879 64.4681 62.5638 63.2604 62.1992 61.8477C61.8346 60.4349 61.7207 58.8398 61.8574 57.0625C61.9941 55.194 62.3587 53.5306 62.9512 52.0723C63.5436 50.6139 64.25 49.3151 65.0703 48.1758C65.8906 47.0365 66.7565 46.0794 67.668 45.3047C68.5794 44.4844 69.4453 43.8236 70.2656 43.3223C71.1315 42.7754 71.8607 42.388 72.4531 42.1602C73.0911 41.8867 73.5013 41.7272 73.6836 41.6816C74.1849 41.5449 74.6178 41.4993 74.9824 41.5449C75.347 41.5905 75.666 41.7956 75.9395 42.1602C76.0306 42.2969 76.1445 42.4564 76.2812 42.6387C76.3724 42.821 76.4863 43.0716 76.623 43.3906C76.7598 43.6641 76.8737 43.9831 76.9648 44.3477C75.8711 44.849 74.8457 45.4186 73.8887 46.0566C72.9316 46.6491 72.043 47.3783 71.2227 48.2441C70.4479 49.11 69.7643 50.1582 69.1719 51.3887C68.5794 52.6191 68.1237 54.123 67.8047 55.9004C67.349 58.1335 67.4629 59.9336 68.1465 61.3008C68.8757 62.668 69.8555 63.2376 71.0859 63.0098C71.8151 62.7819 72.5215 62.349 73.2051 61.7109C73.7975 61.1641 74.4128 60.3438 75.0508 59.25C75.7344 58.1562 76.3724 56.6523 76.9648 54.7383C77.1927 52.0039 77.375 49.862 77.5117 48.3125C77.694 46.7174 77.8535 45.5098 77.9902 44.6895C78.1725 43.7324 78.3092 43.0944 78.4004 42.7754C78.5371 42.5475 78.8105 42.3424 79.2207 42.1602C79.6309 41.9323 80.0866 41.75 80.5879 41.6133C81.0892 41.4766 81.5449 41.4082 81.9551 41.4082C82.3652 41.3626 82.6387 41.3626 82.7754 41.4082C82.8665 41.4538 82.9121 42.0234 82.9121 43.1172C82.9121 44.1654 82.8665 45.5098 82.7754 47.1504C82.7298 48.7454 82.6615 50.5 82.5703 52.4141C82.4792 54.2826 82.388 56.0599 82.2969 57.7461C82.2513 59.4323 82.2057 60.9134 82.1602 62.1895C82.1602 63.4199 82.2057 64.1947 82.2969 64.5137ZM96.9941 64.4453C97.4043 64.4453 97.9512 63.7161 98.6348 62.2578C99.3184 60.7995 99.9564 59.0449 100.549 56.9941C101.187 54.9434 101.688 52.8242 102.053 50.6367C102.463 48.4492 102.577 46.6035 102.395 45.0996C102.303 44.5983 102.167 44.1882 101.984 43.8691C101.848 43.5501 101.665 43.2083 101.438 42.8438C101.711 42.4792 102.053 42.2057 102.463 42.0234C102.873 41.7956 103.26 41.6361 103.625 41.5449C104.081 41.4082 104.536 41.3171 104.992 41.2715C106.086 41.2259 106.883 41.4082 107.385 41.8184C107.658 42.0918 107.795 42.7298 107.795 43.7324C107.795 44.735 107.681 45.9199 107.453 47.2871C107.271 48.6087 106.997 50.0215 106.633 51.5254C106.314 52.9837 105.949 54.3281 105.539 55.5586C105.129 56.7435 104.628 58.0423 104.035 59.4551C103.443 60.8223 102.827 62.1439 102.189 63.4199C101.551 64.6504 100.913 65.7214 100.275 66.6328C99.6374 67.4987 99.0905 68.0228 98.6348 68.2051C97.6777 68.5697 96.7207 68.752 95.7637 68.752C94.8522 68.752 94.2826 68.638 94.0547 68.4102C93.9635 68.319 93.7585 68 93.4395 67.4531C93.1204 66.9062 92.7559 66.1999 92.3457 65.334C91.9811 64.4681 91.571 63.4655 91.1152 62.3262C90.7051 61.1413 90.3405 59.888 90.0215 58.5664C89.7025 57.2448 89.4746 55.8092 89.3379 54.2598C89.2012 52.7103 89.0417 51.2064 88.8594 49.748C88.7227 48.2441 88.5176 46.8542 88.2441 45.5781C87.9707 44.3021 87.5605 43.2539 87.0137 42.4336L90.2266 41.1348C90.5 40.998 90.819 40.8841 91.1836 40.793C91.5482 40.6562 91.9128 40.6107 92.2773 40.6562C92.6419 40.7018 92.9609 40.8841 93.2344 41.2031C93.5534 41.4766 93.7585 41.9779 93.8496 42.707C93.9408 43.5273 94.0091 44.5072 94.0547 45.6465C94.1458 46.7858 94.2142 47.9707 94.2598 49.2012C94.3509 50.4316 94.4421 51.6621 94.5332 52.8926C94.6243 54.0775 94.7155 55.1484 94.8066 56.1055C94.8978 57.1081 95.0117 58.1107 95.1484 59.1133C95.3307 60.1159 95.513 61.0046 95.6953 61.7793C95.9232 62.554 96.1283 63.1921 96.3105 63.6934C96.5384 64.1947 96.7663 64.4453 96.9941 64.4453ZM120.578 68.752C117.388 68.752 114.927 67.681 113.195 65.5391C111.464 63.3971 110.598 60.5944 110.598 57.1309C110.598 54.7155 110.939 52.4596 111.623 50.3633C112.352 48.2214 113.309 46.3757 114.494 44.8262C115.679 43.2767 117.046 42.069 118.596 41.2031C120.191 40.2917 121.854 39.8359 123.586 39.8359C125.272 39.8359 126.708 40.4512 127.893 41.6816C129.077 42.8665 129.67 44.5755 129.67 46.8086C129.67 48.2669 129.351 49.7253 128.713 51.1836C128.075 52.5964 127.232 53.8724 126.184 55.0117C125.181 56.1055 124.064 56.9941 122.834 57.6777C121.604 58.3613 120.419 58.7031 119.279 58.7031C118.55 58.7031 117.935 58.612 117.434 58.4297C116.932 58.2474 116.477 57.974 116.066 57.6094C116.203 60.207 116.773 62.0299 117.775 63.0781C118.778 64.0807 120.077 64.582 121.672 64.582C122.766 64.582 123.723 64.3542 124.543 63.8984C125.409 63.4427 126.138 62.9186 126.73 62.3262C127.323 61.7337 127.801 61.1413 128.166 60.5488C128.531 59.9108 128.781 59.4323 128.918 59.1133C129.055 58.8398 129.283 58.7031 129.602 58.7031C129.966 58.7031 130.148 58.9766 130.148 59.5234C130.148 60.0247 129.966 60.7995 129.602 61.8477C129.283 62.8503 128.736 63.8757 127.961 64.9238C127.186 65.9264 126.184 66.8151 124.953 67.5898C123.768 68.3646 122.31 68.752 120.578 68.752ZM123.723 42.7754C123.449 42.7754 122.925 43.0716 122.15 43.6641C121.421 44.2109 120.624 45.0312 119.758 46.125C118.938 47.2188 118.163 48.5404 117.434 50.0898C116.75 51.5938 116.317 53.3027 116.135 55.2168C118.869 54.5788 121.034 53.5762 122.629 52.209C124.224 50.8418 125.021 48.8366 125.021 46.1934C125.021 44.8717 124.862 43.9831 124.543 43.5273C124.224 43.026 123.951 42.7754 123.723 42.7754ZM143 23.7031C142.909 25.3438 142.749 27.235 142.521 29.377C142.294 31.5189 142.043 33.8203 141.77 36.2812C141.542 38.7422 141.291 41.3171 141.018 44.0059C140.79 46.6947 140.585 49.4062 140.402 52.1406C140.22 54.875 140.129 57.1081 140.129 58.8398C140.174 60.526 140.288 61.916 140.471 63.0098C140.653 64.1035 140.904 64.9694 141.223 65.6074C141.542 66.2454 141.952 66.8607 142.453 67.4531C141.861 67.8177 141.314 68.0911 140.812 68.2734C140.311 68.4557 139.878 68.5924 139.514 68.6836C139.058 68.8203 138.648 68.8887 138.283 68.8887C137.6 68.8887 137.007 68.5697 136.506 67.9316C136.005 67.248 135.594 66.3822 135.275 65.334C135.002 64.2858 134.774 63.1237 134.592 61.8477C134.455 60.526 134.387 59.2272 134.387 57.9512C134.387 56.584 134.432 55.0117 134.523 53.2344C134.615 51.4115 134.706 49.4974 134.797 47.4922C134.934 45.4414 135.07 43.3223 135.207 41.1348C135.344 38.9017 135.458 36.6914 135.549 34.5039C135.64 32.8177 135.731 31.291 135.822 29.9238C135.913 28.7389 135.982 27.668 136.027 26.7109C136.073 25.7083 136.05 25.1159 135.959 24.9336C136.232 24.569 136.574 24.2956 136.984 24.1133C137.395 23.931 137.782 23.7715 138.146 23.6348C138.602 23.498 139.058 23.3841 139.514 23.293H140.812C141.177 23.293 141.564 23.3385 141.975 23.4297C142.385 23.4753 142.727 23.5664 143 23.7031ZM155.1 23.7031C155.008 25.3438 154.849 27.235 154.621 29.377C154.393 31.5189 154.143 33.8203 153.869 36.2812C153.641 38.7422 153.391 41.3171 153.117 44.0059C152.889 46.6947 152.684 49.4062 152.502 52.1406C152.32 54.875 152.229 57.1081 152.229 58.8398C152.274 60.526 152.388 61.916 152.57 63.0098C152.753 64.1035 153.003 64.9694 153.322 65.6074C153.641 66.2454 154.051 66.8607 154.553 67.4531C153.96 67.8177 153.413 68.0911 152.912 68.2734C152.411 68.4557 151.978 68.5924 151.613 68.6836C151.158 68.8203 150.747 68.8887 150.383 68.8887C149.699 68.8887 149.107 68.5697 148.605 67.9316C148.104 67.248 147.694 66.3822 147.375 65.334C147.102 64.2858 146.874 63.1237 146.691 61.8477C146.555 60.526 146.486 59.2272 146.486 57.9512C146.486 56.584 146.532 55.0117 146.623 53.2344C146.714 51.4115 146.805 49.4974 146.896 47.4922C147.033 45.4414 147.17 43.3223 147.307 41.1348C147.443 38.9017 147.557 36.6914 147.648 34.5039C147.74 32.8177 147.831 31.291 147.922 29.9238C148.013 28.7389 148.081 27.668 148.127 26.7109C148.173 25.7083 148.15 25.1159 148.059 24.9336C148.332 24.569 148.674 24.2956 149.084 24.1133C149.494 23.931 149.882 23.7715 150.246 23.6348C150.702 23.498 151.158 23.3841 151.613 23.293H152.912C153.277 23.293 153.664 23.3385 154.074 23.4297C154.484 23.4753 154.826 23.5664 155.1 23.7031ZM167.473 68.752C164.283 68.752 161.822 67.681 160.09 65.5391C158.358 63.3971 157.492 60.5944 157.492 57.1309C157.492 54.7155 157.834 52.4596 158.518 50.3633C159.247 48.2214 160.204 46.3757 161.389 44.8262C162.574 43.2767 163.941 42.069 165.49 41.2031C167.085 40.2917 168.749 39.8359 170.48 39.8359C172.167 39.8359 173.602 40.4512 174.787 41.6816C175.972 42.8665 176.564 44.5755 176.564 46.8086C176.564 48.2669 176.245 49.7253 175.607 51.1836C174.969 52.5964 174.126 53.8724 173.078 55.0117C172.076 56.1055 170.959 56.9941 169.729 57.6777C168.498 58.3613 167.313 58.7031 166.174 58.7031C165.445 58.7031 164.829 58.612 164.328 58.4297C163.827 58.2474 163.371 57.974 162.961 57.6094C163.098 60.207 163.667 62.0299 164.67 63.0781C165.673 64.0807 166.971 64.582 168.566 64.582C169.66 64.582 170.617 64.3542 171.438 63.8984C172.303 63.4427 173.033 62.9186 173.625 62.3262C174.217 61.7337 174.696 61.1413 175.061 60.5488C175.425 59.9108 175.676 59.4323 175.812 59.1133C175.949 58.8398 176.177 58.7031 176.496 58.7031C176.861 58.7031 177.043 58.9766 177.043 59.5234C177.043 60.0247 176.861 60.7995 176.496 61.8477C176.177 62.8503 175.63 63.8757 174.855 64.9238C174.081 65.9264 173.078 66.8151 171.848 67.5898C170.663 68.3646 169.204 68.752 167.473 68.752ZM170.617 42.7754C170.344 42.7754 169.82 43.0716 169.045 43.6641C168.316 44.2109 167.518 45.0312 166.652 46.125C165.832 47.2188 165.057 48.5404 164.328 50.0898C163.645 51.5938 163.212 53.3027 163.029 55.2168C165.764 54.5788 167.928 53.5762 169.523 52.209C171.118 50.8418 171.916 48.8366 171.916 46.1934C171.916 44.8717 171.757 43.9831 171.438 43.5273C171.118 43.026 170.845 42.7754 170.617 42.7754ZM199.533 47.0137C199.533 47.6517 199.351 48.3125 198.986 48.9961C198.667 49.6341 198.257 50.2493 197.756 50.8418C197.255 51.4342 196.685 51.9583 196.047 52.4141C195.454 52.8242 194.885 53.0749 194.338 53.166C194.702 51.7533 194.816 50.6595 194.68 49.8848C194.543 49.11 194.315 48.5404 193.996 48.1758C193.632 47.7656 193.176 47.5378 192.629 47.4922C191.809 47.4922 191.011 47.9707 190.236 48.9277C189.507 49.8392 188.869 50.9785 188.322 52.3457C187.775 53.6673 187.342 55.1029 187.023 56.6523C186.704 58.1562 186.545 59.5234 186.545 60.7539C186.499 61.6198 186.522 62.4629 186.613 63.2832C186.659 63.9668 186.727 64.6732 186.818 65.4023C186.955 66.1315 187.137 66.7012 187.365 67.1113C187.092 67.3392 186.636 67.6126 185.998 67.9316C185.406 68.2507 184.768 68.4557 184.084 68.5469C183.446 68.638 182.854 68.5241 182.307 68.2051C181.805 67.8861 181.532 67.2025 181.486 66.1543C181.395 65.1517 181.327 64.0352 181.281 62.8047C181.281 61.5286 181.281 60.2754 181.281 59.0449C181.327 57.7689 181.372 56.5156 181.418 55.2852C181.464 54.0547 181.532 52.9154 181.623 51.8672C181.714 49.862 181.76 48.3125 181.76 47.2188C181.76 46.125 181.737 45.0768 181.691 44.0742C181.691 43.8919 181.988 43.6413 182.58 43.3223C183.218 42.9577 183.902 42.6387 184.631 42.3652C185.406 42.0918 186.112 41.9323 186.75 41.8867C187.388 41.8411 187.707 41.9779 187.707 42.2969C187.707 42.7982 187.639 43.8008 187.502 45.3047C187.411 46.763 187.274 48.2897 187.092 49.8848C187.411 49.0189 187.821 48.0846 188.322 47.082C188.869 46.0794 189.484 45.1452 190.168 44.2793C190.852 43.4134 191.626 42.707 192.492 42.1602C193.358 41.5677 194.315 41.2715 195.363 41.2715C196.184 41.2715 196.844 41.5221 197.346 42.0234C197.893 42.5247 198.326 43.0944 198.645 43.7324C198.964 44.3704 199.191 45.0085 199.328 45.6465C199.465 46.2845 199.533 46.7402 199.533 47.0137Z" fill="white"/>
</svg>
