<svg width="27" height="39" viewBox="0 0 27 39" fill="none" xmlns="http://www.w3.org/2000/svg">
<mask id="mask0_507_41" style="mask-type:alpha" maskUnits="userSpaceOnUse" x="0" y="0" width="27" height="29">
<path d="M0.895996 0.385406H26.8921V28.6169H0.895996V0.385406Z" fill="white"/>
</mask>
<g mask="url(#mask0_507_41)">
<path d="M26.8921 14.0888C26.8921 10.5022 23.9855 7.58719 20.3887 7.58719H20.3522C20.3794 7.36036 20.3887 7.13308 20.3887 6.89702C20.3887 3.31034 17.482 0.395798 13.8853 0.395798C10.2972 0.395798 7.38139 3.30154 7.38139 6.89702C7.38139 7.13308 7.39062 7.36036 7.41788 7.58719H7.38139C3.80262 7.59642 0.895996 10.5022 0.895996 14.0888C0.895996 16.7493 2.49482 19.0282 4.7838 20.0362C4.00264 20.9444 3.52128 22.1247 3.52128 23.414C3.52128 26.2745 5.84631 28.5987 8.70766 28.5987C11.569 28.5987 13.894 26.2745 13.894 23.414C13.894 26.2745 16.2195 28.5987 19.0809 28.5987C21.9418 28.5987 24.2672 26.2745 24.2672 23.414C24.2672 22.1247 23.7859 20.9444 23.0047 20.0362C25.2937 19.0374 26.8921 16.7493 26.8921 14.0888ZM13.9305 13.3987H13.894C13.894 13.3987 13.8668 13.3987 13.858 13.3987H13.894C13.894 13.3987 13.9213 13.3987 13.9305 13.3987Z" fill="#263A8B"/>
</g>
<mask id="mask1_507_41" style="mask-type:alpha" maskUnits="userSpaceOnUse" x="9" y="7" width="10" height="32">
<path d="M9.22217 7.12225H18.5628V38.1979H9.22217V7.12225Z" fill="white"/>
</mask>
<g mask="url(#mask1_507_41)">
<path d="M17.5326 32.5415C17.351 32.3599 17.0692 32.3599 16.8877 32.5415L13.654 35.7739V23.7882L15.5254 21.9177C15.7069 21.7362 15.7069 21.4544 15.5254 21.2728C15.3438 21.0913 15.062 21.0913 14.8805 21.2728L13.654 22.4989V18.4853C13.654 18.2308 13.4544 18.0312 13.1999 18.0312C12.9458 18.0312 12.7458 18.2308 12.7458 18.4853V31.9058L9.23955 28.3917C9.058 28.2101 8.77666 28.2101 8.59466 28.3917C8.41311 28.5732 8.41311 28.855 8.59466 29.0366L12.7458 33.186V48.6224C12.7458 48.877 12.9458 49.0766 13.1999 49.0766C13.4544 49.0766 13.654 48.877 13.654 48.6224V37.0544L17.5326 33.1772C17.7146 33.0044 17.7146 32.7138 17.5326 32.5415Z" fill="#263A8B"/>
</g>
</svg>
