<svg width="40" height="40" viewBox="0 0 40 40" fill="none" xmlns="http://www.w3.org/2000/svg">
<path d="M34.0929 5.90709C32.2455 4.04141 30.0477 2.55913 27.6257 1.54541C25.2037 0.531697 22.6053 0.00652257 19.9797 6.03726e-05C17.3541 -0.00640182 14.7531 0.505975 12.3262 1.50776C9.89922 2.50954 7.69411 3.98098 5.83755 5.83755C3.98098 7.69411 2.50954 9.89922 1.50776 12.3262C0.505975 14.7531 -0.00640182 17.3541 6.03726e-05 19.9797C0.00652257 22.6053 0.531697 25.2037 1.54541 27.6257C2.55913 30.0477 4.04141 32.2455 5.90709 34.0929C7.7545 35.9586 9.95233 37.4409 12.3743 38.4546C14.7963 39.4683 17.3947 39.9935 20.0203 39.9999C22.6459 40.0064 25.2469 39.494 27.6738 38.4922C30.1008 37.4905 32.3059 36.019 34.1625 34.1625C36.019 32.3059 37.4905 30.1008 38.4922 27.6738C39.494 25.2469 40.0064 22.6459 39.9999 20.0203C39.9935 17.3947 39.4683 14.7963 38.4546 12.3743C37.4409 9.95233 35.9586 7.7545 34.0929 5.90709V5.90709ZM2.91661 20C2.91597 18.488 3.11644 16.9827 3.51274 15.5236C4.16583 16.9294 5.11431 18.144 5.75939 19.5863C6.59309 21.4405 8.83173 20.9262 9.82025 22.5509C10.6976 23.9932 9.76064 25.8173 10.4173 27.3263C10.8942 28.4216 12.0189 28.6609 12.7947 29.4617C13.5875 30.2696 13.5706 31.3765 13.6916 32.43C13.8281 33.6677 14.0496 34.8946 14.3545 36.102C14.3545 36.1109 14.3545 36.1207 14.3616 36.1296C7.70352 33.7913 2.91661 27.4446 2.91661 20ZM20 37.0834C19.0459 37.0831 18.0936 37.0033 17.1528 36.8449C17.1626 36.6038 17.167 36.3787 17.191 36.2221C17.4072 34.8074 18.1155 33.4238 19.0711 32.365C20.0151 31.3204 21.3088 30.614 22.1061 29.4288C22.8873 28.2721 23.1213 26.715 22.7992 25.3635C22.3249 23.3669 19.6121 22.7004 18.1493 21.6176C17.3085 20.9948 16.5602 20.032 15.456 19.9537C14.9471 19.9181 14.5209 20.0276 14.0164 19.8977C13.5537 19.7776 13.1907 19.5284 12.6977 19.5934C11.7768 19.7144 11.1958 20.6985 10.2064 20.565C9.26771 20.4395 8.30054 19.3407 8.087 18.4465C7.81296 17.2969 8.72229 16.9241 9.69658 16.8218C10.1032 16.7791 10.5596 16.7328 10.9502 16.8823C11.4645 17.0727 11.7074 17.5763 12.1692 17.8308C13.035 18.3059 13.2102 17.5469 13.0777 16.7782C12.8792 15.6268 12.6479 15.1579 13.6747 14.3651C14.3865 13.8188 14.9951 13.4238 14.8812 12.4424C14.8136 11.8658 14.4977 11.6051 14.7922 11.0312C15.0156 10.5943 15.6286 10.2002 16.0281 9.93948C17.0593 9.26682 20.4458 9.31665 19.0622 7.43392C18.6556 6.88138 17.9055 5.89374 17.1937 5.7585C16.3039 5.59033 15.9089 6.58331 15.2887 7.02107C14.6481 7.47396 13.4006 7.98824 12.7591 7.288C11.8961 6.34574 13.3312 6.03699 13.6489 5.37857C13.7957 5.0716 13.6489 4.64541 13.4015 4.24413C13.7224 4.10888 14.0487 3.98343 14.3803 3.86776C14.5881 4.02124 14.8346 4.11369 15.0921 4.13469C15.6873 4.17384 16.2488 3.85174 16.7684 4.25747C17.345 4.70235 17.7605 5.26468 18.5257 5.40349C19.2659 5.53784 20.0498 5.10631 20.2331 4.34823C20.3443 3.88733 20.2331 3.40063 20.1263 2.92461C23.4541 2.94376 26.7028 3.94035 29.4688 5.79053C29.2909 5.72291 29.0782 5.73092 28.8157 5.85281C28.2757 6.10373 27.5105 6.74257 27.4473 7.37608C27.3752 8.09501 28.4358 8.19644 28.9394 8.19644C29.6957 8.19644 30.4618 7.85833 30.218 6.98459C30.1121 6.60555 29.968 6.21139 29.7358 5.97293C30.294 6.3603 30.8288 6.78041 31.3373 7.23105C31.3293 7.23906 31.3213 7.24618 31.3133 7.25508C30.8008 7.78893 30.2056 8.21157 29.855 8.86109C29.6076 9.31843 29.3291 9.53553 28.8282 9.65387C28.5524 9.71882 28.2374 9.74284 28.0061 9.92792C27.3619 10.4351 27.7285 11.6541 28.3388 12.0197C29.1103 12.4815 30.2545 12.2644 30.8364 11.6051C31.2911 11.0891 31.5589 10.1931 32.3766 10.194C32.7366 10.1932 33.0824 10.3342 33.3393 10.5863C33.6774 10.9369 33.6107 11.2643 33.6827 11.7021C33.81 12.4797 34.496 12.058 34.9133 11.6656C35.2174 12.207 35.4919 12.7645 35.7354 13.3357C35.2763 13.9968 34.9115 14.7175 33.8073 13.947C33.1462 13.4852 32.7396 12.8152 31.9094 12.607C31.1843 12.429 30.4413 12.6141 29.7251 12.7378C28.9109 12.8792 27.9456 12.9415 27.3281 13.5581C26.731 14.1525 26.4152 14.9479 25.7799 15.545C24.5511 16.7017 24.0324 17.9642 24.8278 19.5996C25.593 21.1718 27.1937 22.0251 28.9207 21.913C30.6175 21.8 32.3801 20.8159 32.3312 23.2814C32.3134 24.1543 32.4958 24.7584 32.7636 25.569C33.0119 26.3164 32.9949 27.0407 33.0519 27.8121C33.106 28.7154 33.2473 29.6114 33.4736 30.4876C31.8788 32.541 29.8358 34.2027 27.5006 35.3458C25.1655 36.489 22.6 37.0833 20 37.0834V37.0834Z" fill="#263A8B"/>
</svg>
