<svg xmlns="http://www.w3.org/2000/svg" xmlns:xlink="http://www.w3.org/1999/xlink" width="500" zoomAndPan="magnify" viewBox="0 0 375 374.999991" height="500" preserveAspectRatio="xMidYMid meet" version="1.0"><defs><clipPath id="ece56b03cc"><path d="M 18 26 L 357.457031 26 L 357.457031 349 L 18 349 Z M 18 26 " clip-rule="nonzero"/></clipPath><clipPath id="63ee107053"><path d="M 17.707031 25.773438 L 357 25.773438 L 357 348 L 17.707031 348 Z M 17.707031 25.773438 " clip-rule="nonzero"/></clipPath></defs><g clip-path="url(#ece56b03cc)"><path fill="#ffd233" d="M 188.023438 26.890625 L 240.363281 132.878906 L 357.457031 149.878906 L 272.707031 232.433594 L 292.773438 348.917969 L 188.023438 293.925781 L 83.203125 348.917969 L 103.203125 232.433594 L 18.519531 149.878906 L 135.613281 132.878906 Z M 188.023438 26.890625 " fill-opacity="1" fill-rule="nonzero"/></g><g clip-path="url(#63ee107053)"><path fill="#ffd233" d="M 187.210938 25.875 L 239.621094 131.863281 L 356.710938 148.863281 L 271.960938 231.417969 L 291.960938 347.902344 L 187.210938 292.910156 L 82.457031 347.902344 L 102.457031 231.417969 L 17.707031 148.863281 L 134.800781 131.863281 Z M 187.210938 25.875 " fill-opacity="1" fill-rule="nonzero"/><path fill="#ffd233" d="M 187.210938 25.875 L 239.621094 131.863281 L 356.710938 148.863281 L 271.960938 231.417969 L 291.960938 347.902344 L 187.210938 292.910156 L 82.457031 347.902344 L 102.457031 231.417969 L 17.707031 148.863281 L 134.800781 131.863281 Z M 187.210938 25.875 " fill-opacity="1" fill-rule="nonzero"/><path fill="#ffd233" d="M 187.210938 25.875 L 239.621094 131.863281 L 356.710938 148.863281 L 271.960938 231.417969 L 291.960938 347.902344 L 187.210938 292.910156 L 82.457031 347.902344 L 102.457031 231.417969 L 17.707031 148.863281 L 134.800781 131.863281 Z M 187.210938 25.875 " fill-opacity="1" fill-rule="nonzero"/></g></svg>