<svg width="22" height="22" viewBox="0 0 22 22" fill="none" xmlns="http://www.w3.org/2000/svg">
<path d="M14.4489 11.0046C14.4489 11.6851 14.2555 12.3503 13.8932 12.9161C13.5309 13.482 13.0159 13.9229 12.4134 14.1834C11.8109 14.4438 11.148 14.5119 10.5083 14.3792C9.86874 14.2464 9.28122 13.9187 8.82009 13.4375C8.35896 12.9563 8.04493 12.3433 7.9177 11.6759C7.79048 11.0085 7.85577 10.3167 8.10533 9.68797C8.3549 9.05928 8.77752 8.52192 9.31975 8.14386C9.86198 7.7658 10.4995 7.56401 11.1516 7.56401C12.0253 7.56685 12.8624 7.93025 13.4801 8.57488C14.0979 9.21951 14.4462 10.093 14.4489 11.0046ZM21.4556 6.27378V15.7355C21.4556 17.3324 20.8476 18.8639 19.7655 19.9931C18.6834 21.1222 17.2157 21.7566 15.6854 21.7566H6.61787C5.08751 21.7566 3.61984 21.1222 2.53771 19.9931C1.45559 18.8639 0.847656 17.3324 0.847656 15.7355V6.27378C0.847656 4.67689 1.45559 3.1454 2.53771 2.01622C3.61984 0.887049 5.08751 0.252686 6.61787 0.252686H15.6854C17.2157 0.252686 18.6834 0.887049 19.7655 2.01622C20.8476 3.1454 21.4556 4.67689 21.4556 6.27378ZM16.0975 11.0046C16.0975 9.9839 15.8074 8.98609 15.264 8.13737C14.7205 7.28866 13.9481 6.62717 13.0443 6.23655C12.1406 5.84594 11.1461 5.74373 10.1867 5.94287C9.2273 6.142 8.34603 6.63353 7.65433 7.3553C6.96264 8.07708 6.49159 8.99667 6.30075 9.99779C6.10991 10.9989 6.20785 12.0366 6.5822 12.9796C6.95654 13.9227 7.59047 14.7287 8.40382 15.2958C9.21717 15.8629 10.1734 16.1656 11.1516 16.1656C12.4633 16.1656 13.7214 15.6218 14.6489 14.654C15.5764 13.6861 16.0975 12.3734 16.0975 11.0046ZM17.7461 5.41362C17.7461 5.15844 17.6736 4.90899 17.5378 4.69681C17.4019 4.48463 17.2088 4.31926 16.9828 4.2216C16.7569 4.12395 16.5083 4.0984 16.2684 4.14818C16.0286 4.19796 15.8083 4.32085 15.6353 4.50129C15.4624 4.68173 15.3447 4.91163 15.297 5.16191C15.2492 5.41219 15.2737 5.67162 15.3673 5.90737C15.4609 6.14313 15.6194 6.34464 15.8227 6.48641C16.0261 6.62819 16.2651 6.70386 16.5097 6.70386C16.8376 6.70386 17.1521 6.56792 17.384 6.32596C17.6159 6.08399 17.7461 5.75581 17.7461 5.41362Z" fill="white"/>
</svg>
