<svg width="199" height="199" viewBox="0 0 199 199" fill="none" xmlns="http://www.w3.org/2000/svg">
<path d="M99.4543 2.34229C97.8664 2.34229 96.2765 2.38167 94.6907 2.46044C93.1029 2.53714 91.5171 2.6553 89.9354 2.81076C88.3538 2.96623 86.7784 3.16109 85.2051 3.39325C83.6338 3.62749 82.0687 3.89905 80.5099 4.20791C78.9511 4.51885 77.4005 4.8671 75.8583 5.25266C74.316 5.6403 72.7862 6.06317 71.2647 6.52543C69.7432 6.98562 68.2362 7.48519 66.7395 8.02C65.2429 8.55482 63.7607 9.12694 62.291 9.73431C60.8234 10.3437 59.3703 10.9863 57.9338 11.6663C56.4972 12.3462 55.0773 13.0613 53.676 13.8097C52.2747 14.558 50.8921 15.3415 49.5302 16.1583C48.1662 16.9771 46.8229 17.827 45.5025 18.71C44.18 19.5931 42.8823 20.5073 41.6054 21.4546C40.3285 22.3998 39.0764 23.3782 37.8472 24.3857C36.62 25.3952 35.4157 26.4317 34.2383 27.4992C33.0608 28.5668 31.9104 29.6633 30.7868 30.7868C29.6633 31.9104 28.5668 33.0608 27.4992 34.2383C26.4317 35.4157 25.3952 36.62 24.3857 37.8472C23.3782 39.0764 22.3998 40.3285 21.4546 41.6054C20.5073 42.8823 19.5931 44.18 18.71 45.5025C17.827 46.8229 16.9771 48.1662 16.1583 49.5302C15.3415 50.8921 14.558 52.2747 13.8097 53.676C13.0613 55.0773 12.3462 56.4972 11.6663 57.9338C10.9863 59.3703 10.3437 60.8234 9.73431 62.291C9.12694 63.7607 8.55482 65.2429 8.02 66.7395C7.48519 68.2362 6.98562 69.7432 6.52543 71.2647C6.06317 72.7862 5.6403 74.316 5.25266 75.8583C4.8671 77.4005 4.51885 78.9511 4.20791 80.5099C3.89905 82.0687 3.62749 83.6338 3.39325 85.2051C3.16109 86.7784 2.96623 88.3538 2.81076 89.9354C2.6553 91.5171 2.53714 93.1029 2.46044 94.6907C2.38167 96.2765 2.34229 97.8664 2.34229 99.4543C2.34229 101.044 2.38167 102.632 2.46044 104.22C2.53714 105.808 2.6553 107.391 2.81076 108.973C2.96623 110.555 3.16109 112.132 3.39325 113.704C3.62749 115.277 3.89905 116.842 4.20791 118.401C4.51885 119.96 4.8671 121.51 5.25266 123.05C5.6403 124.593 6.06317 126.124 6.52543 127.646C6.98562 129.165 7.48519 130.674 8.02 132.171C8.55482 133.668 9.12694 135.15 9.73431 136.618C10.3437 138.087 10.9863 139.538 11.6663 140.975C12.3462 142.411 13.0613 143.831 13.8097 145.233C14.558 146.634 15.3415 148.016 16.1583 149.38C16.9771 150.744 17.827 152.086 18.71 153.408C19.5931 154.729 20.5073 156.028 21.4546 157.305C22.3998 158.58 23.3782 159.834 24.3857 161.061C25.3952 162.291 26.4317 163.493 27.4992 164.67C28.5668 165.85 29.6633 167 30.7868 168.124C31.9104 169.247 33.0608 170.342 34.2383 171.409C35.4157 172.477 36.62 173.515 37.8472 174.523C39.0764 175.532 40.3285 176.509 41.6054 177.456C42.8823 178.403 44.18 179.318 45.5025 180.201C46.8229 181.084 48.1662 181.934 49.5302 182.75C50.8921 183.567 52.2747 184.351 53.676 185.101C55.0773 185.849 56.4972 186.564 57.9338 187.242C59.3703 187.922 60.8234 188.567 62.291 189.174C63.7607 189.784 65.2429 190.354 66.7395 190.891C68.2362 191.425 69.7432 191.923 71.2647 192.385C72.7862 192.847 74.316 193.27 75.8583 193.656C77.4005 194.044 78.9511 194.392 80.5099 194.701C82.0687 195.012 83.6338 195.283 85.2051 195.515C86.7784 195.75 88.3538 195.944 89.9354 196.1C91.5171 196.255 93.1029 196.371 94.6907 196.45C96.2765 196.527 97.8664 196.566 99.4543 196.566C101.044 196.566 102.632 196.527 104.22 196.45C105.808 196.371 107.391 196.255 108.973 196.1C110.555 195.944 112.132 195.75 113.704 195.515C115.277 195.283 116.842 195.012 118.401 194.701C119.96 194.392 121.51 194.044 123.05 193.656C124.593 193.27 126.124 192.847 127.646 192.385C129.165 191.923 130.674 191.425 132.171 190.891C133.668 190.354 135.15 189.784 136.618 189.174C138.087 188.567 139.538 187.922 140.975 187.242C142.411 186.564 143.831 185.849 145.233 185.101C146.634 184.351 148.016 183.567 149.38 182.75C150.744 181.934 152.086 181.084 153.408 180.201C154.729 179.318 156.028 178.403 157.305 177.456C158.58 176.509 159.834 175.532 161.061 174.523C162.291 173.515 163.493 172.477 164.67 171.409C165.85 170.342 167 169.247 168.124 168.124C169.247 167 170.342 165.85 171.409 164.67C172.477 163.493 173.515 162.291 174.523 161.061C175.532 159.834 176.509 158.58 177.456 157.305C178.403 156.028 179.318 154.729 180.201 153.408C181.084 152.086 181.934 150.744 182.75 149.38C183.567 148.016 184.351 146.634 185.101 145.233C185.849 143.831 186.564 142.411 187.242 140.975C187.922 139.538 188.567 138.087 189.174 136.618C189.784 135.15 190.354 133.668 190.891 132.171C191.425 130.674 191.923 129.165 192.385 127.646C192.847 126.124 193.27 124.593 193.656 123.05C194.044 121.51 194.392 119.96 194.701 118.401C195.012 116.842 195.283 115.277 195.515 113.704C195.75 112.132 195.944 110.555 196.1 108.973C196.255 107.391 196.371 105.808 196.45 104.22C196.527 102.632 196.566 101.044 196.566 99.4543C196.566 97.8664 196.527 96.2765 196.448 94.6886C196.369 93.1029 196.253 91.5171 196.098 89.9354C195.94 88.3538 195.745 86.7763 195.513 85.2051C195.279 83.6317 195.007 82.0667 194.697 80.5078C194.386 78.949 194.037 77.3985 193.652 75.8562C193.264 74.316 192.841 72.7841 192.379 71.2626C191.919 69.7432 191.419 68.2341 190.884 66.7374C190.348 65.2408 189.775 63.7587 189.168 62.289C188.559 60.8213 187.916 59.3682 187.236 57.9317C186.556 56.4952 185.841 55.0773 185.093 53.6739C184.342 52.2726 183.559 50.89 182.742 49.5281C181.925 48.1641 181.075 46.8229 180.192 45.5004C179.309 44.18 178.395 42.8802 177.448 41.6033C176.5 40.3264 175.522 39.0744 174.515 37.8451C173.507 36.618 172.469 35.4136 171.401 34.2362C170.334 33.0588 169.239 31.9083 168.115 30.7848C166.992 29.6613 165.839 28.5647 164.662 27.4992C163.485 26.4317 162.282 25.3931 161.053 24.3857C159.826 23.3762 158.574 22.3998 157.297 21.4525C156.02 20.5052 154.72 19.591 153.4 18.708C152.079 17.8249 150.736 16.975 149.372 16.1583C148.01 15.3415 146.628 14.558 145.226 13.8097C143.825 13.0593 142.405 12.3462 140.969 11.6663C139.532 10.9863 138.081 10.3437 136.613 9.73431C135.144 9.12694 133.662 8.55482 132.165 8.02C130.67 7.48312 129.161 6.98562 127.64 6.52336C126.12 6.06317 124.588 5.63822 123.048 5.25266C121.506 4.8671 119.955 4.51885 118.397 4.20791C116.84 3.89905 115.275 3.62749 113.701 3.39325C112.13 3.16109 110.553 2.96623 108.971 2.81076C107.391 2.6553 105.806 2.53714 104.22 2.46044C102.632 2.38167 101.044 2.34229 99.4543 2.34229ZM99.4543 38.7593C100.028 38.7593 100.603 38.7759 101.177 38.809C101.751 38.8422 102.323 38.892 102.893 38.9583C103.463 39.0225 104.033 39.1055 104.599 39.205C105.165 39.3045 105.727 39.4185 106.287 39.5511C106.846 39.6817 107.4 39.8289 107.951 39.9927C108.503 40.1564 109.048 40.3368 109.587 40.5316C110.128 40.7265 110.663 40.9358 111.191 41.1639C111.718 41.3898 112.24 41.6303 112.754 41.8873C113.268 42.1423 113.774 42.4138 114.274 42.6999C114.771 42.9839 115.262 43.2845 115.743 43.5975C116.224 43.9126 116.695 44.2401 117.157 44.58C117.619 44.9221 118.071 45.2765 118.515 45.6434C118.956 46.0103 119.385 46.3897 119.806 46.7835C120.225 47.1753 120.633 47.5795 121.031 47.9941C121.427 48.4108 121.811 48.8378 122.182 49.2752C122.555 49.7146 122.913 50.1624 123.258 50.6205C123.604 51.0807 123.938 51.5492 124.255 52.026C124.574 52.5048 124.879 52.9919 125.169 53.4874C125.459 53.9828 125.735 54.4865 125.996 54.9985C126.257 55.5105 126.504 56.0288 126.736 56.5553C126.966 57.0797 127.182 57.6125 127.383 58.1514C127.584 58.6883 127.768 59.2335 127.938 59.7828C128.106 60.3321 128.26 60.8856 128.396 61.4432C128.533 62.0008 128.653 62.5626 128.759 63.1264C128.863 63.6923 128.952 64.2582 129.022 64.8283C129.095 65.3983 129.149 65.9705 129.188 66.5447C129.228 67.1168 129.248 67.691 129.255 68.2652C129.261 68.8394 129.248 69.4136 129.221 69.9878C129.192 70.562 129.149 71.1341 129.087 71.7062C129.027 72.2763 128.95 72.8463 128.854 73.4122C128.761 73.9802 128.651 74.544 128.525 75.1037C128.398 75.6634 128.255 76.221 128.098 76.7724C127.938 77.3238 127.764 77.8711 127.573 78.4142C127.383 78.9552 127.177 79.4921 126.956 80.0228C126.734 80.5514 126.498 81.0758 126.247 81.592C125.996 82.1081 125.729 82.6181 125.447 83.1176C125.167 83.6193 124.87 84.1126 124.561 84.5956C124.253 85.0807 123.929 85.5554 123.591 86.0197C123.256 86.4861 122.905 86.9401 122.54 87.3858C122.178 87.8294 121.802 88.2647 121.413 88.6876C121.025 89.1104 120.625 89.5229 120.212 89.923C119.8 90.3231 119.377 90.7107 118.942 91.0859C118.506 91.4611 118.061 91.8239 117.605 92.1742C117.151 92.5245 116.684 92.8603 116.21 93.1837C115.735 93.505 115.25 93.8139 114.757 94.1103C114.263 94.4047 113.764 94.6845 113.254 94.9498C112.744 95.2172 112.228 95.4681 111.703 95.7044C111.181 95.9386 110.65 96.1604 110.113 96.3656C109.576 96.5709 109.035 96.7595 108.486 96.9336C107.939 97.1077 107.387 97.2653 106.83 97.4083C106.274 97.5493 105.714 97.6757 105.149 97.7856C104.585 97.8954 104.019 97.9887 103.449 98.0654C102.881 98.1421 102.309 98.2022 101.737 98.2458C101.162 98.2893 100.59 98.3163 100.016 98.3266C99.4418 98.337 98.8676 98.3308 98.2934 98.308C97.7193 98.2852 97.1451 98.2458 96.5729 98.1919C96.0029 98.1359 95.4328 98.0634 94.8648 97.9742C94.2969 97.8851 93.733 97.7794 93.1713 97.6591C92.6095 97.5368 92.0519 97.4 91.4984 97.2446C90.945 97.0912 90.3956 96.9212 89.8525 96.7367C89.3094 96.5522 88.7705 96.3511 88.2377 96.1335C87.7071 95.9179 87.1805 95.6857 86.6623 95.439C86.1441 95.1903 85.6321 94.9291 85.1284 94.6534C84.6246 94.3756 84.1313 94.0854 83.6441 93.7807C58.6365 77.9395 69.4716 39.064 99.4543 38.7593ZM134.385 160.149H64.5256C63.8043 160.149 63.085 160.112 62.3677 160.039C61.6505 159.969 60.9395 159.861 60.2326 159.72C59.5258 159.577 58.8272 159.401 58.1369 159.192C57.4487 158.98 56.7709 158.738 56.1054 158.462C55.438 158.184 54.7891 157.875 54.1528 157.535C53.5185 157.195 52.9007 156.824 52.3016 156.422C51.7026 156.022 51.1242 155.593 50.5687 155.135C50.0111 154.677 49.4783 154.192 48.9684 153.682C48.4585 153.172 47.9755 152.639 47.5194 152.081C47.0613 151.524 46.6343 150.946 46.2342 150.346C45.8321 149.747 45.4631 149.13 45.1231 148.493C44.7832 147.857 44.4764 147.206 44.2007 146.541C43.925 145.875 43.6825 145.195 43.4731 144.507C43.2637 143.817 43.0875 143.118 42.9466 142.411C42.8056 141.704 42.6999 140.991 42.6294 140.274C42.5589 139.557 42.5237 138.838 42.5237 138.118C42.5237 119.454 56.2713 103.339 75.9972 96.0858C76.8077 96.774 77.6493 97.4228 78.5178 98.0364C79.3864 98.6479 80.2798 99.2221 81.2002 99.7569C82.1185 100.292 83.0596 100.785 84.0214 101.237C84.9853 101.689 85.9658 102.097 86.9629 102.462C87.962 102.829 88.9736 103.15 90.0018 103.426C91.0279 103.704 92.0643 103.934 93.1112 104.12C94.158 104.305 95.211 104.446 96.2703 104.539C97.3295 104.632 98.3909 104.678 99.4543 104.678C100.518 104.678 101.579 104.632 102.638 104.539C103.698 104.446 104.751 104.305 105.797 104.12C106.844 103.934 107.883 103.704 108.909 103.426C109.935 103.15 110.949 102.829 111.946 102.462C112.945 102.097 113.925 101.689 114.887 101.237C115.851 100.785 116.792 100.292 117.71 99.7569C118.629 99.2221 119.524 98.6479 120.393 98.0364C121.261 97.4228 122.101 96.774 122.913 96.0858C142.639 103.339 156.387 119.454 156.387 138.118C156.387 138.838 156.352 139.557 156.279 140.274C156.209 140.991 156.103 141.704 155.962 142.411C155.821 143.118 155.647 143.817 155.438 144.507C155.228 145.195 154.986 145.875 154.71 146.541C154.434 147.206 154.125 147.857 153.785 148.493C153.448 149.13 153.076 149.745 152.676 150.346C152.276 150.946 151.847 151.524 151.391 152.081C150.933 152.639 150.45 153.172 149.94 153.682C149.432 154.192 148.9 154.677 148.342 155.135C147.784 155.593 147.206 156.022 146.609 156.422C146.01 156.824 145.392 157.195 144.756 157.535C144.121 157.875 143.471 158.184 142.805 158.462C142.14 158.738 141.462 158.98 140.772 159.192C140.083 159.401 139.385 159.577 138.678 159.72C137.971 159.861 137.26 159.969 136.543 160.039C135.826 160.112 135.106 160.149 134.385 160.149Z" fill="white" fill-opacity="0.7"/>
</svg>
