<svg width="39" height="37" viewBox="0 0 39 37" fill="none" xmlns="http://www.w3.org/2000/svg">
<g clip-path="url(#clip0_637_316)">
<path d="M19.491 0.435547C19.1798 0.435547 18.8682 0.44287 18.5574 0.457516C18.2462 0.471776 17.9355 0.493745 17.6255 0.522651C17.3155 0.551557 17.0068 0.587786 16.6984 0.630953C16.3905 0.674505 16.0838 0.724995 15.7783 0.782422C15.4728 0.840234 15.1689 0.904984 14.8666 0.976672C14.5644 1.04874 14.2646 1.12737 13.9664 1.21332C13.6682 1.29888 13.3729 1.39177 13.0795 1.4912C12.7862 1.59064 12.4958 1.69702 12.2077 1.80994C11.9201 1.92326 11.6353 2.04273 11.3538 2.16915C11.0723 2.29557 10.794 2.42854 10.5194 2.56767C10.2447 2.70681 9.97377 2.85249 9.70686 3.00435C9.43955 3.15659 9.1763 3.31461 8.91751 3.4788C8.65833 3.64298 8.40402 3.81295 8.15377 3.98909C7.90352 4.16484 7.65814 4.34676 7.41723 4.53407C7.17673 4.72177 6.9407 4.91447 6.70995 5.11296C6.4792 5.31145 6.25373 5.51534 6.03355 5.72423C5.81336 5.93313 5.59845 6.14704 5.38923 6.36595C5.18002 6.58487 4.97689 6.8088 4.77905 7.03696C4.58161 7.26552 4.38986 7.49831 4.20461 7.73572C4.01895 7.97314 3.8398 8.21441 3.66673 8.46031C3.49367 8.70582 3.32711 8.95557 3.16664 9.20917C3.00658 9.46239 2.85302 9.71946 2.70636 9.98001C2.5597 10.2405 2.41955 10.5046 2.2863 10.7717C2.15305 11.0387 2.02711 11.3089 1.90767 11.5818C1.78864 11.8551 1.67652 12.1306 1.5717 12.4089C1.46689 12.6872 1.36898 12.9674 1.2788 13.2503C1.1882 13.5332 1.10533 13.8176 1.02936 14.1043C0.953797 14.3911 0.885547 14.6794 0.824609 14.9692C0.764078 15.2591 0.710859 15.55 0.664953 15.8422C0.619453 16.1347 0.581266 16.4276 0.550797 16.7217C0.520328 17.0158 0.497172 17.3106 0.482141 17.6059C0.466703 17.9007 0.458984 18.1963 0.458984 18.4915C0.458984 18.7872 0.466703 19.0824 0.482141 19.3776C0.497172 19.6728 0.520328 19.9673 0.550797 20.2614C0.581266 20.5555 0.619453 20.8488 0.664953 21.1409C0.710859 21.4334 0.764078 21.7244 0.824609 22.0143C0.885547 22.3041 0.953797 22.5924 1.02936 22.8787C1.10533 23.1655 1.1882 23.4503 1.2788 23.7332C1.36898 24.0157 1.46689 24.2963 1.5717 24.5746C1.67652 24.8528 1.78864 25.1284 1.90767 25.4013C2.02711 25.6746 2.15305 25.9443 2.2863 26.2114C2.41955 26.4785 2.5597 26.7425 2.70636 27.0031C2.85302 27.2636 3.00658 27.5207 3.16664 27.7743C3.32711 28.0279 3.49367 28.2773 3.66673 28.5232C3.8398 28.7687 4.01895 29.0103 4.20461 29.2478C4.38986 29.4848 4.58161 29.718 4.77905 29.9461C4.97689 30.1747 5.18002 30.3982 5.38923 30.6171C5.59845 30.8364 5.81336 31.0504 6.03355 31.2592C6.25373 31.4681 6.4792 31.6716 6.70995 31.8701C6.9407 32.0686 7.17673 32.2617 7.41723 32.449C7.65814 32.6367 7.90352 32.8183 8.15377 32.9944C8.40402 33.1705 8.65833 33.3405 8.91751 33.5047C9.1763 33.6689 9.43955 33.8269 9.70686 33.9787C9.97377 34.1306 10.2447 34.2763 10.5194 34.4158C10.794 34.5549 11.0723 34.6879 11.3538 34.8139C11.6353 34.9404 11.9201 35.0602 12.2077 35.1732C12.4958 35.2865 12.7862 35.3925 13.0795 35.4923C13.3729 35.5917 13.6682 35.6842 13.9664 35.7702C14.2646 35.8561 14.5644 35.9347 14.8666 36.0064C15.1689 36.0785 15.4728 36.1432 15.7783 36.2007C16.0838 36.2585 16.3905 36.309 16.6984 36.3521C17.0068 36.3957 17.3155 36.4319 17.6255 36.4608C17.9355 36.4897 18.2462 36.5113 18.5574 36.526C18.8682 36.5402 19.1798 36.5475 19.491 36.5475C19.8026 36.5475 20.1138 36.5402 20.425 36.526C20.7361 36.5113 21.0465 36.4897 21.3565 36.4608C21.6665 36.4319 21.9756 36.3957 22.2835 36.3521C22.5919 36.309 22.8986 36.2585 23.2041 36.2007C23.5096 36.1432 23.8135 36.0785 24.1153 36.0064C24.4176 35.9347 24.7178 35.8561 25.016 35.7702C25.3138 35.6842 25.6095 35.5917 25.9028 35.4923C26.1961 35.3925 26.4866 35.2865 26.7742 35.1732C27.0623 35.0602 27.3466 34.9404 27.6282 34.8139C27.9097 34.6879 28.188 34.5549 28.4626 34.4158C28.7372 34.2763 29.0082 34.1306 29.2755 33.9787C29.5428 33.8269 29.8057 33.6689 30.0649 33.5047C30.3236 33.3405 30.5784 33.1705 30.8286 32.9944C31.0785 32.8183 31.3242 32.6367 31.5647 32.449C31.8056 32.2617 32.0413 32.0686 32.272 31.8701C32.5032 31.6716 32.7286 31.4681 32.9488 31.2592C33.169 31.0504 33.3835 30.8364 33.5927 30.6171C33.802 30.3982 34.0055 30.1747 34.2029 29.9461C34.4008 29.718 34.5921 29.4848 34.7778 29.2478C34.9634 29.0103 35.1426 28.7687 35.3156 28.5232C35.4887 28.2773 35.6553 28.0279 35.8153 27.7743C35.9754 27.5207 36.129 27.2636 36.276 27.0031C36.4227 26.7425 36.5628 26.4785 36.6957 26.2114C36.8289 25.9443 36.9553 25.6746 37.0743 25.4013C37.1937 25.1284 37.3055 24.8528 37.4107 24.5746C37.5155 24.2963 37.613 24.0157 37.7036 23.7332C37.7942 23.4503 37.877 23.1655 37.9526 22.8787C38.0286 22.5924 38.0968 22.3041 38.1574 22.0143C38.2183 21.7244 38.2715 21.4334 38.317 21.1409C38.3629 20.8488 38.4011 20.5555 38.4316 20.2614C38.462 19.9673 38.4848 19.6728 38.5002 19.3776C38.5153 19.0824 38.523 18.7872 38.523 18.4915C38.523 18.1963 38.5153 17.9007 38.4998 17.6055C38.4844 17.3106 38.4616 17.0158 38.4312 16.7217C38.4003 16.4276 38.3621 16.1343 38.3166 15.8422C38.2707 15.5497 38.2175 15.2587 38.1565 14.9688C38.0956 14.679 38.0274 14.3907 37.9518 14.104C37.8758 13.8176 37.7929 13.5328 37.7024 13.2499C37.6122 12.9674 37.5143 12.6868 37.4095 12.4085C37.3042 12.1302 37.1921 11.8547 37.0731 11.5814C36.9536 11.3085 36.8277 11.0384 36.6945 10.7713C36.5612 10.5042 36.421 10.2405 36.2744 9.97962C36.1273 9.71908 35.9738 9.46201 35.8137 9.20879C35.6536 8.95518 35.4871 8.70582 35.314 8.45992C35.141 8.21441 34.9618 7.97276 34.7761 7.73534C34.5905 7.49792 34.3987 7.26513 34.2013 7.03658C34.0039 6.80841 33.8003 6.58448 33.5911 6.36557C33.3819 6.14665 33.1674 5.93274 32.9472 5.72385C32.727 5.51495 32.5011 5.31107 32.2704 5.11296C32.0396 4.91447 31.804 4.72138 31.5631 4.53407C31.3226 4.34637 31.0772 4.16484 30.827 3.9887C30.5767 3.81257 30.322 3.6426 30.0632 3.47841C29.8045 3.31422 29.5412 3.1562 29.2739 3.00435C29.007 2.85249 28.736 2.70681 28.4614 2.56767C28.1868 2.42815 27.9085 2.29557 27.627 2.16915C27.3454 2.04273 27.061 1.92326 26.7734 1.80994C26.4854 1.69702 26.1949 1.59064 25.9016 1.4912C25.6087 1.39138 25.313 1.29888 25.0148 1.21293C24.717 1.12737 24.4168 1.04836 24.1149 0.976672C23.8127 0.904984 23.5088 0.840234 23.2033 0.782422C22.8982 0.724995 22.5915 0.674505 22.2831 0.630953C21.9752 0.587786 21.666 0.551557 21.3561 0.522651C21.0465 0.493745 20.7357 0.471776 20.425 0.457516C20.1138 0.44287 19.8026 0.435547 19.491 0.435547ZM19.491 7.20655C19.6035 7.20655 19.716 7.20963 19.8286 7.2158C19.9411 7.22196 20.0532 7.23121 20.165 7.24355C20.2767 7.2555 20.3884 7.27091 20.4993 7.28941C20.6102 7.30791 20.7203 7.32911 20.83 7.35378C20.9397 7.37806 21.0481 7.40542 21.1562 7.43587C21.2643 7.46632 21.3711 7.49985 21.4767 7.53608C21.5828 7.57231 21.6876 7.61123 21.7912 7.65363C21.8944 7.69564 21.9967 7.74035 22.0975 7.78814C22.1982 7.83555 22.2974 7.88604 22.3953 7.93922C22.4928 7.99203 22.589 8.04791 22.6833 8.10611C22.7775 8.16469 22.8698 8.22559 22.9604 8.2888C23.051 8.35239 23.1395 8.4183 23.2265 8.48652C23.313 8.55473 23.3971 8.62527 23.4795 8.69849C23.5616 8.77134 23.6416 8.84649 23.7196 8.92358C23.7972 9.00105 23.8724 9.08044 23.9451 9.16177C24.0182 9.24347 24.0885 9.32672 24.156 9.4119C24.2238 9.49746 24.2892 9.58457 24.3514 9.67321C24.4139 9.76225 24.4736 9.85282 24.5305 9.94493C24.5874 10.037 24.6414 10.1307 24.6926 10.2259C24.7438 10.3211 24.7921 10.4175 24.8376 10.5153C24.8827 10.6129 24.925 10.7119 24.9644 10.8121C25.0038 10.9119 25.04 11.0133 25.0733 11.1154C25.1062 11.2176 25.1362 11.3205 25.163 11.4242C25.1899 11.5278 25.2134 11.6323 25.2341 11.7371C25.2545 11.8423 25.2719 11.9476 25.2857 12.0535C25.3 12.1595 25.3105 12.2659 25.3182 12.3727C25.326 12.479 25.33 12.5858 25.3312 12.6926C25.3325 12.7993 25.33 12.9061 25.3247 13.0128C25.319 13.1196 25.3105 13.226 25.2983 13.3324C25.2865 13.4383 25.2715 13.5443 25.2528 13.6496C25.2345 13.7552 25.213 13.86 25.1882 13.9641C25.1635 14.0681 25.1354 14.1718 25.1045 14.2743C25.0733 14.3768 25.0391 14.4786 25.0018 14.5796C24.9644 14.6802 24.9242 14.78 24.8807 14.8787C24.8372 14.9769 24.7909 15.0744 24.7418 15.1704C24.6926 15.2664 24.6402 15.3612 24.585 15.4541C24.5301 15.5473 24.472 15.6391 24.4115 15.7289C24.351 15.8191 24.2876 15.9073 24.2214 15.9937C24.1555 16.0804 24.0869 16.1648 24.0154 16.2477C23.9443 16.3301 23.8708 16.4111 23.7944 16.4897C23.7184 16.5683 23.64 16.645 23.5592 16.7194C23.4783 16.7938 23.3955 16.8659 23.3101 16.9356C23.2248 17.0054 23.1375 17.0728 23.0481 17.138C22.9591 17.2031 22.8677 17.2655 22.7747 17.3257C22.6817 17.3854 22.5866 17.4428 22.4899 17.4979C22.3932 17.5527 22.2953 17.6047 22.1954 17.654C22.0955 17.7038 21.9943 17.7504 21.8915 17.7943C21.7891 17.8379 21.6851 17.8791 21.5799 17.9173C21.4747 17.9554 21.3687 17.9905 21.261 18.0229C21.1538 18.0553 21.0457 18.0845 20.9364 18.1111C20.8275 18.1374 20.7179 18.1609 20.607 18.1813C20.4965 18.2017 20.3855 18.2191 20.2738 18.2333C20.1625 18.2476 20.0504 18.2588 19.9383 18.2668C19.8257 18.2749 19.7136 18.28 19.6011 18.2819C19.4885 18.2838 19.376 18.2827 19.2635 18.2784C19.151 18.2742 19.0384 18.2668 18.9263 18.2568C18.8146 18.2464 18.7029 18.2329 18.5915 18.2164C18.4802 18.1998 18.3697 18.1801 18.2596 18.1578C18.1495 18.135 18.0403 18.1096 17.9318 18.0807C17.8233 18.0522 17.7157 18.0206 17.6092 17.9863C17.5028 17.952 17.3972 17.9146 17.2928 17.8741C17.1888 17.834 17.0856 17.7909 16.984 17.745C16.8825 17.6987 16.7821 17.6502 16.6834 17.5989C16.5847 17.5473 16.488 17.4933 16.3925 17.4367C11.4915 14.4913 13.615 7.2632 19.491 7.20655ZM26.3367 29.7765H12.6457C12.5043 29.7765 12.3633 29.7696 12.2228 29.7561C12.0822 29.743 11.9429 29.723 11.8043 29.6968C11.6658 29.6702 11.5289 29.6374 11.3936 29.5985C11.2587 29.5592 11.1259 29.5141 10.9955 29.4628C10.8647 29.4112 10.7375 29.3537 10.6128 29.2905C10.4885 29.2273 10.3674 29.1583 10.25 29.0836C10.1326 29.0092 10.0193 28.9294 9.91039 28.8442C9.80111 28.759 9.6967 28.6689 9.59677 28.574C9.49683 28.4792 9.40217 28.3802 9.3128 28.2765C9.22301 28.1728 9.13933 28.0653 9.06092 27.9539C8.98211 27.8425 8.9098 27.7277 8.84317 27.6094C8.77655 27.491 8.71642 27.37 8.66239 27.2463C8.60836 27.1226 8.56083 26.9962 8.5198 26.8682C8.47877 26.7398 8.44423 26.61 8.41661 26.4785C8.38898 26.3471 8.36827 26.2145 8.35445 26.0812C8.34064 25.9478 8.33373 25.8141 8.33373 25.6803C8.33373 22.21 11.028 19.2138 14.8939 17.8652C15.0527 17.9932 15.2176 18.1138 15.3879 18.2279C15.5581 18.3416 15.7332 18.4484 15.9135 18.5478C16.0935 18.6473 16.278 18.739 16.4665 18.823C16.6554 18.907 16.8475 18.983 17.0429 19.0508C17.2387 19.119 17.437 19.1787 17.6385 19.23C17.8396 19.2817 18.0427 19.3244 18.2479 19.3591C18.453 19.3934 18.6594 19.4196 18.867 19.437C19.0746 19.4543 19.2826 19.4628 19.491 19.4628C19.6994 19.4628 19.9074 19.4543 20.115 19.437C20.3226 19.4196 20.529 19.3934 20.7341 19.3591C20.9393 19.3244 21.1428 19.2817 21.3439 19.23C21.545 19.1787 21.7436 19.119 21.939 19.0508C22.1349 18.983 22.327 18.907 22.5155 18.823C22.7044 18.739 22.8889 18.6473 23.0688 18.5478C23.2488 18.4484 23.4243 18.3416 23.5945 18.2279C23.7647 18.1138 23.9293 17.9932 24.0885 17.8652C27.9544 19.2138 30.6486 22.21 30.6486 25.6803C30.6486 25.8141 30.6417 25.9478 30.6275 26.0812C30.6137 26.2145 30.593 26.3471 30.5654 26.4785C30.5377 26.61 30.5036 26.7398 30.4626 26.8682C30.4215 26.9962 30.374 27.1226 30.32 27.2463C30.266 27.37 30.2054 27.491 30.1388 27.6094C30.0726 27.7277 29.9999 27.8421 29.9215 27.9539C29.843 28.0653 29.759 28.1728 29.6696 28.2765C29.5798 28.3802 29.4851 28.4792 29.3852 28.574C29.2857 28.6689 29.1813 28.759 29.072 28.8442C28.9627 28.9294 28.8494 29.0092 28.7324 29.0836C28.615 29.1583 28.4939 29.2273 28.3692 29.2905C28.2449 29.3537 28.1173 29.4112 27.9869 29.4628C27.8565 29.5141 27.7236 29.5592 27.5884 29.5985C27.4535 29.6374 27.3166 29.6702 27.178 29.6968C27.0395 29.723 26.9002 29.743 26.7596 29.7561C26.619 29.7696 26.4781 29.7765 26.3367 29.7765Z" fill="#263A8B"/>
</g>
<defs>
<clipPath id="clip0_637_316">
<rect width="39" height="37" fill="white"/>
</clipPath>
</defs>
</svg>
