<svg width="32" height="33" viewBox="0 0 32 33" fill="none" xmlns="http://www.w3.org/2000/svg">
<mask id="mask0_507_40" style="mask-type:alpha" maskUnits="userSpaceOnUse" x="0" y="0" width="32" height="33">
<path d="M0.262695 0.174103H31.4773V32.3167H0.262695V0.174103Z" fill="white"/>
</mask>
<g mask="url(#mask0_507_40)">
<path d="M21.2395 24.8949C14.8252 24.8949 9.47327 19.4092 9.47327 12.8349C9.47327 6.56355 14.3462 1.28717 20.3636 0.815837C18.9665 0.397813 17.4902 0.172607 15.9619 0.172607C7.29987 0.172607 0.278809 7.36871 0.278809 16.2454C0.278809 25.1221 7.29987 32.3182 15.9619 32.3182C23.7923 32.3182 30.2819 26.4339 31.4531 18.7451C29.4128 22.3922 25.5688 24.8949 21.2395 24.8949Z" fill="#263A8B"/>
</g>
<path d="M4.34714 11.2231C4.34714 11.7074 3.96337 12.103 3.48876 12.103C3.01463 12.103 2.63086 11.7074 2.63086 11.2231C2.63086 10.7368 3.01463 10.3417 3.48876 10.3417C3.96337 10.3417 4.34714 10.7368 4.34714 11.2231Z" fill="white"/>
<path d="M5.89498 8.20625C5.89498 8.69254 5.50927 9.08615 5.03514 9.08615C4.56053 9.08615 4.17676 8.69254 4.17676 8.20625C4.17676 7.72047 4.56053 7.32686 5.03514 7.32686C5.50927 7.32686 5.89498 7.72047 5.89498 8.20625Z" fill="white"/>
<path d="M7.6113 13.0636C7.6113 13.5514 7.22753 13.945 6.75292 13.945C6.27879 13.945 5.89502 13.5514 5.89502 13.0636C5.89502 12.5793 6.27879 12.1852 6.75292 12.1852C7.22753 12.1852 7.6113 12.5793 7.6113 13.0636Z" fill="white"/>
<mask id="mask1_507_40" style="mask-type:alpha" maskUnits="userSpaceOnUse" x="18" y="6" width="6" height="15">
<path d="M18.7275 6.06183H23.7642V20.9852H18.7275V6.06183Z" fill="white"/>
</mask>
<g mask="url(#mask1_507_40)">
<path fill-rule="evenodd" clip-rule="evenodd" d="M19.0317 6.06183C19.0317 6.06183 18.7397 8.54506 18.7397 10.4319C18.7397 12.1075 19.6598 13.2744 21.2449 13.2744C22.7897 13.2744 23.7501 12.1075 23.7501 10.4319C23.7501 8.54506 23.4582 6.06183 23.4582 6.06183H19.0317ZM19.1566 6.1834H23.3333C23.3333 6.1834 23.6088 8.7907 23.6088 10.405C23.6088 11.8384 22.5498 12.5524 21.2449 12.5524C19.9401 12.5524 18.8811 11.8384 18.8811 10.405C18.8811 8.7902 19.1566 6.1834 19.1566 6.1834ZM20.697 13.3521C20.7917 13.4468 20.8743 13.5439 20.9306 13.656C20.9321 13.6595 20.9326 13.663 20.9345 13.6665C20.971 13.7542 20.9938 13.8493 21.0064 13.9505V20.318C20.8223 20.5681 20.5833 20.7121 20.3181 20.7938C19.8124 20.9034 19.1692 20.8447 18.8121 20.879H18.8107L18.7995 20.9862H23.687L23.6753 20.879H23.6744C23.3168 20.8447 22.6736 20.9034 22.1679 20.7938C21.9027 20.7121 21.6642 20.5681 21.4796 20.318V13.9505C21.4922 13.8493 21.515 13.7542 21.552 13.6665C21.5529 13.663 21.5539 13.6595 21.5554 13.656C21.6117 13.5439 21.6943 13.4468 21.789 13.3521C21.6078 13.3755 21.4257 13.3935 21.2435 13.3964H21.2425C21.0603 13.3935 20.8782 13.3755 20.697 13.3521Z" fill="#263A8B"/>
</g>
</svg>
