<svg width="1197" height="306" viewBox="0 0 1197 306" fill="none" xmlns="http://www.w3.org/2000/svg">
<path d="M1140.57 66.065C1150.34 67.5455 1162.2 64.4672 1164.89 74.8244C1171.23 99.2792 1080.55 138.386 1077.03 139.299L1064.77 220.316C1064.03 226.528 1061.32 228.744 1057.92 230.122L1048.05 233.687L1034.87 182.891L1010.21 169.199C1008.01 169.771 995.867 175.421 969.513 182.262C938.753 190.247 930.038 191.016 927.839 191.586L928.484 208.489C928.773 211.437 921.665 214.781 919.864 213.24L898.177 194.76C895.107 195.557 886.953 196.685 886.218 193.853C885.243 190.099 886.197 188.343 887.706 186.947L845.641 162.208C842.842 160.432 849.527 153.68 857.527 155.606L894.318 163.625L885.037 136.914L892.147 133.579C894.66 132.418 901.484 135.172 903.718 136.586L933.416 156.997L970.881 138.734L947.173 123.312L845.476 87.4452L851.348 79.3916C851.348 79.3916 852.621 77.0528 858.773 75.4557L1049.15 102.365L1099.95 77.6276C1102.02 76.5806 1109.79 68.5435 1120.77 65.6934C1132.65 62.6106 1133.26 64.9557 1140.58 66.0628" fill="#FFD233"/>
<path d="M27.4844 217.706C187.029 146.481 286.744 225.778 304.788 235.75C322.832 245.722 381.711 301.277 520.838 297.004C659.965 292.73 829.006 221.03 852.748 211.059" stroke="#FFD233" stroke-width="4" stroke-linecap="round" stroke-dasharray="20 20"/>
<path d="M44.1842 155.136L45.3506 195.342L34.576 199.519L8.33614 169.035L17.4996 165.482L36.6058 188.77L35.0712 158.67L44.1842 155.136Z" fill="#263A8B"/>
<path d="M76.5224 185.791C73.6718 186.558 70.9356 186.642 68.3138 186.042C65.7268 185.434 63.4687 184.177 61.5397 182.273C59.6454 180.36 58.2913 177.891 57.4775 174.866C56.673 171.877 56.6272 169.074 57.3402 166.459C58.0438 163.809 59.3791 161.567 61.3461 159.733C63.313 157.899 65.7218 156.599 68.5724 155.831C71.423 155.064 74.1592 154.98 76.781 155.58C79.4028 156.179 81.6829 157.448 83.6213 159.387C85.5504 161.291 86.9171 163.738 87.7216 166.728C88.5261 169.717 88.5592 172.542 87.8208 175.201C87.1078 177.816 85.7505 180.046 83.7488 181.889C81.7818 183.723 79.373 185.024 76.5224 185.791ZM74.4457 178.073C76.1491 177.615 77.4234 176.601 78.2686 175.031C79.1485 173.453 79.2751 171.499 78.6484 169.169C78.0216 166.84 76.9489 165.209 75.4302 164.276C73.9462 163.333 72.3525 163.091 70.6491 163.549C68.911 164.017 67.6367 165.031 66.8262 166.591C66.0064 168.116 65.9146 170.061 66.5507 172.425C67.1775 174.754 68.2155 176.395 69.6646 177.347C71.1486 178.289 72.7423 178.532 74.4457 178.073Z" fill="#263A8B"/>
<path d="M125.023 160.111C125.152 160.965 125.232 161.863 125.265 162.805L104.599 165.914C105.02 167.744 105.822 169.079 107.004 169.921C108.217 170.721 109.588 171.006 111.119 170.776C113.397 170.433 114.837 169.234 115.438 167.177L125.156 165.715C124.953 167.748 124.31 169.647 123.228 171.411C122.183 173.171 120.748 174.642 118.923 175.827C117.099 177.012 114.977 177.786 112.556 178.15C109.637 178.589 106.945 178.357 104.479 177.454C102.013 176.551 99.9652 175.039 98.3355 172.918C96.7058 170.797 95.6579 168.188 95.1919 165.09C94.7259 161.993 94.9418 159.194 95.8396 156.693C96.7731 154.186 98.2852 152.138 100.376 150.549C102.467 148.96 104.99 147.944 107.945 147.499C110.828 147.065 113.482 147.285 115.907 148.158C118.332 149.031 120.336 150.495 121.92 152.55C123.539 154.6 124.573 157.12 125.023 160.111ZM115.317 159.114C115.081 157.547 114.36 156.382 113.152 155.617C111.945 154.852 110.54 154.59 108.938 154.831C107.408 155.061 106.175 155.702 105.241 156.752C104.343 157.798 103.892 159.158 103.889 160.833L115.317 159.114Z" fill="#263A8B"/>
<path d="M148.685 158.881C148.789 155.786 149.456 153.089 150.686 150.789C151.951 148.49 153.613 146.745 155.67 145.553C157.727 144.362 159.997 143.807 162.479 143.891C164.602 143.962 166.441 144.456 167.995 145.373C169.585 146.29 170.788 147.465 171.605 148.898L171.748 144.634L180.977 144.944L179.966 175.059L170.737 174.749L170.88 170.485C169.934 171.859 168.636 172.95 166.988 173.759C165.376 174.569 163.509 174.939 161.386 174.868C158.939 174.785 156.73 174.081 154.757 172.754C152.786 171.391 151.246 169.52 150.137 167.142C149.065 164.729 148.581 161.975 148.685 158.881ZM171.243 159.692C171.32 157.389 170.733 155.55 169.483 154.175C168.268 152.802 166.743 152.084 164.908 152.023C163.073 151.961 161.486 152.574 160.146 153.862C158.843 155.115 158.153 156.893 158.076 159.196C157.998 161.498 158.567 163.355 159.78 164.764C161.031 166.139 162.573 166.857 164.408 166.918C166.243 166.98 167.813 166.366 169.117 165.077C170.457 163.79 171.165 161.994 171.243 159.692Z" fill="#263A8B"/>
<path d="M201.489 137.777L196.11 177.373L186.96 176.13L192.339 136.534L201.489 137.777Z" fill="#263A8B"/>
<path d="M222.866 174.638L221.212 182.291L216.62 181.298C213.347 180.591 210.967 179.248 209.48 177.269C208 175.255 207.651 172.436 208.435 168.812L210.967 157.094L207.378 156.319L208.998 148.824L212.587 149.599L214.138 142.421L223.164 144.372L221.613 151.55L227.524 152.827L225.904 160.322L219.993 159.045L217.438 170.868C217.247 171.748 217.322 172.427 217.66 172.905C217.999 173.383 218.661 173.729 219.646 173.942L222.866 174.638Z" fill="#263A8B"/>
<path d="M241.198 188.791C238.403 187.841 236.083 186.388 234.238 184.431C232.427 182.486 231.251 180.185 230.708 177.529C230.199 174.885 230.448 172.081 231.455 169.115C232.451 166.183 233.972 163.83 236.02 162.054C238.08 160.244 240.437 159.124 243.092 158.695C245.747 158.266 248.472 158.526 251.267 159.475C254.062 160.425 256.382 161.878 258.227 163.835C260.071 165.792 261.259 168.115 261.791 170.805C262.334 173.461 262.107 176.254 261.112 179.186C260.116 182.117 258.572 184.482 256.478 186.281C254.431 188.057 252.062 189.153 249.373 189.571C246.718 190 243.993 189.74 241.198 188.791ZM243.768 181.223C245.438 181.79 247.061 181.657 248.637 180.823C250.247 180.001 251.439 178.448 252.215 176.165C252.99 173.881 253.007 171.928 252.265 170.308C251.557 168.698 250.367 167.61 248.697 167.043C246.993 166.464 245.37 166.597 243.828 167.443C242.298 168.254 241.139 169.818 240.352 172.136C239.577 174.42 239.526 176.361 240.2 177.958C240.908 179.568 242.097 180.656 243.768 181.223Z" fill="#263A8B"/>
<path d="M275.096 192.89L263.213 204.506L257.858 202.064L267.136 189.262L275.096 192.89Z" fill="#263A8B"/>
<path d="M297.339 196.817C298.993 194.2 300.932 192.21 303.156 190.847C305.41 189.504 307.726 188.838 310.103 188.85C312.481 188.862 314.719 189.531 316.819 190.858C318.615 191.993 319.951 193.348 320.829 194.925C321.736 196.521 322.181 198.143 322.161 199.791L324.44 196.185L332.246 201.118L316.149 226.59L308.343 221.657L310.622 218.051C309.111 218.757 307.44 219.042 305.609 218.907C303.809 218.792 302.011 218.166 300.215 217.032C298.146 215.724 296.595 213.999 295.564 211.857C294.552 209.685 294.169 207.292 294.415 204.679C294.711 202.055 295.685 199.435 297.339 196.817ZM316.392 208.921C317.622 206.973 318.046 205.09 317.662 203.272C317.308 201.473 316.355 200.083 314.803 199.102C313.251 198.121 311.572 197.848 309.764 198.281C308.007 198.704 306.513 199.889 305.282 201.837C304.051 203.784 303.603 205.673 303.937 207.503C304.321 209.321 305.289 210.72 306.841 211.701C308.394 212.682 310.058 212.946 311.835 212.493C313.642 212.059 315.161 210.869 316.392 208.921Z" fill="#263A8B"/>
<path d="M337.967 230.646L355.083 216.098L363.351 221.411L338.066 240.98L328.481 234.82L335.776 203.69L344.089 209.033L337.967 230.646Z" fill="#263A8B"/>
<path d="M382.009 246.394C381.635 247.173 381.196 247.96 380.692 248.757L361.862 239.694C361.18 241.443 361.09 242.999 361.594 244.36C362.146 245.704 363.119 246.712 364.514 247.383C366.59 248.382 368.455 248.201 370.109 246.839L378.965 251.101C377.652 252.667 376.052 253.875 374.165 254.724C372.31 255.59 370.296 255.998 368.121 255.951C365.947 255.903 363.757 255.348 361.551 254.287C358.891 253.007 356.796 251.299 355.266 249.165C353.737 247.03 352.895 244.628 352.742 241.957C352.589 239.287 353.192 236.54 354.55 233.718C355.908 230.896 357.662 228.704 359.812 227.142C361.995 225.595 364.397 224.754 367.02 224.618C369.642 224.481 372.3 225.061 374.992 226.357C377.62 227.621 379.69 229.297 381.203 231.383C382.716 233.47 383.548 235.808 383.7 238.398C383.884 241.004 383.321 243.669 382.009 246.394ZM374.548 240.106C375.235 238.679 375.295 237.309 374.727 235.998C374.16 234.686 373.147 233.679 371.687 232.976C370.292 232.305 368.913 232.141 367.549 232.483C366.218 232.842 365.08 233.712 364.135 235.095L374.548 240.106Z" fill="#263A8B"/>
<path d="M405.994 238.779C409.341 239.895 411.64 241.876 412.892 244.723C414.189 247.546 414.206 250.853 412.941 254.644L407.372 271.344L398.663 268.439L403.84 252.918C404.478 251.005 404.478 249.354 403.841 247.965C403.204 246.576 402.048 245.603 400.375 245.045C398.702 244.487 397.193 244.572 395.85 245.3C394.506 246.028 393.516 247.349 392.878 249.261L387.701 264.783L378.941 261.861L388.475 233.277L397.234 236.199L395.97 239.989C397.28 239.022 398.805 238.43 400.547 238.214C402.3 237.964 404.116 238.152 405.994 238.779Z" fill="#263A8B"/>
<path d="M430.435 268.532L428.665 276.159L424.089 275.098C420.828 274.341 418.468 272.962 417.011 270.961C415.561 268.925 415.255 266.101 416.093 262.489L418.802 250.811L415.225 249.981L416.958 242.512L420.535 243.341L422.194 236.187L431.189 238.274L429.53 245.428L435.422 246.794L433.689 254.264L427.797 252.898L425.064 264.681C424.861 265.557 424.925 266.237 425.256 266.721C425.587 267.204 426.244 267.56 427.226 267.788L430.435 268.532Z" fill="#263A8B"/>
<path d="M466.633 251.625L462.329 281.448L453.189 280.129L453.776 276.067C452.659 277.252 451.24 278.138 449.518 278.726C447.837 279.284 446.035 279.424 444.111 279.146C441.83 278.817 439.889 278.027 438.287 276.778C436.69 275.492 435.55 273.818 434.866 271.755C434.181 269.692 434.027 267.36 434.402 264.759L436.917 247.336L446.003 248.647L443.665 264.842C443.377 266.837 443.67 268.461 444.544 269.715C445.418 270.969 446.728 271.722 448.474 271.974C450.255 272.231 451.743 271.882 452.935 270.926C454.128 269.971 454.868 268.495 455.156 266.5L457.494 250.306L466.633 251.625Z" fill="#263A8B"/>
<path d="M479.502 257.404C480.689 255.823 482.122 254.619 483.8 253.792C485.481 252.929 487.309 252.563 489.285 252.693L488.639 262.446L486.107 262.279C483.808 262.127 482.051 262.515 480.835 263.445C479.621 264.339 478.932 266.025 478.768 268.504L477.845 282.459L468.631 281.85L470.62 251.783L479.834 252.393L479.502 257.404Z" fill="#263A8B"/>
<path d="M520.183 267.8C520.182 268.664 520.127 269.564 520.018 270.5L499.12 270.479C499.263 272.352 499.855 273.792 500.898 274.801C501.977 275.774 503.291 276.262 504.839 276.263C507.143 276.265 508.746 275.295 509.648 273.352L519.476 273.362C518.97 275.341 518.05 277.122 516.716 278.705C515.419 280.288 513.779 281.528 511.799 282.426C509.818 283.324 507.603 283.772 505.155 283.769C502.203 283.767 499.576 283.134 497.273 281.872C494.97 280.609 493.172 278.808 491.878 276.466C490.585 274.125 489.939 271.388 489.943 268.256C489.946 265.124 490.578 262.389 491.841 260.05C493.139 257.712 494.941 255.913 497.246 254.656C499.551 253.398 502.198 252.771 505.186 252.773C508.102 252.776 510.693 253.391 512.96 254.617C515.227 255.843 516.989 257.591 518.247 259.86C519.541 262.13 520.186 264.776 520.183 267.8ZM510.735 265.361C510.737 263.777 510.198 262.516 509.119 261.579C508.04 260.642 506.691 260.173 505.071 260.171C503.523 260.17 502.208 260.619 501.127 261.517C500.082 262.416 499.433 263.694 499.179 265.35L510.735 265.361Z" fill="#263A8B"/>
<path d="M546.599 258.781L547.13 266.431L523.427 268.076L522.896 260.427L546.599 258.781Z" fill="#263A8B"/>
<path d="M568.969 279.575C566.362 279.906 563.984 279.754 561.835 279.12C559.686 278.486 557.925 277.476 556.551 276.09C555.173 274.668 554.29 273.002 553.902 271.091L562.956 269.942C563.194 270.964 563.783 271.742 564.722 272.276C565.661 272.81 566.755 272.998 568.005 272.839C569.148 272.694 569.995 272.368 570.548 271.863C571.132 271.317 571.379 270.687 571.288 269.973C571.179 269.115 570.653 268.547 569.711 268.268C568.763 267.952 567.258 267.672 565.195 267.426C562.988 267.198 561.137 266.907 559.64 266.552C558.139 266.162 556.796 265.444 555.611 264.397C554.421 263.314 553.697 261.755 553.438 259.719C553.221 258.005 553.488 256.393 554.239 254.882C555.022 253.331 556.272 252.029 557.989 250.976C559.742 249.919 561.886 249.23 564.422 248.908C568.172 248.432 571.236 248.986 573.615 250.571C576.029 252.151 577.592 254.457 578.303 257.487L569.839 258.562C569.565 257.545 568.996 256.782 568.134 256.275C567.306 255.763 566.268 255.586 565.018 255.745C563.947 255.881 563.152 256.2 562.635 256.701C562.114 257.166 561.898 257.756 561.989 258.47C562.098 259.327 562.626 259.914 563.573 260.229C564.556 260.539 566.039 260.787 568.022 260.97C570.309 261.261 572.185 261.603 573.65 261.998C575.111 262.356 576.439 263.095 577.633 264.213C578.859 265.292 579.621 266.864 579.92 268.931C580.142 270.681 579.841 272.316 579.018 273.836C578.226 275.315 576.952 276.566 575.194 277.587C573.473 278.604 571.398 279.267 568.969 279.575Z" fill="#263A8B"/>
<path d="M611.619 256.596C611.768 257.447 611.87 258.342 611.925 259.283L591.341 262.892C591.806 264.711 592.64 266.026 593.843 266.839C595.074 267.61 596.452 267.862 597.977 267.594C600.247 267.197 601.657 265.963 602.207 263.892L611.888 262.195C611.733 264.233 611.137 266.146 610.098 267.937C609.095 269.721 607.696 271.227 605.901 272.455C604.107 273.683 602.004 274.509 599.592 274.932C596.685 275.441 593.987 275.275 591.5 274.432C589.013 273.588 586.93 272.126 585.249 270.045C583.569 267.964 582.458 265.381 581.917 262.296C581.376 259.211 581.524 256.407 582.361 253.885C583.234 251.356 584.696 249.273 586.748 247.634C588.799 245.995 591.297 244.917 594.24 244.401C597.112 243.898 599.771 244.053 602.216 244.867C604.662 245.681 606.701 247.096 608.333 249.113C610.001 251.123 611.097 253.617 611.619 256.596ZM601.891 255.834C601.618 254.274 600.868 253.126 599.643 252.39C598.417 251.655 597.007 251.427 595.411 251.707C593.886 251.974 592.67 252.644 591.761 253.717C590.889 254.784 590.471 256.155 590.509 257.829L601.891 255.834Z" fill="#263A8B"/>
<path d="M628.271 253.639C627.557 250.589 627.546 247.782 628.239 245.216C628.967 242.642 630.292 240.483 632.213 238.739C634.168 236.987 636.583 235.774 639.458 235.1C643.138 234.238 646.431 234.484 649.336 235.836C652.276 237.181 654.543 239.516 656.135 242.84L646.566 245.082C645.234 243.028 643.412 242.272 641.098 242.813C639.451 243.199 638.288 244.156 637.611 245.683C636.925 247.174 636.861 249.112 637.42 251.495C637.978 253.879 638.9 255.604 640.185 256.671C641.462 257.703 642.925 258.026 644.572 257.64C646.885 257.098 648.182 255.611 648.463 253.179L658.032 250.937C658.065 254.553 657.068 257.633 655.039 260.179C653.01 262.725 650.173 264.425 646.528 265.279C643.654 265.953 640.951 265.939 638.421 265.237C635.925 264.528 633.78 263.182 631.984 261.199C630.223 259.208 628.986 256.688 628.271 253.639Z" fill="#263A8B"/>
<path d="M678.345 257.258C675.495 258.026 672.759 258.111 670.137 257.512C667.55 256.904 665.291 255.648 663.362 253.745C661.467 251.832 660.112 249.363 659.297 246.339C658.492 243.35 658.446 240.547 659.158 237.932C659.861 235.282 661.195 233.04 663.162 231.205C665.128 229.37 667.537 228.069 670.387 227.301C673.238 226.533 675.974 226.449 678.596 227.047C681.218 227.646 683.498 228.914 685.437 230.853C687.367 232.757 688.734 235.203 689.539 238.192C690.345 241.182 690.378 244.006 689.641 246.666C688.929 249.281 687.572 251.511 685.571 253.355C683.604 255.189 681.196 256.491 678.345 257.258ZM676.266 249.542C677.97 249.083 679.244 248.068 680.089 246.499C680.968 244.919 681.094 242.965 680.467 240.636C679.839 238.307 678.766 236.676 677.247 235.743C675.763 234.801 674.169 234.559 672.466 235.018C670.728 235.486 669.454 236.501 668.644 238.061C667.825 239.587 667.733 241.531 668.37 243.895C668.997 246.224 670.036 247.864 671.485 248.816C672.969 249.759 674.563 250 676.266 249.542Z" fill="#263A8B"/>
<path d="M706.37 217.077C709.747 216.056 712.768 216.346 715.434 217.947C718.123 219.503 720.046 222.194 721.203 226.019L726.297 242.87L717.51 245.526L712.775 229.864C712.191 227.935 711.239 226.587 709.916 225.821C708.594 225.055 707.089 224.927 705.4 225.437C703.711 225.948 702.529 226.888 701.853 228.259C701.176 229.629 701.13 231.279 701.713 233.209L706.449 248.871L697.61 251.543L688.889 222.7L697.728 220.028L698.885 223.853C699.395 222.307 700.299 220.943 701.597 219.761C702.884 218.545 704.475 217.65 706.37 217.077Z" fill="#263A8B"/>
<path d="M746.164 236.801C743.363 237.734 740.636 237.978 737.984 237.533C735.366 237.077 733.038 235.955 731.001 234.167C728.998 232.367 727.501 229.982 726.512 227.01C725.534 224.073 725.324 221.278 725.883 218.625C726.43 215.939 727.632 213.623 729.488 211.677C731.344 209.73 733.673 208.291 736.474 207.359C739.274 206.426 742.001 206.182 744.653 206.627C747.306 207.072 749.656 208.205 751.705 210.027C753.742 211.815 755.25 214.178 756.228 217.115C757.206 220.053 757.404 222.871 756.823 225.568C756.264 228.221 755.04 230.526 753.149 232.483C751.293 234.429 748.964 235.869 746.164 236.801ZM743.639 229.218C745.312 228.661 746.525 227.574 747.277 225.958C748.063 224.33 748.075 222.372 747.313 220.084C746.551 217.795 745.385 216.23 743.814 215.387C742.277 214.532 740.672 214.384 738.999 214.941C737.291 215.51 736.078 216.597 735.36 218.202C734.631 219.772 734.653 221.719 735.427 224.042C736.189 226.33 737.321 227.907 738.823 228.773C740.36 229.627 741.965 229.776 743.639 229.218Z" fill="#263A8B"/>
<path d="M777.338 226.017C774.864 226.905 772.51 227.273 770.275 227.12C768.039 226.967 766.101 226.363 764.459 225.307C762.806 224.218 761.582 222.783 760.79 221.003L769.378 217.917C769.833 218.863 770.576 219.495 771.608 219.813C772.641 220.13 773.75 220.076 774.935 219.65C776.02 219.261 776.777 218.759 777.206 218.146C777.658 217.486 777.762 216.818 777.519 216.14C777.227 215.327 776.59 214.886 775.609 214.818C774.616 214.715 773.086 214.768 771.018 214.975C768.815 215.231 766.944 215.349 765.407 215.327C763.857 215.272 762.39 214.862 761.005 214.097C759.609 213.298 758.564 211.933 757.87 210.002C757.286 208.376 757.197 206.744 757.603 205.106C758.031 203.422 758.969 201.88 760.417 200.48C761.898 199.068 763.842 197.93 766.248 197.065C769.805 195.787 772.916 195.664 775.582 196.696C778.282 197.715 780.307 199.626 781.659 202.431L773.63 205.315C773.141 204.382 772.421 203.761 771.469 203.452C770.55 203.132 769.498 203.185 768.312 203.611C767.296 203.976 766.59 204.459 766.194 205.061C765.785 205.628 765.703 206.251 765.946 206.928C766.239 207.741 766.881 208.199 767.874 208.301C768.901 208.391 770.402 208.311 772.378 208.06C774.673 207.848 776.579 207.775 778.095 207.842C779.599 207.876 781.055 208.309 782.464 209.142C783.894 209.929 784.979 211.298 785.719 213.251C786.315 214.911 786.377 216.572 785.903 218.235C785.45 219.851 784.477 221.348 782.983 222.726C781.523 224.092 779.641 225.189 777.338 226.017Z" fill="#263A8B"/>
<path d="M787.75 205.79C786.625 202.868 786.23 200.088 786.565 197.451C786.933 194.802 787.95 192.482 789.613 190.491C791.311 188.487 793.537 186.955 796.292 185.894C799.819 184.536 803.115 184.328 806.178 185.27C809.275 186.2 811.839 188.202 813.872 191.277L804.7 194.808C803.1 192.956 801.191 192.456 798.974 193.31C797.395 193.918 796.374 195.025 795.912 196.63C795.437 198.202 795.639 200.13 796.519 202.414C797.399 204.699 798.548 206.281 799.967 207.162C801.374 208.009 802.866 208.129 804.445 207.521C806.663 206.667 807.744 205.017 807.689 202.569L816.86 199.038C817.389 202.614 816.823 205.803 815.162 208.603C813.501 211.402 810.923 213.475 807.429 214.82C804.675 215.881 801.996 216.237 799.393 215.889C796.824 215.529 794.514 214.489 792.464 212.771C790.447 211.04 788.876 208.713 787.75 205.79Z" fill="#263A8B"/>
<path d="M838.429 202.446C835.701 203.576 832.999 204.013 830.322 203.758C827.678 203.49 825.276 202.536 823.117 200.898C820.99 199.246 819.328 196.973 818.129 194.08C816.945 191.219 816.536 188.447 816.905 185.761C817.259 183.042 818.293 180.646 820.006 178.573C821.719 176.5 823.939 174.898 826.666 173.768C829.393 172.639 832.095 172.201 834.773 172.456C837.45 172.711 839.875 173.674 842.049 175.345C844.208 176.984 845.88 179.233 847.065 182.093C848.25 184.953 848.648 187.75 848.261 190.482C847.892 193.168 846.835 195.554 845.089 197.641C843.376 199.714 841.156 201.316 838.429 202.446ZM835.37 195.062C837 194.387 838.132 193.217 838.767 191.551C839.435 189.871 839.307 187.917 838.384 185.689C837.461 183.461 836.186 181.982 834.559 181.253C832.966 180.511 831.354 180.477 829.725 181.152C828.062 181.841 826.929 183.011 826.328 184.663C825.712 186.282 825.873 188.222 826.81 190.484C827.733 192.712 828.975 194.204 830.535 194.961C832.129 195.704 833.74 195.737 835.37 195.062Z" fill="#263A8B"/>
</svg>
